<?xml version="1.0" encoding="UTF-8"?>
<svg id="Layer_1" data-name="Layer 1" xmlns="http://www.w3.org/2000/svg" viewBox="0 0 591.81 193.41">
  <defs>
    <style>
      .cls-1 {
        fill: #fff;
      }
    </style>
  </defs>
  <g>
    <path class="cls-1" d="M87.81,77.61c-28.39,0-9.81-9.74-9.81-21.47V24.69c0-8.48-19.04-19.69,9.95-19.69,11.59,0,10.45,11.29,10.45,19.4v31.96c0,11.65,18.95,21.25-10.59,21.25Z"/>
    <path class="cls-1" d="M162.83,52.16c0,14.26-9.17,27.25-28.74,27.25s-27.08-13.62-27.08-27.25,8.87-27.25,27.78-27.25,28.03,14.04,28.04,27.25Zm-20.65,0c0-10.21-2.84-18.53-7.18-18.66-4.27,.13-7.55,8.04-7.55,18.6s2.6,19.04,8.11,19.23c5.51-.2,6.61-8.93,6.61-19.18Z"/>
    <path class="cls-1" d="M219.8,77.63c-5.94,0-8.54-2.96-9.65-6.94-.35-1.24-1.87-1.72-2.88-.92-7.35,5.76-11.83,9.65-17.85,9.65-11.67,0-18.42-4.92-18.42-22v-11.46c0-8.48-19.04-19.69,9.95-19.69,12.43,0,10.45,11.29,10.45,19.4v3.58c0,9.85-.07,16.49,6.59,16.49,3.66,0,6.65-3.92,11.37-8.34v-9.43c0-11.65-18.95-21.25,10.59-21.25s9.81,9.74,9.81,21.46v9.76c0,8.47,19.04,19.69-9.95,19.69Z"/>
    <path class="cls-1" d="M285.22,78.96c-2.51,0-6.53-2.31-8.65-4.21-2.01,2.4-7.05,4.66-11.86,4.66-19.48,0-25.82-14.72-25.82-27.53s7.78-26.97,22.8-26.97c8.13,0,13.29,7.43,13.29,7.43v-7.96c0-8.11-18.84-19.4,10.45-19.4,5.88,0,9.99,6,9.99,19.69l.04,43.82c-.02,4.04,3.64,2.88,4.16,5.67,.76,4.1-11.57,4.8-14.4,4.8Zm-10.12-16.69c0-2.21-.05-10.9-.05-17.26,0-7.08-6.02-8.13-8.47-8.13-6.54,0-11.86,7.65-11.86,15.81,0,8.95,4.86,16.94,13.55,16.94,4.35,0,6.82-2.69,6.82-7.37Z"/>
    <path class="cls-1" d="M362.55,45.48c-6.1,11.46-11.36,21.59-17.69,32.7-6.14,10.79-8.12,17.58-20.01,21.26-3.71,1.15-6.06,1.06-8.18-2.43-2.13-3.49-4.04-10.38-2.08-13.83,1.96-3.45,7.8-3.49,11.98-3.14,2.9,.24,5.61-.54,6.92-2.84l1.77-3.11c-1.61-1.85-3.29-4.48-5.03-8.03-5.78-11.78-13.25-21.18-27.05-26.22-5.64-2.05,.54-13.19,12.22-13.13,6.42,.03,14.51,3.69,23.2,13.54,4.42,5.01,5.81,6.52,8.17,9.77,.83-2.17,1.19-5.06-1.03-8.69-2.5-4.09-7.01-5.2-5.67-7.79,1.81-3.51,9.15-5.74,13.59-6.52,9.22-1.63,13.16,10.2,8.89,18.46Z"/>
    <path class="cls-1" d="M409.59,77.61h0c-12.4-.03-15.6-1.54-15.6-5.17,0-3.96,5.96-9.88,5.96-16.43V24.56c0-4.89-6.13-10.68-6.13-14.72,0-3.04,3.81-5.03,16.09-5.03h22.3c16.64,0,25.54,18.15,25.54,36.2s-8.12,36.59-25.54,36.59h-22.61Zm10.76-53.34v31.96c0,8.84-1.26,11.82,5.49,11.82,8.47,0,12.28-13.24,12.28-27.03s-4.2-26.7-12.46-26.7c-5.4,0-5.31,2.29-5.31,9.95Z"/>
    <path class="cls-1" d="M505.42,77.66c-3.41,0-9.6-1.77-10.03-5.27-3.41,3.41-7.2,7.02-14.18,7.02-12.54,0-18.83-7.03-19.24-15.31,0-15.98,19.27-14.22,19.27-16.7s-15.7-2.88-15.7-11.28c0-5.81,9.89-11.22,23.12-11.22,10.65,0,27.27,3.09,27.27,20.16,0,8.56,.12,15.3,.08,23.48-.01,4.04,3.91,1.41,4.42,4.2,.76,4.1-12.2,4.93-15.03,4.93Zm-9.98-30.11c0-11.06-5.81-13.18-10.92-13.3-4.02-.09-6.21,1.71-6.21,3.45,0,3.66,14.03,4.78,14.03,9.88,0,3.19-9.66,3.73-9.66,13.96,0,3.53,1.6,7.7,5.64,7.7,2.02,0,4.39-1.2,7.05-5.17-.12-9.25-.03-7.27,.08-16.52Z"/>
    <path class="cls-1" d="M582.15,45.48c-6.1,11.46-11.36,21.59-17.69,32.7-6.14,10.79-8.12,17.58-20.01,21.26-3.71,1.15-6.06,1.06-8.18-2.43-2.13-3.49-4.04-10.38-2.08-13.83,1.96-3.45,7.8-3.49,11.98-3.14,2.9,.24,5.61-.54,6.92-2.84l1.77-3.11c-1.61-1.85-3.29-4.48-5.03-8.03-5.78-11.78-13.25-21.18-27.05-26.22-5.64-2.05,.54-13.19,12.22-13.13,6.42,.03,14.51,3.69,23.2,13.54,4.42,5.01,5.82,6.52,8.17,9.77,.83-2.17,1.19-5.06-1.03-8.69-2.5-4.09-7.01-5.2-5.67-7.79,1.81-3.51,9.15-5.74,13.59-6.52,9.22-1.63,13.16,10.2,8.89,18.46Z"/>
    <path class="cls-1" d="M259.83,187.61c-28.39,0-9.81-9.74-9.81-21.47v-31.45c0-8.47-19.04-19.69,9.95-19.69,11.59,0,10.45,11.29,10.45,19.4v31.96c0,11.65,18.95,21.25-10.59,21.25Z"/>
    <path class="cls-1" d="M332.78,187.63c-5.94,0-8.53-2.96-9.65-6.94-.35-1.24-1.87-1.72-2.88-.92-7.35,5.76-11.83,9.64-17.85,9.64-11.67,0-18.42-4.92-18.42-22v-11.46c0-8.48-19.04-19.69,9.95-19.69,12.43,0,10.45,11.29,10.45,19.4v3.59c0,9.85-.07,16.49,6.59,16.49,3.66,0,6.65-3.92,11.37-8.34v-9.43c0-11.65-18.95-21.25,10.59-21.25s9.81,9.74,9.81,21.46v9.76c0,8.48,19.04,19.69-9.95,19.69Z"/>
    <path class="cls-1" d="M410.79,162.83c0,14.36-8.41,26.58-28.4,26.58-8.08,0-15.92-1.8-20.2-1.8-3.92,0-7.83,.39-7.83-3.27,0-5.79-.09-49.49-.09-49.49,0-4.93-6.12-11.11-6.12-15.16,0-3.17,6.71-4.87,16.1-4.87,10.16,0,10.45,11.63,10.45,19.73v7.96s4.76-7.61,14.35-7.61c14.62,0,21.73,15.28,21.73,27.92Zm-19.35,1.83c0-12.46-4.74-21.38-10.14-21.38-3.33,0-6.62,4.3-6.62,8.59v14.65c0,10,1.95,14.93,6.92,14.93s9.84-6.12,9.84-16.79Z"/>
  </g>
  <path class="cls-1" d="M69.29,67.8c-.2,1-1.03,2.32-2.77,3.91-6.33,5.81-14.14,7.69-22.66,7.69-24.85,0-37.6-20.08-37.4-38.23C6.66,23.03,20.15,3.02,41.16,3.02c19.82,0,26.64,10.97,26.84,18.95,.18,7.48-3.84,11.07-9.92,11.07-7.23,0-10.4-3.76-10.4-9.99,0-1.33,2.64-11.59-5.02-11.59-1.37,0-2.63,.28-3.81,.78-2.51,1.66-4.01,3.79-5.3,6.36-1.48,2.95-2.46,6.26-3.11,9.59-1.13,5.82-1.43,11.89-.68,17.78,.79,6.24,3.9,12.1,8.7,16.27,2.98,2.59,6.6,4.49,10.53,5.05,3.56,.5,7.12-.32,10.5-1.35,2.57-.78,5.23-2.05,7.94-2.25,2.58-.19,2.43,2.28,1.87,4.11Z"/>
  <path class="cls-1" d="M241.63,177.82c-.2,1-1.03,2.32-2.77,3.91-6.33,5.81-14.14,7.69-22.66,7.69-24.85,0-37.6-20.08-37.4-38.23,.2-18.15,13.69-38.16,34.7-38.16,19.82,0,26.64,10.97,26.84,18.95,.18,7.48-3.84,11.07-9.92,11.07-7.23,0-10.4-3.76-10.4-9.99,0-1.33,2.64-11.59-5.02-11.59-1.37,0-2.63,.28-3.81,.78-2.51,1.66-4.01,3.79-5.3,6.36-1.48,2.95-2.46,6.26-3.11,9.59-1.13,5.82-1.43,11.89-.68,17.78,.79,6.24,3.9,12.1,8.7,16.27,2.98,2.59,6.6,4.49,10.53,5.05,3.56,.5,7.12-.32,10.5-1.35,2.57-.78,5.23-2.05,7.94-2.25,2.58-.19,2.43,2.28,1.87,4.11Z"/>
</svg>