<?xml version="1.0" encoding="UTF-8"?>
<svg id="Layer_1" data-name="Layer 1" xmlns="http://www.w3.org/2000/svg" viewBox="0 0 581.51 293.08">
  <defs>
    <style>
      .cls-1 {
        fill: #fff;
      }

      .cls-2 {
        fill: #db0e1d;
      }
    </style>
  </defs>
  <path class="cls-2" d="M315.72,153.92c0,13.64-11.22,24.86-24.86,24.86s-24.86-11.12-24.86-24.86,11.22-24.86,24.86-24.86,24.86,11.22,24.86,24.86Z"/>
  <path class="cls-1" d="M540.18,183.5c-25.49-27.42-59.74-44.45-96.79-48.23C434.78,64.01,377.43,7.81,305.65,.97c-4.89-.47-9.86-.7-14.8-.7-38.47,0-75.27,14.25-103.61,40.14-27.24,24.87-44.52,58.44-48.91,94.87-37.05,3.78-71.3,20.82-96.78,48.24C16.09,210.9,1.64,246.3,.56,283.62h-.07v9H581.14v-3.54c.07-.31,.11-.64,.11-.97,0-38.97-14.59-76.12-41.07-104.61Zm-405.88,100.12c2.06-9.06,10.17-15.86,19.84-15.86s17.78,6.79,19.84,15.86h-39.68Zm48.85,0c-2.18-14.06-14.36-24.86-29.01-24.86s-26.84,10.8-29.01,24.86h-15.98c2.27-22.83,21.58-40.72,44.99-40.72,4.81,0,9.54,.75,14.06,2.22,13.98,4.56,24.89,15.67,29.19,29.72,.87,2.86,1.45,5.8,1.74,8.77h-15.98Zm25.01,0c-.32-3.87-1.04-7.69-2.17-11.4-5.15-16.86-18.24-30.18-35-35.65-5.42-1.77-11.09-2.67-16.85-2.67-28.37,0-51.71,21.92-54.02,49.72h-15.9c2.33-36.51,32.77-65.54,69.92-65.58,10.45,0,20.5,2.24,29.88,6.67,15.13,7.12,27.24,19.45,34.08,34.71,3.45,7.68,5.44,15.8,5.96,24.21h-15.89Zm24.92,0c-.54-9.68-2.81-19.05-6.78-27.89-7.72-17.22-21.38-31.13-38.46-39.16-10.58-4.99-21.92-7.53-33.79-7.53-42.04,.04-76.52,33.1-78.87,74.58h-15.89c1.05-22.35,9.88-43.5,25.12-59.98,16.18-17.48,38.12-28.18,61.8-30.13,2.55-.22,5.21-.33,7.9-.33,5.74,0,11.46,.51,17.01,1.52,10.63,1.92,20.76,5.61,30.13,10.97l.19,.11c15.08,8.69,27.48,21.33,35.86,36.55l.12,.22c5.14,9.35,8.62,19.42,10.35,29.94l.06,.37c.58,3.54,.94,7.15,1.11,10.77h-15.87Zm24.89,0c-.17-3.98-.56-7.95-1.18-11.85l-.06-.36c-1.65-10.27-4.81-20.15-9.43-29.44l.08-.04-2.07-3.75c-.03-.06-.06-.12-.1-.19l-2.18-3.94-.09,.05c-8.3-13.65-19.65-25.21-33.16-33.79l.06-.1-3.9-2.24s-.1-.05-.14-.08l-3.74-2.15-.05,.08c-9.2-4.77-19.02-8.12-29.26-9.97-6.08-1.1-12.34-1.66-18.62-1.66-2.94,0-5.86,.12-8.65,.36-25.92,2.13-49.95,13.84-67.66,32.98-16.79,18.15-26.47,41.47-27.52,66.09h-15.87c1.06-28.36,12.04-55.3,31.21-76.29,20.05-21.96,47.35-35.61,76.85-38.45,7.84-.76,16.09-.74,24.06,.08,8.42,.86,16.75,2.62,24.75,5.24,10.2,3.31,19.89,7.99,28.82,13.91l.18,.12c14.1,9.34,25.86,21.31,34.95,35.58,5.8,9.11,10.33,18.96,13.47,29.27,2.46,8.05,4.06,16.4,4.76,24.86,.16,1.87,.27,3.77,.34,5.67h-15.86Zm24.96,0h0s-.09,0-.09,0c-.08-2.16-.2-4.31-.39-6.43-.75-9.08-2.47-18.07-5.12-26.73-3.38-11.09-8.25-21.67-14.49-31.47-8.96-14.08-20.35-26.07-33.87-35.7l.05-.07-3.75-2.49c-.07-.05-.15-.09-.22-.14l-3.53-2.33-.04,.06c-8.59-5.28-17.79-9.54-27.4-12.66-8.61-2.81-17.56-4.71-26.62-5.63-8.55-.89-17.42-.91-25.84-.09-31.73,3.05-61.07,17.73-82.63,41.34-20.69,22.65-32.51,51.75-33.57,82.36H9.56c1.08-35.04,14.67-68.26,38.58-93.98,24.79-26.68,58.39-42.92,94.62-45.73,7.98-.63,16.3-.59,24.25,.12,8.02,.7,16.02,2.08,23.8,4.12,8.04,2.08,15.99,4.92,23.62,8.41,.02,0,.03,.01,.05,.02,0,0,0,0,0,0,9.23,4.25,18.03,9.47,26.15,15.54,11.95,8.9,22.42,19.57,31.13,31.7,5.75,8.01,10.67,16.62,14.65,25.58,.13,.62,.39,1.19,.74,1.69,3.17,7.39,5.74,15.12,7.63,22.97,1.88,7.8,3.12,15.83,3.67,23.89,.13,1.87,.22,3.76,.28,5.66h-15.78Zm68.63,0h-43.85c-.02-.67-.04-1.33-.07-1.99,7.85-1.02,15.64-2.77,23.19-5.23,11.03-3.59,21.53-8.67,31.19-15.1,14.94-9.9,27.92-23.12,37.54-38.23,6.24-9.79,11.12-20.38,14.5-31.48,2.65-8.66,4.37-17.65,5.11-26.71,.32-3.59,.48-7.28,.48-10.96,0-2.48-2.01-4.5-4.5-4.5s-4.5,2.02-4.5,4.5c0,3.42-.15,6.85-.44,10.2-.7,8.44-2.3,16.79-4.76,24.84-3.14,10.32-7.68,20.17-13.48,29.27-8.95,14.06-21.02,26.36-34.92,35.58-8.99,5.97-18.75,10.69-29.01,14.03-6.84,2.23-13.89,3.84-21.03,4.8-.53-5.27-1.33-10.51-2.39-15.68,1.6-.21,3.23-.46,4.87-.75,11.72-2.12,22.9-6.21,33.22-12.16,16.48-9.5,30.04-23.32,39.21-39.97,5.75-10.42,9.63-21.67,11.53-33.43,.89-5.48,1.34-11.1,1.34-16.72,0-2.49-2.01-4.5-4.5-4.5s-4.5,2.01-4.5,4.5c0,5.14-.41,10.28-1.22,15.29-1.73,10.74-5.27,21-10.52,30.52-8.38,15.21-20.77,27.84-35.83,36.52-9.42,5.43-19.62,9.16-30.31,11.1-1.81,.32-3.6,.59-5.36,.8-1.4-5.22-3.07-10.38-5.02-15.42,9.42-.78,18.5-3.21,27.07-7.26,17.05-8.03,30.69-21.93,38.42-39.13,4.59-10.21,6.92-21.12,6.92-32.42,0-2.49-2.01-4.5-4.5-4.5s-4.5,2.01-4.5,4.5c0,10.02-2.06,19.68-6.13,28.73-6.84,15.24-18.93,27.56-34.05,34.68-8.49,4.01-17.55,6.21-26.96,6.59-2.53-5.51-5.4-10.89-8.59-16.08,1.87,.19,3.75,.3,5.65,.3,5.75,0,11.43-.9,16.88-2.67,15.68-5.12,28.13-17.12,33.89-32.46l1.28-3.84c1.44-4.95,2.17-10.08,2.17-15.25,0-2.48-2.01-4.5-4.5-4.5s-4.5,2.02-4.5,4.5c0,4.28-.6,8.52-1.77,12.61l-.21,.67c-4.3,14.05-15.19,25.15-29.15,29.71-8.67,2.83-18.18,2.94-26.82,.41-8.76-11.94-19.14-22.51-30.89-31.46-1.06-3.89-1.6-7.9-1.6-11.94,0-24.93,20.29-45.22,45.22-45.22,2.49,0,4.5-2.01,4.5-4.5s-2.01-4.5-4.5-4.5c-29.89,0-54.22,24.33-54.22,54.22,0,1.56,.07,3.11,.21,4.66-5.12-3.27-10.44-6.25-15.92-8.9,1.03-17.36,8.35-33.52,20.83-45.77,13.17-12.94,30.61-20.07,49.11-20.07,2.49,0,4.5-2.01,4.5-4.5s-2.01-4.5-4.5-4.5c-20.87,0-40.55,8.04-55.42,22.65-13.27,13.04-21.37,30-23.23,48.31-5.03-2.05-10.16-3.83-15.34-5.32,3.09-21.83,13.69-41.9,30.12-56.84,17.49-15.9,40.17-24.66,63.86-24.66,2.49,0,4.5-2.01,4.5-4.5s-2.01-4.5-4.5-4.5c-25.94,0-50.77,9.59-69.92,27-17.74,16.13-29.28,37.73-32.84,61.25-5.15-1.16-10.38-2.06-15.63-2.68,8.88-58.13,58.99-101.43,118.38-101.43,2.49,0,4.5-2.02,4.5-4.5s-2.01-4.5-4.5-4.5c-64.04,0-118.04,46.83-127.36,109.63-5.29-.32-10.69-.36-16-.14,4.47-33.61,20.61-64.54,45.82-87.56,26.68-24.37,61.32-37.79,97.54-37.79,4.65,0,9.34,.22,13.94,.66,68.75,6.55,123.43,61.2,130.04,129.94,.45,4.6,.68,9.33,.68,14.05,0,3.41-.12,6.83-.36,10.18-.55,8.04-1.79,16.07-3.67,23.87-1.95,8.13-4.63,16.12-7.96,23.77-.01,.03-.03,.06-.04,.09-4.06,9.28-9.12,18.16-15.03,26.4-8.4,11.71-18.46,22.06-29.91,30.8l-3,2.23c-6.51,4.69-13.41,8.84-20.54,12.36h-3.44Zm56.17,0c2.06-9.07,10.18-15.86,19.86-15.86s17.8,6.79,19.86,15.86h-39.71Zm48.87,0c-2.18-14.06-14.36-24.86-29.01-24.86s-26.83,10.79-29.01,24.86h-25.25c2.79-1.78,5.53-3.64,8.2-5.59l.6-.44c.2-.15,.4-.3,.6-.44l1.81-1.35v-.03c11.52-8.87,21.68-19.3,30.28-31.03,4.14-1.21,8.43-1.83,12.77-1.83,23.41,0,42.72,17.89,44.99,40.72h-15.98Zm25,0c-2.3-27.8-25.64-49.72-54.02-49.72-1.9,0-3.8,.11-5.68,.3,3.18-5.19,6.06-10.57,8.61-16.09,35.78,1.48,64.74,29.92,67.01,65.51h-15.92Zm24.92,0c-2.22-39.3-33.29-71.01-72.3-74.28,1.95-5.05,3.63-10.21,5.03-15.44,22.23,2.72,42.72,13.18,58.04,29.73,15.25,16.48,24.08,37.63,25.13,59.99h-15.89Zm24.9,0c-1.06-24.63-10.73-47.96-27.53-66.1-16.54-17.87-38.6-29.27-62.56-32.43,1.06-5.17,1.86-10.41,2.39-15.68,27.77,3.73,53.32,17.08,72.35,37.91,19.17,20.99,30.16,47.93,31.22,76.3h-15.87Zm24.87,0c-1.06-30.61-12.88-59.71-33.58-82.37-20.59-22.54-48.28-36.93-78.36-40.84,.09-2.16,.15-4.33,.15-6.5,0-3.18-.11-6.35-.3-9.49,34.21,3.91,65.78,19.83,89.38,45.21,23.91,25.72,37.5,58.94,38.58,93.99h-15.87ZM336.58,58.14c-3.02-2.44-5.87-4.75-8.27-7.44-4-4.5-7.44-14.8-8.04-21.25-.03-.41-.13-.8-.27-1.17-.23-.58-.6-1.1-1.06-1.5-.42-.38-.93-.66-1.48-.83-.43-.13-.88-.19-1.35-.17-.47,.02-.92,.12-1.34,.29-.56,.23-1.04,.57-1.44,1-.4,.44-.7,.96-.88,1.54-.12,.38-.18,.78-.17,1.2v104.07c-5.36-5.73-12.98-9.32-21.42-9.32-16.19,0-29.36,13.17-29.36,29.36s13.17,29.36,29.36,29.36,28.73-12.56,29.33-28.23c.06-.27,.09-.55,.09-.84V53.33c.66,.98,1.34,1.88,2.05,2.68,2.83,3.18,6.08,5.81,9.21,8.34,2.48,2.01,4.82,3.9,6.93,6.02,4,4.03,10.71,10.77,9.5,15.6-1.09,4.39-8.61,18.9-11.48,23.85-4.23,7.24-6.26,10.32-6.28,10.35-1.22,1.84-.72,4.32,1.12,5.54,1.84,1.22,4.32,.72,5.54-1.12,.09-.13,2.15-3.25,6.53-10.74,2.09-3.59,10.8-19.82,12.33-25.94,2.3-9.2-6.06-17.61-11.59-23.17-2.41-2.42-5.03-4.55-7.57-6.6Zm-45.72,116.14c-11.23,0-20.36-9.13-20.36-20.36s9.13-20.36,20.36-20.36,20.36,9.13,20.36,20.36-9.13,20.36-20.36,20.36Z"/>
</svg>