<svg id="Layer_1" data-name="Layer 1" xmlns="http://www.w3.org/2000/svg" viewBox="0 0 558.67 477.33"><defs><style>.cls-1{fill:#535449;}.cls-2{fill:#606f6a;}.cls-3{fill:#1f2423;}.cls-4{fill:#8e9d9e;}.cls-5{fill:#798887;}.cls-6{fill:#202221;}.cls-7{fill:#222827;}.cls-8{fill:#6a7c79;}.cls-9{fill:#7d9094;}.cls-10{fill:#1c2021;}.cls-11{fill:#293030;}.cls-12{fill:#293b3d;}.cls-13{fill:#2b494c;}.cls-14{fill:#2a3e42;}.cls-15{fill:#2b4347;}.cls-16{fill:#97704a;}</style></defs><title>player</title><path class="cls-1" d="M5.94,320.05q0-2.06,0-4.11a13.68,13.68,0,0,0,0-5.89A78.36,78.36,0,0,0,6.16,294q.27-50.16.52-100.32c.09-27.29,0-54.57.09-81.86,0-3.65.32-7.3.5-10.95a4.14,4.14,0,0,0,4.54-1C19.21,93.23,26.89,87,34,80c5.09-5,11.31-9.07,16.18-14.56,1.18-1.33,2.78-2.95,4.36-3.17,7-1,11.34-5.82,15.94-10.36C76,48.21,76.89,45,73.7,39.75l-2.38-4a7.48,7.48,0,0,1,7.37,4.68c3.38,7,3.36,7,10.73,4.19,1.08-.41,2-1.1,3.1-1.56,5-2.17,9.85-4.75,15.21-6,8-1.83,16-3.93,24-5.28,6.72-1.13,12.8-4.72,19.74-4.8l-1.34,1.62-4.51,1.27c-4.21,1.78-8.85,2.66-12.38,5.87l-.74.69-4.07,1.18c-2,.86-4,1.59-5.92,2.61A191,191,0,0,0,73.72,77.67a193.21,193.21,0,0,0-45.4,79.23l-.94,3c-5.62,6.12-6.72,10.76-3.81,16C19.8,196.16,18,216.48,20.71,237a192.64,192.64,0,0,0,23.68,74.27,2.76,2.76,0,0,0,.25.71l1.49,2.09a24.83,24.83,0,0,0,5.44,9.09C58.68,333.51,65.34,344,74.41,353c20.6,20.53,43.87,36.68,70.78,47.66,18.84,7.68,38.5,11.73,58.67,13.66,2.23,2,5,1.51,7.6,1.67,8.6.52,17.27-.68,25.84.87-9.16,1.17-18.39,1-27.6,1.42-10.6-.35-21-2.39-31.8-1.59-7.72.57-15.56,1.8-23.37.73-13.9-1.91-27.68-4.57-40.85-9.44-12.46-4.6-25.22-9.22-36.17-16.59C64.25,382.48,49.09,376.64,37,365.79c-3.87-3.47-7.83-6.56-10.33-11.2-1-1.9-2-4-4-4.93-5.37-2.27-8.27-7.05-11.58-11.34C9.76,336.7,8.7,335.61,6.61,336l-.73-5q0-3,0-6Q5.93,322.53,5.94,320.05Z"/><path class="cls-2" d="M70.46,51.9c-4.6,4.53-8.91,9.39-15.94,10.36-1.58.22-3.18,1.83-4.36,3.17C45.29,70.9,39.07,74.93,34,80c-7.09,7-14.77,13.25-22.17,19.85a4.14,4.14,0,0,1-4.54,1q0-28.95,0-57.89,0-2.48,0-5V26l0-5,0-3,.06-5c.78-7,.78-7,7.74-7.1,26.37-.24,52.73-.49,79.1-.62,3.78,0,7.57.66,11.36,1-2.35,4.75,3,7.32,3.24,11.4.12,2.14,1.34,3.82,3.81,3.84s3.44-1.67,3.95-3.77c.4-1.65.86-3.71,2.62-3.95,6.85-.93,13.91-2.46,20.52.44,3.73,1.64,6,1.86,8.17-2,2.36-4.2,5.74-4.12,8.31,0,2.23,3.57,5,3.4,7.27.72a8.26,8.26,0,0,1,6.4-3.14c16.57-1,32.8,1.37,48.87,5.18a11.39,11.39,0,0,1,3,1.78A233.41,233.41,0,0,0,151.51,27c-6.94.08-13,3.67-19.74,4.8-8.08,1.36-16,3.45-24,5.28-5.36,1.23-10.21,3.81-15.21,6-1.06.46-2,1.15-3.1,1.56-7.37,2.8-7.34,2.77-10.73-4.19a7.48,7.48,0,0,0-7.37-4.68l2.38,4a5.6,5.6,0,0,0-7.21,2.78c-1.51,2.77.22,5,2,7.1C69.18,50.38,69.81,51.15,70.46,51.9ZM172.84,13.36c0,.14,0,.33.08.4s.27,0,.41.05l-.12-.66Z"/><path class="cls-3" d="M7.27,38q0,2.48,0,5A3.32,3.32,0,0,1,7.27,38Z"/><path class="cls-4" d="M543.66,6c5.3.24,2.18,4.78,3.58,7l.08,1.94,1,38.07L548.17,57c2.14,72.66,3.56,145.34,4.68,218,0,1.33.21,2.65.32,4q0,2.51,0,5,.47,28.53.95,57.06l.76,39.94c0,2.8-.06,5.6-.12,8.4-.26,11.86,1,23.73-.24,35.58l-4.84-.93a15.67,15.67,0,0,0-7.07,1.1l-2.93-.3c-2-2.58-4-3.36-6,0l-5,.43-21-.41c-.94-2.13-2.81-2.82-4.89-2.86-9.9-.21-19.75-1.74-29.69-1.21-3.64.19-7.42.45-11-.26-20.18-4.07-40.65-4.13-61.07-5-1.72-.07-3.43-.13-4.61-1.46-2-2.28-4.89-2.53-7.5-3.56-5.79-2.29-12.5-3.71-16.44-8.66-2.64-3.31-4.9-5-9-4.68-1.27.12-2.89.5-3.56-1s.83-2.28,1.71-3.24c4.5-4.89,9.48-9.45,13.34-14.8,5.87-8.14,4.45-11.13-5-13.82-2.26-.64-5.7-1.94-2.59-5a12.73,12.73,0,0,0,4.12-7.61c.34-2.26,1.95-3.71,4-4.8,8.25-4.41,9-6.09,7-15,.42-3.89,3.93-6.11,5.16-9.56,3.15-3.18,3.87-6.17-.59-8.86-.52-.31-.81-1-1.2-1.53q6.9-10.45,13.79-20.91a10.84,10.84,0,0,0,2.08-7.9c2.89-.78,3.37-3.29,4.11-5.66,2.91-9.29,4.77-18.83,6.79-28.34,3.54-.75,3.24-2.24.79-4.14l.24-2.86c2.93-.38,4.33-2.17,4.62-5,.81-8.09,1.62-16.15.73-24.32-.79-7.24-1-14.55-1.43-21.83a6.88,6.88,0,0,1,1.21,2.14c.75,5.39,4.17,6.45,9,6.13,5.31-.36,10.65-.26,16-.35l.82.27c1.05,10.57-3.72,15.35-14.09,14.11-.66-.08-1.33-.11-2-.22-4.56-.74-6.49,1.57-6.75,5.8-.25,4-.46,8-.69,12-.12,2-.52,4.16,1.61,5.38s4.07.23,6.12-.71c7.51-3.42,15.36-5.66,23.64-3.8,7.08,1.59,13.31-2.19,20.07-2.46,2-.08,2.66-2.29,3-4.18q.07-1,.15-2l2.28-.48c3,0,4.47-1.57,4.74-4.45l3.87-2.74c4.66-1.09,9.74-1.14,13.14-5.33l4.56-2c-2.5,0-4-3.44-6.91-3.57-5,1.15-10.05,2.24-14.79,4.35L481,209l-3.64.69c.59-6.9.06-13.8-.13-20.69,4.49-2.73,4.21.88,4.38,3.44.23,3.38.59,6.51,5,6.52q17.7,0,35.4,0a4.21,4.21,0,0,0,4.61-4.23q.57-6.7,1-13.41c.31-4.38-1.7-6.39-6.17-6.35-12.63.13-25.26.11-37.89.14l-21.86.08-6.11-.09-8.93-.17c-2.68-3.66-5.37-3.64-8.08,0h-2.91a22.11,22.11,0,0,0-2.34-2.52c-6.24-5-6.48-7.46-.94-13.42a10.87,10.87,0,0,0,3.26-5.95c3.18-4.81,9.27-7.56,9.94-14.13,16.53,4.74,32,3,46.35-7.06,7.11-5,11.82-11.93,16.52-18.95,2.14.12,4.28.21,6.42.36,3.31.24,5.91-.6,6.76-4.24.19-.55.39-1.11.59-1.66,12.38-3.22,16.47-17.18,8.19-27.95,4-6,3-13,3.44-19.5.31-4.35.27-8.11,3.91-11.15,2.51-2.09,3.51-4.43,1-7.7-2.68-3.44-1.89-7.46,1.9-9.39,4.45-2.26,5.24-5.57,4.93-9.83C545.22,16.51,545.53,11.14,543.66,6Zm-92,355.07,2.16-1.25c9.23-2,17.33-5.57,22-14.61,6.92-13.44,14-26.77,21.06-40.17,5.39-10.3,11.09-20.47,16-31,8-17-4.26-35.06-23-33.93-4.35.26-8.61,2-12.9,3.07l-4.3-.11c-1.1-.08-2.44-.8-3.24.12s.53,1.27,1.09,1.77c-3.27,2.24-7.29,1.8-10.84,3l-2,1.94-3,3c-5.64-.46-10.07,1.35-13,6.5a8.65,8.65,0,0,1-6.48,4.27c-5.19.74-7.6,4.15-9.15,8.62,1.45,1.09,2.74,0,4,.14,1.5.12,3.21,0,4,1.54s-1,2.23-1.68,3.29c-3.74,5.7-7.64,11.3-11.06,17.19-2.26,3.88-3.83,8.14-2.64,12.89a14.05,14.05,0,0,1-3.93,14.14c-2.56,2.61-5.38,5.67-4.52,9.58,1.19,5.42.93,11,1.89,16.32,2.26,12.64,12.54,19,20.6,14.57l6.9,0C443.85,364.58,447.81,363.37,451.67,361.09Zm63.76,11.78c2.07-.24,4.72.32,6.11-2.1,1.52-2.63-.09-4.61-1.66-6.71-1.91-2.57-2.58-5.77-3.15-8.85-1-5.33-4.81-8.55-8.41-11.89-1.39-1.29-3.41-2.39-5.51-1.37s-1.88,3.27-2.11,5.24c-.67,5.87,2.47,11,3.34,16.51C505.13,370.54,508.2,372.9,515.43,372.87Z"/><path class="cls-2" d="M6.61,336c2.1-.36,3.16.72,4.42,2.36,3.31,4.29,6.21,9.06,11.58,11.34,2.09.89,3,3,4,4.93,2.49,4.64,6.46,7.73,10.33,11.2,12.11,10.85,27.26,16.69,40.53,25.63,10.95,7.37,23.71,12,36.17,16.59,13.17,4.86,26.95,7.52,40.85,9.44,7.81,1.08,15.65-.15,23.37-.73,10.76-.8,21.2,1.25,31.8,1.59-2.82,1.82-6.44,3-6.31,7.32l-31.73.45-7,0a98.69,98.69,0,0,0-16,0l-81-.14c-15.43-1.13-30.89-.38-46.34-.62-2.83,0-3.69,1.74-3.54,4.29.35,6.14.68,12.28,1,18.42l1,2.16c.26,2.79,2.07,3.68,4.57,3.71l.6.28a2.15,2.15,0,0,0,2.53.91l2,0c7.26,2.37,9.18,1.68,11.21-4l23.13.08a5.15,5.15,0,0,0,5,4.18c9.26.48,18.53,1.32,27.76-.39,3,.34,5.93,1.12,9,.7a26.75,26.75,0,0,0,10-.66c7.08,2.26,14.23-.56,21.33.33l2.73.13a26.55,26.55,0,0,0,9.87.24c3.84.17,6.36-1,5.68-5.51l1.46-.17,4.1,1.39a1.43,1.43,0,0,0,1.78.18l.1-.09c-.87.73-.59,1.28.28,1.73,3.48.28,7,.81,10.44.8,30.62,0,61.25.17,91.86-.29,37.28-.56,74.54.26,111.82.35,3.64,0,7.37-.08,10.66,2-4,1.11-7.95-.06-11.92,0-20.64.07-41.28.51-61.91.77-46,.56-91.92.21-137.88.27-2.33,0-4.8-.47-7.44,1,2.55,1.48,4.76,1,6.86,1,20.48,0,41,0,61.45.06,2.93,0,6.17-.56,7.89,2.88-10.79.1-21.58.27-32.37.28q-48.33,0-96.66,0l-8-.06-9-.08-9-.08-29-.11c-15.12-1.18-30.27-.65-45.41-.75-7.08,0-7.19-.1-7.5-7.24-.87-20.12-1.84-40.23-1.56-60.38,0-3.49-.24-7-.38-10.47a158.12,158.12,0,0,0,0-20A123.38,123.38,0,0,0,6,345.12a4.3,4.3,0,0,0-.61-3.18C6.86,340.17,6.2,338,6.61,336Z"/><path class="cls-5" d="M549.69,424l4.84.93.27,2c-.62,9.6-1.41,19.2-1.77,28.82-.15,4-1.87,5.14-5.5,5.13-7.3,0-14.6.2-21.9.31l-16-.31a9.32,9.32,0,0,0-.44-5.6l.53-6.38,2.82,0c-.39,3.5,1.38,4.7,4.66,4.79,6.49.17,13,.28,19.44,1,4,.42,5.33-.89,5.47-4.76.28-8,.91-15.93,1.4-23.89C545.78,425.94,548,425.82,549.69,424Z"/><path class="cls-6" d="M5.91,310.06a13.68,13.68,0,0,1,0,5.89Q2.1,313,5.91,310.06Z"/><path class="cls-7" d="M5.94,320.05q0,2.48,0,5C3.51,323.34,4,321.7,5.94,320.05Z"/><path class="cls-8" d="M244.69,461.94c-1.72-3.44-5-2.88-7.89-2.88-20.48,0-41,0-61.45-.06-2.11,0-4.32.48-6.86-1,2.64-1.43,5.11-1,7.44-1,46-.06,91.93.29,137.88-.27,20.63-.25,41.27-.7,61.91-.77,4,0,7.95,1.15,11.92,0l5.11-.27,2.95.4a12.91,12.91,0,0,1-1.1,5.73l-126.93.26c-2.33,0-4.66-.11-7-.17-1.66-3.11-3.33-3.16-5,0Z"/><path class="cls-8" d="M475.47,461.34l-25.74.42-3.05-.71-1.23-.92a47.87,47.87,0,0,0-6.37-.94c-7.64-.13-15.28-.1-22.91-.09-2.93,0-5.72-.18-7-3.46l.7-6.7c.49.65,1,1.27,1.46,1.94.64.94-.12,3.21,2,2.68,1.44-.37,1.31-2.17,1.22-3.46-.2-2.62-.57-5.24-.86-7.85l3-.54,35.14.74-.13,2.56c-1.67.3-2.37,1.61-3,2.95-2.74,3.73-2.08,8,1,10.23,4.07,3,3.89-3,6.09-4.32l6.91.49C467.27,456,471.76,458,475.47,461.34Z"/><path class="cls-8" d="M509.23,455.36a9.32,9.32,0,0,1,.44,5.6l-2,.55-8.14-.22c.29-3.29-2.34-2-3.75-2.2-2.59-.41-5-.69-5-4.13,6.6-1.09,8.12-3.92,5.32-9.82-.56-1.18-1-2.43-1.44-3.64l13,.13,2,.43-.4,2.23C504.86,447.77,504.86,451,509.23,455.36Z"/><path class="cls-1" d="M446.67,461.05l3.05.71c-18.38.45-36.75.64-55.13.13a12.89,12.89,0,0,0,1.1-5.73l13.46-.52c1.29,3.28,4.08,3.46,7,3.46,7.64,0,15.28,0,22.91.09a47.93,47.93,0,0,1,6.37.94Z"/><path class="cls-1" d="M490.73,455c0,3.44,2.44,3.72,5,4.13,1.41.22,4-1.09,3.75,2.2-6.34,1.07-12.7.68-19.06.26a13.17,13.17,0,0,1-2.81-5.56l1.06-.36c4,.49,7.87.63,11.38-1.78Z"/><path class="cls-2" d="M477.63,456a13.18,13.18,0,0,0,2.81,5.56l-5-.21c-3.71-3.38-8.2-5.33-12.85-7l7-.37,2.79.51,3.16.67Z"/><path class="cls-7" d="M107.67,462.13l8,.06C113,464.41,110.32,464.42,107.67,462.13Z"/><path class="cls-2" d="M255.65,462c1.69-3.13,3.37-3.08,5,0Z"/><path class="cls-9" d="M543.66,6c1.87,5.11,1.56,10.49,1.95,15.79.31,4.26-.48,7.57-4.93,9.83-3.79,1.93-4.58,6-1.9,9.39,2.55,3.27,1.55,5.61-1,7.7-3.64,3-3.6,6.8-3.91,11.15-.47,6.53.56,13.53-3.44,19.5-5.32-4.42-11.33-5-17.77-3.23-1.34-2-1.84-4.66-4.44-6.77a20.09,20.09,0,0,0,2.68,8.72l.52,1.92.27,2,.52,13.08c-1.58,1.88-1.78,4.28-2.39,6.51C503.64,124.3,483.2,138.8,458.57,138c-20.9-.69-40.18-17.74-44.84-39.26-1.67-7.69-.59-15.25-.2-22.88,1-5.9,3.82-11,7.26-15.76A7.77,7.77,0,0,0,424,56.46a73.22,73.22,0,0,1,18.82-14.3c6.61-.78,12.9-3.47,19.67-3.28,15.13.93,28,6.51,37.79,18.41a10.43,10.43,0,0,0,6.31,3.59c2.38.48,2.94-1.31,4-2.88,5-7.7,6.38-17,11-24.87A3.82,3.82,0,0,0,521,28.5c-2.89-3.37-1.36-5.54,1.28-8.39,3.55-3.84,6.52-8.39,4.34-14.22A106.18,106.18,0,0,1,543.66,6Z"/><path class="cls-8" d="M506.6,60.88a10.43,10.43,0,0,1-6.31-3.59c-9.76-11.9-22.66-17.48-37.79-18.41-2.7-3.64-6.92-4.34-10.83-5.67C440,29.29,428,26.72,416.1,23.93c-3.07-.71-5.78-3.16-9-2.5-10.94,2.23-22,4.29-29.43,14a12.56,12.56,0,0,1-4.46,3.92C365,43.23,363,48,366,56.23c2,5.55,1.61,6.59-4.25,7.89-5,1.1-8.33,3.12-7.2,9-12.73-10.83-25.39-21.77-40.25-29.69-6.83-3.64-13.52-7.45-20.89-10.17-8.15-3-15.89-7.12-24.52-8.8l-11.21-3.35c.22-4.73-1.45-6.65-6.42-4.9a8.91,8.91,0,0,1-6.28.06c-2.35-.92-4.52-.18-6.26,1.67l-3-.26c-2.57-2-5.28-2.45-8.2-.78l-5.81-.13a11.39,11.39,0,0,0-3-1.78c-16.06-3.81-32.3-6.13-48.87-5.18a8.26,8.26,0,0,0-6.4,3.14c-2.25,2.68-5,2.85-7.27-.72-2.57-4.11-5.95-4.18-8.31,0-2.19,3.9-4.44,3.68-8.17,2-6.61-2.9-13.67-1.37-20.52-.44-1.76.24-2.22,2.3-2.62,3.95-.51,2.1-1.48,3.79-3.95,3.77s-3.69-1.7-3.81-3.84c-.24-4.08-5.59-6.65-3.24-11.4,14.42-1.15,28.85-.94,43.31-.69,13.95.24,27.91-.4,41.86-.65a4.19,4.19,0,0,0,3.81.21l111.1-.39,34,.43c-3.34,3.11-8,.8-11.72,3.24,11.3-.55,21.87,3.4,32.87,4.44a8.61,8.61,0,0,0,6.49-2.12c4.09-3.46,8.52-3.28,13.08-1.17s8.59,5.34,13.94,2.24c.76-.44,2.25.23,3.35.56a110.86,110.86,0,0,0,25.51,4.46c5.55.32,11.07.21,14.73,5.54a4.23,4.23,0,0,0,2.65,1.19c6.89,1.09,13.77,2.17,20.4,4.49,2.52.88,5,.07,7.09-1.43,4.84-3.39,6.75-9,5.37-14.89a62.56,62.56,0,0,1-.85-6.41l5-.09c2.38,2.9,4.75,3.53,7.11,0a50.65,50.65,0,0,1,10.92.67c.93,2.72,1,6.29,4.27,7.23,3.53,1,4.86-2.58,6.94-4.49l.71-.67c.69,4.29,1.53,8.58-2.2,12.12-1,1-1.5,2.69-.49,3.65,3.67,3.48,3.35,7.52,3.06,12.12-.22,3.52,1.42,7.36.16,10.81C506.39,51.37,506.41,56.07,506.6,60.88Z"/><path class="cls-5" d="M472.61,5.32a62.56,62.56,0,0,0,.85,6.41c1.38,5.91-.54,11.5-5.37,14.89-2.13,1.5-4.56,2.31-7.09,1.43-6.63-2.32-13.51-3.39-20.4-4.49a4.23,4.23,0,0,1-2.65-1.19c-3.66-5.33-9.18-5.22-14.73-5.54a110.86,110.86,0,0,1-25.51-4.46c-1.1-.33-2.59-1-3.35-.56-5.35,3.1-9.5-.18-13.94-2.24s-9-2.29-13.08,1.17a8.61,8.61,0,0,1-6.49,2.12c-11-1-21.57-5-32.87-4.44,3.72-2.44,8.39-.12,11.72-3.24h7c1.35,1.42,2.71,1.4,4.05,0l10.94,0a1.26,1.26,0,0,0,2.06,0l67.93.24c3.08,2.1,6.1,2.09,9.07-.22l20.94-.07c2.66,2.22,5.35,2.29,8.07.1Z"/><path class="cls-5" d="M506.6,60.88c-.19-4.81-.21-9.51,1.51-14.22,1.27-3.45-.38-7.29-.16-10.81.29-4.59.61-8.64-3.06-12.12-1-1-.51-2.7.49-3.65,3.73-3.55,2.89-7.83,2.2-12.12l1.07-2.17c4.32-.24,8.65-.62,13,.12l2.12,0h2.92c2.18,5.83-.8,10.38-4.34,14.22-2.64,2.86-4.17,5-1.28,8.39a3.82,3.82,0,0,1,.49,4.63c-4.57,7.88-5.92,17.17-11,24.87C509.54,59.57,509,61.36,506.6,60.88Z"/><path class="cls-2" d="M508.65,5.8,507.58,8l-.71.67c-2.08,1.9-3.41,5.51-6.94,4.49-3.25-.94-3.34-4.5-4.27-7.23Z"/><path class="cls-2" d="M484.73,5.22c-2.37,3.54-4.74,2.91-7.11,0Z"/><path class="cls-8" d="M440.7,5.23c-3,2.31-6,2.32-9.07.22Z"/><path class="cls-8" d="M469.71,5.26c-2.72,2.19-5.41,2.12-8.07-.1Z"/><path class="cls-8" d="M350.69,5.18c-1.35,1.42-2.7,1.43-4.05,0Z"/><path class="cls-8" d="M363.7,5.2a1.26,1.26,0,0,1-2.06,0Z"/><path class="cls-9" d="M523.73,5.9l-2.12,0Z"/><path class="cls-3" d="M235.71,17.65l3,.26,19,3.16,11.21,3.35c.09,2.73,1.84,3.83,4.1,5,3.39,1.76,8.88,1.23,10.17,4.45,2.44,6.11,7.45,5.74,12,7.09,7.89,2.33,14.61,7.2,22.06,10.37,5.31,2.26,7.7,7.33,12.41,10.13,3.25,1.93,8.56,2.31,9.58,5.34,1.52,4.53,4.35,6.19,8,7.86a6,6,0,0,1,3.48,4.08c1,5,4.84,8.32,8.24,10.87,3.21,2.41,5.17,5.16,7.65,8,3.91,4.45,5.47,9.79,8.38,14.53,3.61,5.87,6.72,11.81-1.33,16.8a.82.82,0,0,0-.26.42c-1.31,3.81-4.26,4.73-7.9,4.68-3.22,0-6.54.16-8.25,3.5-1.88,3.69-5,4.5-8.73,4.47q-11.24-.09-22.48,0c-7.59.09-9,1.36-9.29,9.05-.15,3.45-1,6.1-4.47,7.59-1.28.55-2.28,1.87-3.26,3-3.78,4.29-7.2,3.86-10.27-.88-2.95-4.55-8.6-7-10-12.88-.08-.35-.76-.63-1.22-.81-2.47-1-3.47-3.42-5.17-5.11-4.1-4.05-7.61-9.28-14.47-9.39-2.59,0-5.56-.21-7.46-2.34-5.11-5.72-12.28-6.92-19-9.06-12.8-4-25.8-.68-38.71-1-.92,0-2.06.11-2.2,1.55,1.18,1.6,3,1.27,4.55,1.21,8-.34,15.94,1,23.93,1.23,3.06.08,5.86,1.38,5.84,4.88,0,3.68-3.24,3.78-5.89,3.85q-8.49.23-17,.08c-4.12-.07-7.67.46-8.9,5.28-.39,1.51-1.76,2.35-3.13,3.06-1,.51-2.61.64-2.42,2.12s1.75,1.29,2.84,1.54,2.29.45,3.43.67c-10.81,3.46-21.39,7-30.35,14.7-25.84,22.19-31.15,60.38-11.79,88.45,12.83,18.61,30.88,28.14,53.09,30.39,2.23,2.16,5,2.13,7.91,2.3,5,.28,9.9.74,13.9,4.34,2.57,2.31,5.1,2.16,7.18-.82l0,0c6.42.2,12.81.36,16.57-6.42.35-.63,1.33-1,2.07-1.31C269,274,270,272.07,265.79,266c-2.31-3.36-.57-4.19,1.63-4.63,4.82-1,6.73-4.38,8.26-8.38h5c2.19-.51,3.61-1.73,3.56-4.13-.09-4.82,2.76-4.76,6-3.38,4.27,1.82,8.51,1.12,12.78.35,1.62-.29,3.59-.57,3.54-2.77s-1.92-2.58-3.56-2.89c-2.78-.53-5.62-.73-8.39-1.31-3.1-.65-6.57,0-9.7-2.43,2.81-2,6-1.8,8.54-3.48,6.38-4.22,12.53-3.59,18.29,1.4a4.11,4.11,0,0,0,4.2.72,10.77,10.77,0,0,1,5.41-.63c9.63,2.17,19.51,2.21,29.23,3.62,2,.29,4.08.61,5.3,2.38,2.05,3,4.95,3.68,8.28,3.59,3.81-.09,7.38.26,9,4.61a2.65,2.65,0,0,0,5.15-1c.13-5.71,3.94-6.08,8-5.14a21.36,21.36,0,0,0,10.79,0c4.07-1.1,6.24.46,6.34,5,.08,3.57-.39,7.43,2.31,10.5-.81,3.42.94,7.66-2.27,10.23-4.28,3.43-5,7.8-4.71,12.73-2.67-1.4-4.88-6.9-8.41-2.13-4.53,6.11-11.53,8.21-17.61,11.08-8.49,4-17.12,7.11-22.4,15.5-.91,1.45-2.2,1.79-3.14.23-2.62-4.36-5-3.4-7.57,0a7.93,7.93,0,0,1-4.21,2.52,23.33,23.33,0,0,0-9.73,5.88c-3,3.15-6.63,4.11-10.87,3.72-12-1.11-12.08-1.07-14.34,10.43-1,5.19-4.8,5.76-9.05,5.74s-8.1-.89-8.38-5.81c-.45-7.79-1.77-15.55-1.27-23.39.14-2.24.56-4.28,2.82-5.45,1.1-.57,3.07-.84,2.57-2.5-.57-1.89-2.51-1.12-3.92-1-1.66.17-3.75.36-4.39,1.95-2.16,5.34-6.51,5.46-11.15,5.21-3.29-2.79-6.47-2.49-9.16.7a8.42,8.42,0,0,1-6.94,3.28c-3.94-.07-7.18,1.12-9.26,4.73-1.4,2.43-2.93,2.45-5.23.69-6.21-4.75-20-4.82-26.85-.34-1.34.88-2.65,1.63-4.12.66-7.9-5.2-16.75-6-25.86-5.74-3.28.11-5.59-1.22-7.56-3.92-2.83-3.86-9.66-5.39-14.57-3.62-4.54,1.64-3,5.72-3.49,9,0,.33,0,.67-.07,1-.55,4.74-3.07,6.85-7.71,6.39-1.68-.17-3.5-.39-4.1-2.27-.7-2.17,1.09-2.9,2.59-3.61,3.19-1.5,3.61-4.17,2.93-7.15s-3.19-3.72-5.81-3.6c-5.32.24-10.63.65-15.93,1.14-1.09.1-2.66.58-3.07,1.38-3.75,7.26-10.41,5.07-16.32,5.2a5.37,5.37,0,0,1-5.12-2.54c-2.79-4.75-8-7-11.56-11.12-4.52-5.26-10.28-9.7-15.13-14.9a5.43,5.43,0,0,0-5.4-1.82c-2.13.47-2.9,2.14-3.14,4-.43,3.3-.9,6.61-1,9.92-.33,7.62-.57,7.9-8.32,8.59-2.56.23-5.68-.09-5.72,3.93q0,2,0,4l-1,7-4.54.09L44.64,312l.56-.66-.81,0A192.64,192.64,0,0,1,20.71,237c3.72,4,3.21,9.24,4.24,14.06.8,3.76.06,8.76,6.32,8.87,1.33,0,1.89,1.72,2.57,2.87a12.85,12.85,0,0,0,17.87,4.6c6.16-3.64,12.19-7.06,19.86-6.75A23.14,23.14,0,0,0,84,257.3c7.4-4.43,15.28-5.24,23.56-4.56,3.91.32,15.44-8,16.33-11.78a5.76,5.76,0,0,0-.25-2q0-2.07-.09-4.13l.08-3.75c0-3.81.06-7.62,0-11.43,0-2.48.12-5.06-2.42-6.65a19.83,19.83,0,0,1,.51-8.05c3-3.86,2.64-8.41,1.19-12.34-1.15-3.11-4.84,0-7.26-1a9.2,9.2,0,0,0-1.48-.18c-8.11-1.59-16.2-3.37-24.56-2.42l-5.95.93a5.59,5.59,0,0,0-4.44-4.8c-5.49-1.33-11-2.85-16.71-1.85a8.26,8.26,0,0,1-5.39-.41c-9.88-5.28-20.29-8-31.56-6.82a3.87,3.87,0,0,1-1-.15l2.8-16.06.94-3,3.34.09c2,7.83,3.62,15.86,14.08,16.59a37.79,37.79,0,0,0,7.46-.13c2.44-.31,4.77,0,6.32,2.09,2.59,3.5,4.75,3.63,8,.37,4.71-4.72,12.91-4,17.38,1a7.09,7.09,0,0,0,4.8,2.37c3.64.35,7.3.64,10.95.72s6.41.78,8.25,4.36c1.6,3.12,3.72,2.68,5.7-.09,3.82-5.33,8.11-5.74,13.28-1.28,2,1.73,4.14,2.61,6.23.77s1.57-4.31-.11-6.25c-2.32-2.68-3.11-5.82-1.68-8.82,1.9-4,4.06-8.09,7-11.31s5.54-6.1,6.52-10.35c.49-2.14,1.76-3.79,4.24-3.23,3.57.79,4.59-1.09,4.5-4.05-.13-4.47,2.2-6.51,6.07-8.57,4.26-2.27,9.28-2.86,13-6.16h2c3.57-.47,5-4.39,8.37-5.19,3.17-.75,4-3,3.82-6.06-.31-7.32-.48-14.65.55-22,.56-4-.5-7.16-4.71-8.85-2.91-1.16-2.94-3.18-.22-4.64A8.36,8.36,0,0,0,188,72.7a3.84,3.84,0,0,1,3.41-3.2c2.17-.21,3.46,1.05,4.13,2.92,1.11,3.08,3.31,4.43,6.48,4.5,1.66,0,3.34.08,5,.26,2.38.26,4.26,1.26,4.15,4-.1,2.47-1.89,3.37-4.06,3.6-2.48.27-5,.27-7.45.67-2,.32-3.4,1.55-3.27,3.77a3.51,3.51,0,0,0,3.26,3.29c2.13.35,4.3.37,6.46.55s4.47.52,5,3.21-1.17,3.95-3.35,4.83c-4.68,1.9-4.18,5.91-3.88,9.76s3,4.77,6.2,5.35c7.71,1.4,15.42-.34,23.21.13,6.88.42,13.91.85,20.89.74,3.09,0,5,1.52,5.61,4.61.42,2,1.22,3.92,3.32,4.69,4.75,1.73,9.71,7.24,14.09-.67.39-.7,1.78-.8,2.66-1.28,3.82-2.1,3.89-4.75.21-7.06-5.62-3.53-5.59-5.33.26-8.83,1.53-.91,2.83-1.93,2.6-3.87-.25-2.16-1.88-3.09-3.81-3.36s-4-.29-6-.42-4.2-.53-4.93-2.72a8,8,0,0,0-5.7-5.7,3.4,3.4,0,0,1-2.39-3.93A3.2,3.2,0,0,1,263,85.51c1.86-.32,3.57.33,4.07,2.1,1.86,6.67,7,5.44,11.78,5.1,1.91-.13,3.63-1,4.07-3.1s-.92-3.41-2.71-4.23-3.82-1.44-3.92-3.47c-.3-6.28-2.26-10.81-7.3-15.59-3.53-3.35-6.4-5.39-10.83-6.1a19.91,19.91,0,0,1-4.8-1.21c-1.44-.63-1.89-1.88-.53-3.17,3.07-2.91,12.68-2,14.8,1.65a6.48,6.48,0,0,0,6.14,3.44c3.17,0,6.33.12,9.5,0,4.05-.1,7.7.27,9.14,5a3.22,3.22,0,0,0,3.52,2.27c1.94-.17,2.81-1.53,3.35-3.24,2.35-7.41-.51-11.89-8.13-12-4.91,0-7.35-1.84-7.74-6.89-.51-6.53-4.46-10.07-10.82-11.22-1.78-.32-3.9-.63-5.13-1.76-5.23-4.81-11.51-4.42-17.88-4.46-6.79,0-13.8.34-20.32-1.15a65.25,65.25,0,0,0-25.66-.37c-11.24,1.85-22.49,5.2-34,1.41a5.94,5.94,0,0,0-5.31.6c-4.86,3.31-9.48,2.1-14.06-.6L151.51,27A233.4,233.4,0,0,1,221.7,16.74l5.81.13Zm58.13,291.12c0,1.33.05,2.68,1.17,3.63a1.44,1.44,0,0,0,2.19-.28c1.66-2.31,4.27-2.89,6.63-4,2.75-1.33,3-4,.72-5.33C300.62,300.46,294,304.2,293.85,308.76Z"/><path class="cls-10" d="M31.67,157l-3.34-.09a193.19,193.19,0,0,1,45.4-79.23,191,191,0,0,1,48.83-37.43c1.89-1,3.94-1.75,5.92-2.61,2.05,2,3.3,1.24,4.07-1.18l.74-.69c1.8,1,3.35,3.15,5.73,1.79,2.85-1.63,5.73-1,8.65-.56,7.7-1.41,15.3-3.82,23.16-.09,2.47,1.17,4.12,2.11,4.91,4.86,1.57,5.49,1.11,11.34,2.67,16.69,3.22,11-2.1,10.8-9.89,10.42-3.2-.16-4.49-2.38-5.76-4.82a3.62,3.62,0,0,0-4.09-2.19c-1.95.4-2.68,2-2.76,3.7-.18,3.65-.11,7.31-.25,11-.15,4.13.5,7.66,5.26,8.92,1.33.35,2,1.62,2.72,2.78,4,6.48,11.58,6.75,16.07.52,1.06-1.47,2.12-2.6,4.06-2.16A2.78,2.78,0,0,1,186,89a3.27,3.27,0,0,1-2,3.67c-3.83,1.78-4.46,5.06-4.36,8.74s-.61,6.34-4.38,8.07c-3.07,1.41-3.56,5.7-.74,7.38,4.33,2.58,3.1,5.12,1.12,8.14h-2c-7.31.67-16.26-4.28-20.76,6.06a.68.68,0,0,1-.39.3c-4.57,1.46-6.13,5.44-7.45,9.36-1.39,4.13-4.06,7.6-5.7,11.43C135.13,162,128.47,166,118.07,164a13.82,13.82,0,0,0-2,0c-4.26-.16-7.94.65-9.75,5.22a4.2,4.2,0,0,1-4,2.54c-4.49.08-9,.09-13.46,0-1.76,0-3-1.18-3.91-2.72-3.87-6.25-6.2-6.41-10.38-.67-2,2.81-4.16,3-5.7-.07C67,164.65,64.09,164,60.58,164c-3.33,0-6.66,0-10-.08-1.5,0-3.47.06-4.17-1.22-2.13-4-6.33-5.17-9.24-7.69C32.32,150.79,32.91,154.87,31.67,157Z"/><path class="cls-6" d="M175.67,125c2-3,3.21-5.57-1.12-8.14-2.83-1.68-2.34-6,.74-7.38,3.77-1.73,4.48-4.54,4.38-8.07s.53-7,4.36-8.74A3.27,3.27,0,0,0,186,89a2.78,2.78,0,0,0-2.26-2.38c-1.94-.44-3,.69-4.06,2.16-4.49,6.23-12.1,6-16.07-.52-.71-1.16-1.39-2.43-2.72-2.78-4.76-1.26-5.41-4.79-5.26-8.92.14-3.65.07-7.32.25-11,.09-1.73.81-3.3,2.76-3.7a3.62,3.62,0,0,1,4.09,2.19c1.27,2.43,2.57,4.66,5.76,4.82,7.79.39,13.11.59,9.89-10.42-1.56-5.35-1.1-11.2-2.67-16.69-.79-2.76-2.44-3.69-4.91-4.86-7.87-3.74-15.46-1.32-23.16.09a15.7,15.7,0,0,1-2-7.1l4.51-1.27c4.57,2.71,9.19,3.91,14.05.6a5.94,5.94,0,0,1,5.31-.6c11.52,3.79,22.77.44,34-1.41a65.25,65.25,0,0,1,25.66.37c6.53,1.49,13.53,1.1,20.32,1.15,6.37,0,12.65-.34,17.88,4.46,1.22,1.12,3.35,1.44,5.13,1.76,6.36,1.14,10.31,4.68,10.82,11.22.39,5,2.83,6.84,7.74,6.89,7.62.08,10.48,4.56,8.13,12-.54,1.71-1.42,3.07-3.35,3.24A3.22,3.22,0,0,1,292.37,66c-1.45-4.75-5.09-5.12-9.14-5-3.16.07-6.33,0-9.5,0a6.48,6.48,0,0,1-6.14-3.44c-2.12-3.64-11.74-4.55-14.8-1.65-1.36,1.29-.91,2.54.53,3.17a19.91,19.91,0,0,0,4.8,1.21c4.43.71,7.3,2.75,10.83,6.1,5,4.78,7,9.31,7.3,15.59.1,2,2.24,2.7,3.92,3.47s3.16,2,2.71,4.23-2.16,3-4.07,3.1c-4.76.34-9.92,1.56-11.78-5.1-.5-1.78-2.21-2.42-4.07-2.1a3.2,3.2,0,0,0-2.83,3.05,3.4,3.4,0,0,0,2.39,3.93,8,8,0,0,1,5.7,5.7c.74,2.2,2.86,2.59,4.93,2.72s4,.14,6,.42,3.55,1.2,3.81,3.36c.23,1.94-1.08,3-2.6,3.87-5.85,3.5-5.88,5.3-.26,8.83,3.68,2.31,3.61,5-.21,7.06-.87.48-2.27.58-2.66,1.28-4.38,7.91-9.34,2.4-14.09.67-2.1-.76-2.9-2.67-3.32-4.69-.64-3.08-2.52-4.65-5.61-4.61-7,.11-14-.33-20.89-.74-7.78-.47-15.5,1.27-23.21-.13-3.18-.58-5.91-1.61-6.2-5.35s-.8-7.86,3.88-9.76c2.18-.88,3.89-2.17,3.35-4.83s-2.77-3-5-3.21-4.33-.21-6.46-.55a3.51,3.51,0,0,1-3.26-3.29c-.14-2.22,1.31-3.44,3.27-3.77,2.45-.41,5-.4,7.45-.67,2.16-.23,4-1.13,4.06-3.6.11-2.76-1.77-3.76-4.15-4-1.65-.18-3.32-.22-5-.26-3.17-.07-5.37-1.42-6.48-4.5-.67-1.87-2-3.14-4.13-2.92A3.84,3.84,0,0,0,188,72.7a8.36,8.36,0,0,1-4.53,5.6c-2.73,1.46-2.69,3.47.22,4.64,4.21,1.68,5.27,4.86,4.71,8.85-1,7.31-.86,14.63-.55,22,.13,3.07-.65,5.31-3.82,6.06C180.64,120.61,179.23,124.53,175.67,125Zm8.43-79.27c2.77-.21,4.4-1.59,4.16-4.48C188,38.11,186,36.47,183,36.35s-4.2,1.68-4,4.46C179.14,44,180.94,45.59,184.1,45.73Zm63.16,55.68a3.47,3.47,0,0,0-3.16,4.08c.19,2.21,1.3,3.92,3.75,3.78s3.4-1.91,3.39-4.13C251.24,102.73,249.87,101.51,247.26,101.41Z"/><path class="cls-3" d="M203.86,414.36c-20.17-1.93-39.83-6-58.67-13.66C118.28,389.72,95,373.57,74.41,353c-9.08-9-15.73-19.53-22.85-29.86l1.1-3.17,3-1h0a6.72,6.72,0,0,0,3.12,5.38c1.55.94,3.64,1.61,4.08,3.46,2.23,9.34,12,12.67,16.15,20.44.7,1.31,2.3,1.07,3.64.71,6.44,3.19,10.91,8.92,16.41,13.29,6.84,5.44,14.27,9.94,21.17,15.22C126.88,382.57,136,383,142.18,389a17.8,17.8,0,0,0,9.76,4.54c7.05,1.24,14,3.39,20.84,5.18,10.67,2.78,21.19,5.27,32.2,6,16.52,1.13,32.9.41,49-3.58,8.17-2,15.79-5.76,23.53-9.18,9.88-4.35,18.47-11,28.77-14.62,4-1.38,6.84-5.69,11.84-5.5.82,0,1.78-.85,2.51-1.5,5.34-4.8,7.55-4.69,13.08.72-3.35,4.13-8.28,6.3-12.15,9.78a4.42,4.42,0,0,0-.3.73,24.43,24.43,0,0,0-3.21,1.35,203.64,203.64,0,0,1-92.21,28.32c-2.56.16-5,.69-6.28,3.32Z"/><path class="cls-7" d="M123.63,239a5.75,5.75,0,0,1,.25,2c-.89,3.78-12.42,12.11-16.33,11.78-8.28-.68-16.16.13-23.56,4.56a23.14,23.14,0,0,1-12.42,3.37c-7.68-.31-13.71,3.12-19.86,6.75a12.85,12.85,0,0,1-17.87-4.6c-.68-1.15-1.23-2.85-2.57-2.87-6.26-.1-5.52-5.1-6.32-8.87-1-4.82-.52-10.06-4.24-14.06-2.73-20.54-.91-40.86,2.86-61.09l1,0a3.87,3.87,0,0,0,1,.15c11.28-1.22,21.68,1.54,31.56,6.82a8.26,8.26,0,0,0,5.39.41c5.76-1,11.22.53,16.71,1.85a5.59,5.59,0,0,1,4.44,4.8l-10-.93c-8-.19-15.92.25-23.83-1.79-3.68-.95-7.33-2.14-11.09-2.84-6.84-1.26-10.66,1.68-11,8.57-.17,4,0,8,0,12-.06,11.39-.64,22.82,1.91,34.06-1.32,3.18-.62,6.11,1.09,8.92l1,5c3.58,9.39,9,12.26,15.57,7s13.48-5.91,21-6c6.74-.09,13.26-1.09,19.08-4.86a24.4,24.4,0,0,1,10.81-3.46C107,244.65,115.26,241.57,123.63,239Z"/><path class="cls-8" d="M203.39,425.63c-.13-4.36,3.49-5.49,6.31-7.32,9.2-.39,18.43-.25,27.6-1.41l3.41.16c-2.67,2.25-5.63,4.32-5,8.51C225,426.12,214.17,425.91,203.39,425.63Z"/><path class="cls-2" d="M240.71,417.06l-3.41-.16c-8.57-1.55-17.23-.35-25.84-.87-2.62-.16-5.37.29-7.6-1.67l15.66.22c12.59.82,24.85-1.87,37.2-3.51,2.78,1.54,5.87,0,8.72.87C257.33,414.25,249.17,416.42,240.71,417.06Z"/><path class="cls-11" d="M70.46,51.9c-.65-.76-1.28-1.52-1.94-2.26-1.82-2.05-3.54-4.33-2-7.1a5.6,5.6,0,0,1,7.21-2.78C76.89,45,76,48.21,70.46,51.9Z"/><path class="cls-3" d="M145.67,29.9a15.7,15.7,0,0,0,2,7.1c-2.92-.47-5.79-1.06-8.65.56-2.39,1.36-3.93-.8-5.73-1.79C136.82,32.56,141.46,31.68,145.67,29.9Z"/><path class="cls-12" d="M24.59,176l-1,0c-2.92-5.27-1.81-9.91,3.81-16Z"/><path class="cls-10" d="M52.66,320l-1.1,3.17a24.83,24.83,0,0,1-5.44-9.09l4.54-.09A8.53,8.53,0,0,0,52.66,320Z"/><path class="cls-3" d="M132.55,36.46c-.77,2.42-2,3.18-4.07,1.18Z"/><path class="cls-6" d="M44.39,311.29l.81,0-.56.66A2.76,2.76,0,0,1,44.39,311.29Z"/><path class="cls-3" d="M7.26,26a3.31,3.31,0,0,1,0-5Z"/><path class="cls-8" d="M172.84,13.36l.37-.21.12.66c-.14,0-.33,0-.41-.05S172.86,13.49,172.84,13.36Z"/><path class="cls-10" d="M333.67,371.08c-5.53-5.41-7.74-5.51-13.08-.72-.72.65-1.69,1.54-2.51,1.5-5-.2-7.87,4.11-11.84,5.5C296,381,287.36,387.63,277.48,392c-7.74,3.41-15.36,7.14-23.53,9.18-16.07,4-32.44,4.71-49,3.58-11-.75-21.53-3.25-32.2-6-6.87-1.79-13.79-3.94-20.84-5.18a17.8,17.8,0,0,1-9.76-4.54c-6.19-6-15.31-6.42-21.93-11.49-6.9-5.28-14.33-9.79-21.17-15.22-5.5-4.37-10-10.1-16.41-13.29-.39-1.95-.8-3.9-1.17-5.85-.34-1.74-1.08-3.56-3-3.47-4.69.22-5.48-3-6.74-6.4-2-5.52-1.22-6.77,4.74-6.18,2.33.23,4.21,1,5.06,3.36,1.3,3.54,3.87,4.78,7.45,4.25a4.73,4.73,0,0,0,4.31-4.17c.66-3.83-.76-6.44-4.51-7.75a5.59,5.59,0,0,1-3-3.11c-2.49-5-8.41-6.57-11.18-11.37-.47-.81-2.41-.93-3.71-1.09a19.45,19.45,0,0,0-10.71,1.48c-3.24,1.49-6.13,1.13-8.51-1.7q0-2,0-4c2.85-1.91,5.82-1.87,9.08-1.05,6,1.49,8.53-.48,8.83-6.55.2-4,.1-8,.24-12,0-1.29.13-2.89,1.83-3.15,1.44-.22,1.65,1.33,2.42,2.14,3.81,4,7.4,8.31,11.69,11.72s7.66,7.71,11,11.66c3.14,3.71,5.79,5.35,10.22,5.23,3.66-.1,7.33-.07,11,0s6.57-.86,7.89-4.71a4.36,4.36,0,0,1,4.2-3c3.82-.12,7.65-.11,11.48-.06,1.15,0,2.49.25,2.84,1.59s-.93,2-2,2.48a11.36,11.36,0,0,0-3.94,2.95,107.71,107.71,0,0,1-13.66,13.64c-3.66,3-3.84,8.93.2,10.32a19.34,19.34,0,0,0,13.7-.14c3.82-1.58,2.82-5.65,3-8.86.16-3.76,1.64-6.23,5.64-6,9.54.47,10.9-2.86,10.44-10.39a6.94,6.94,0,0,1,.37-2.46c1-3.2,3.86-3.28,6.49-3.66s4.32.58,4.91,3.11c1.07,4.61,4.33,5.46,8.37,5.1,2.82-.25,5.63-.76,8.45-.74,5.32,0,10.73,0,15.11,3.82s7,3.92,11.86.33c5.69-4.21,16.76-3,21.38,2.39,3.11,3.62,9,3,10.53-1.57,1.37-4.19,3.79-4.88,7.57-4.31,4.09.61,7.64,0,9.12-4.79.86-2.76,3.39-2.85,5.77-3,4.64.25,9,.12,11.15-5.21.64-1.59,2.73-1.78,4.39-1.95,1.41-.14,3.35-.92,3.92,1,.5,1.66-1.47,1.93-2.57,2.5-2.26,1.18-2.68,3.22-2.82,5.45-.5,7.84.82,15.6,1.27,23.39.29,4.93,4.23,5.8,8.38,5.81s8-.56,9.05-5.74c2.26-11.5,2.3-11.54,14.34-10.43,4.25.39,7.84-.57,10.87-3.72a23.33,23.33,0,0,1,9.73-5.88,7.93,7.93,0,0,0,4.21-2.52c2.54-3.42,5-4.38,7.57,0,.94,1.56,2.23,1.22,3.14-.23,5.28-8.39,13.91-11.5,22.4-15.5,6.08-2.87,13.09-5,17.61-11.08,3.53-4.77,5.74.73,8.41,2.13L401.8,283a10.84,10.84,0,0,1-2.08,7.9q-6.87,10.47-13.79,20.91c-4.42,6.76-9.84,12.84-13.62,20-3,2-4.89,4.9-6.75,7.85l-2,2.26a2,2,0,0,0-.87,2l-1.13,3,0,0c-2.89.39-4.52,2.5-6.31,4.49C348.78,358.71,342.26,366,333.67,371.08Zm-163-30.1c7.3.07,10.73-1.42,10.13-4.46-1-5-5.29-5.3-9.35-5.45-6.21-.23-9.58,1.58-9.11,5.07C163,341.55,167.57,340.6,170.65,341Zm-19.36-6.17c3.77.06,6.06-1.59,6.18-5.55.1-3.51-1.44-5.79-5.15-6s-6.19,1.25-6.42,5.25C145.68,332.24,147.31,334.54,151.28,334.81Z"/><path class="cls-11" d="M401.8,283,398.72,281c-.3-4.93.43-9.3,4.71-12.73,3.21-2.57,1.46-6.81,2.27-10.23,3.24-3.78,3.16-8.55,3.94-13.07q0-.49,0-1c3.56-16,1.72-32.17,1.61-48.28,0-1.88-1.09-3.82-1.92-5.61-.59-1.27-1.38-3.3-3.14-2.43s-.62,2.64.18,3.84a13,13,0,0,1,2.19,7c.35,11.52.32,22.91-4.59,33.81-1.51,3.35-3.14,4.92-6.63,4.36-6-1-12-.61-18-.71-4.67-.08-9.49-.1-13.78-1.87a32,32,0,0,0-12.57-2.8c-10,.13-19.67-3.14-29.73-3-4,0-8.84,0-11.61-4.33,8.52,1.35,17.19,1.84,25.65,3.25,17.14,2.86,34.36,3.39,51.64,3.78,4.24.1,6.09-1.77,6.77-6.11,2.26-14.47,2.83-28.82-1.41-43-.86-2.89.68-8.12-3.95-7.84-4.12.26-2.29,5.06-2.77,8-.26,1.59.36,3.73-1.47,4.46-2.3.91-2.92-1.52-4.09-2.79-4-4.37-8.7-8.71-14.78-7.93a124.19,124.19,0,0,0-20,3.89c-12.06,3.62-24.4,6.34-36.62,9.44,4.32-5,7.52-11.63,16-10.37.93.14,2.26-.73,3-1.51,5-5.06,11.07-6.1,17.84-5.82A39.51,39.51,0,0,0,364,168.45a100.47,100.47,0,0,1,24.38-6.2c11.07-1.36,14.19-4.84,11.37-15.6-.25-1-.57-1.91-.89-2.86-.8-2.41.54-3,2.54-2.94,2.23,1.47,1.65,4.36,3.14,6.21l1.54,4,3.07,10L412.72,175l.81,14.9c1,17.38,2.17,34.76.22,52.16l-.24,2.86c-1.06,1.23-.82,2.7-.79,4.14-2,9.51-3.88,19-6.79,28.34C405.17,279.75,404.69,282.26,401.8,283Zm6-116.16-.3-.77.09.93c.13,2.22-.12,4.53,1.5,7.06C409.67,171.06,408.63,169,407.79,166.89Zm1.9,13,1.4,7.69C411.87,183.84,411.54,181.72,409.69,179.92Z"/><path class="cls-9" d="M382.57,331.8c2,8.95,1.22,10.63-7,15-2,1.09-3.65,2.54-4,4.8a12.73,12.73,0,0,1-4.12,7.61c-3.11,3.05.32,4.35,2.59,5,9.49,2.69,10.91,5.68,5,13.82-3.86,5.36-8.83,9.92-13.34,14.8-.88,1-2.4,1.67-1.71,3.24s2.29,1.14,3.56,1c4.05-.37,6.31,1.37,9,4.68,3.94,4.95,10.64,6.37,16.44,8.66,2.61,1,5.46,1.28,7.5,3.56,1.18,1.33,2.89,1.39,4.61,1.46,20.42.87,40.9.92,61.07,5,3.53.71,7.31.45,11,.26,9.94-.53,19.79,1,29.69,1.21,2.08,0,3.95.74,4.89,2.86-3.64.1-7.27.24-10.91.29q-28.55.36-57.11.67a67.42,67.42,0,0,0-13,.1l-7.93-.4a4.37,4.37,0,0,0-4.13-2.32c-8.83.44-17.5-2.06-26.18-2-20.86.27-41.21-2.85-61.49-7.07-1.38-.29-3.45.09-3.61-1.85s1.82-2.67,3.42-3c3.32-.6,6.1-1.68,6.9-5.41a11.5,11.5,0,0,0,6-1.19c2,.09,4.1.75,5.92-.74l0-1-.44-1c3.75-.37,8.05-.14,6.56-6.12,5.24-4.59,10.54-9.11,15.7-13.79s5.32-7.3.61-12.54a41.24,41.24,0,0,0-4.12-3.56c-.17-1.49.51-3.34-1.71-3.94l-1.7-3.22,1.27-1.84c1.49-1.51,3-3,4.45-4.55C371.63,344.25,377.09,338,382.57,331.8Z"/><path class="cls-9" d="M432.69,362.09c-8.06,4.41-18.34-1.93-20.6-14.57-1-5.37-.7-10.9-1.89-16.32-.86-3.91,2-7,4.52-9.58a14.05,14.05,0,0,0,3.93-14.14c-1.19-4.75.38-9,2.64-12.89,3.42-5.89,7.32-11.49,11.06-17.19.69-1.06,2.41-1.73,1.68-3.29s-2.46-1.43-4-1.54c-1.28-.1-2.56.95-4-.14,1.56-4.47,4-7.88,9.15-8.62a8.65,8.65,0,0,0,6.48-4.27c2.9-5.16,7.33-7,13-6.5-1.85,5.38-5.42,9.83-8,14.83-.57,1.13-1.78,2.56-.49,3.57,1.63,1.27,2.78-.44,3.55-1.57,2.88-4.22,5.59-8.55,8.38-12.83,1.64-2.52,3.34-4.9,6.59-1.91q-.09.42-.22.84c-2.3,1.35-5.28,2.36-3,6l-1.89,3c-1.51.9-2.42,2.1-2,4l-4.25,8a10.33,10.33,0,0,0-4.68,8h0a2.56,2.56,0,0,0-1.16,2.94l-2.74,5.1c-2.75,1.92-3.49,4.88-4.12,7.91h0c-5.22,6.59-7.51,14.74-11.62,21.93-3.47,6.06-4,12.41-1.86,19.24,1,3.33,4.23,7.37,3.18,9.58C428,356.51,430.57,359,432.69,362.09Z"/><path class="cls-8" d="M413.53,189.89l-.81-14.9,23-.1h2.91l8.08,0,8.93.17c2,3.88,4,3.88,6.11.09l21.86-.08a8.76,8.76,0,0,1-4.47,8.3,6.32,6.32,0,0,0-3.4,5.16c-3.66,3.71-5.72,9.68-12.56,8.9-6.49-.06-13.11-1.94-19.38,1.33-5.33.1-10.67,0-16,.35-4.78.32-8.2-.74-9-6.13a6.87,6.87,0,0,0-1.21-2.14Z"/><path class="cls-1" d="M477,243.23c4.3-1.06,8.56-2.81,12.9-3.07,18.76-1.13,31,16.9,23,33.93-4.95,10.51-10.64,20.68-16,31-7,13.39-14.14,26.73-21.06,40.17-4.65,9-12.75,12.6-22,14.6l-2.16.22-3.82-.36-4.22-1.33-2.16-1.16a14.11,14.11,0,0,1-7-7.19l2.23-2.68c4.05,4.49,8.49,8.31,15,8.62,8.64-.5,16.69-2.51,20.56-11.23a115.73,115.73,0,0,1,8.35-15c6.56-10.35,11.72-21.58,17.47-32.44a4,4,0,0,0-1.39-5.67c-2.38-1.7-4.21-.35-5.45,1.59-2.68,4.2-5.69,8.23-7.31,13-1.52,4.49-4.53,8.11-7.09,12-.59.89-1.54,2.15-2.81,1-.91-.79-.16-1.86.39-2.68,2.8-4.18,5.47-8.67,6.21-13.53,1.66-10.86,9.88-17.76,14.91-26.56.54-.94,1.39-2.16,2.7-1.91,1.55.3,1,1.87,1.22,2.92.61,2.46,1.38,4.39,4.25,1.85,4.51-4,6.07-9.86,7.84-15,2.33-6.66-6.36-18-13.58-19-6-.79-12.19,0-18.23,1-4.06,1.5-6.27,5-7.86,8.51-6.45,14.4-14.93,27.75-21.69,42-5.88,12.37-14.59,23.42-17.4,37.22l-3.49-1c-.22-6.9,3.32-12.54,6.17-18.4a6.09,6.09,0,0,0,3.91-3.54c8.31-15.85,16.79-31.61,24.9-47.56,2.07-4.08,4.22-8.27,5.07-12.9C470.66,247,474.07,245.37,477,243.23Z"/><path class="cls-5" d="M475.73,188.58a6.32,6.32,0,0,1,3.4-5.16,8.76,8.76,0,0,0,4.47-8.3c12.63,0,25.26,0,37.89-.14,4.48,0,6.48,2,6.17,6.35s-.66,8.94-1,13.41A4.21,4.21,0,0,1,522,199q-17.7.07-35.4,0c-4.42,0-4.78-3.14-5-6.52-.17-2.56.11-6.17-4.38-3.44Z"/><path class="cls-12" d="M439.67,425.79q28.55-.33,57.11-.67c3.64,0,7.27-.19,10.91-.29l21,.41c.23,6.26-.74,7.08-7.95,6.77-1.3-.36-2.77-.94-3,1.15-.32,2.41-2,3.23-4,3.87-4.6-2.62-8.67,2.67-13,1.24-.85-2.46,4.94-1.21,2-4.3-2-2.06-3.84-.91-5.43,1-1.78,2.17-3.7,4.23-5.56,6.34-1.43.27-3,.21-3.89,1.71-4,.68-7.86,2.45-12.07,2-.62-1.77-1.42-3.76-3.33-4.06-6-.93-11.74-3.3-18-3.2A44.66,44.66,0,0,1,434.66,434a15,15,0,0,1,8.83-.48c9.34,1.92,18.86-1.88,28.19,1a2.51,2.51,0,0,0,3.21-2.36c.18-1.89-1.24-2.6-2.82-2.83a33.7,33.7,0,0,0-4.47-.26c-6.47,0-12.95,0-19.42-.12C445.07,428.81,441.76,428.86,439.67,425.79Z"/><path class="cls-9" d="M475.54,225c-.34,1.89-1,4.1-3,4.18-6.76.27-13,4-20.07,2.46-8.28-1.86-16.13.38-23.64,3.8-2.05.93-4,1.94-6.12.71s-1.72-3.39-1.61-5.38c.23-4,.44-8,.69-12,.26-4.23,2.19-6.55,6.75-5.8.66.11,1.33.14,2,.22,10.37,1.24,15.14-3.55,14.09-14.11l17,.1c.15,2.41.62,4.65,3.09,5.83l-.14,2.95c-2.29,1-4.57,1.84-7.17,1-2.88-1-5.71-.87-7.45,2-1.92,3.2-1.22,6.4.86,9.28C455.24,226.4,469,229,475.54,225Z"/><path class="cls-2" d="M404.53,147c-1.49-1.84-.9-4.74-3.14-6.2q-.35-1.94-.69-3.89c3.12-3.49,6.72-4.3,11.2-2.61a14.7,14.7,0,0,0,9.82-.09c5.61-1.84,6.68-4.81,2.64-8.92-9.23-9.4-13.44-20.74-14-33.67a20.73,20.73,0,0,1,3.14-15.81c-.39,7.63-1.46,15.19.2,22.88,4.66,21.52,23.94,38.57,44.84,39.26,24.63.81,45.07-13.68,51.29-36.34.61-2.23.81-4.63,2.39-6.51.44,2.83,4,4,3.79,7.18l-.66,1.11c-1.43.33-3.82-.72-3.87,1.7-.05,2.26,2.12,2.64,4,2.62,2.26,0,4.52-.26,6.78-.41l-.58,1.66c-4.33,1.5-9.7-.53-13.17,3.88-4.7,7-9.42,14-16.52,18.95-14.33,10.06-29.82,11.79-46.35,7.06l-3-1c-3.35-2.06-6.56-1.64-9.73.45-3.41,2.25-7.33,3.71-11.24,3.08C414.81,140.31,409,141.42,404.53,147Z"/><path class="cls-13" d="M516,102.31c.23-3.18-3.35-4.35-3.79-7.18l-.52-13.08-.27-2-.52-1.92,1.75-1.95c6.44-1.76,12.45-1.19,17.77,3.23,8.28,10.76,4.19,24.73-8.19,27.95-2.27.14-4.53.38-6.79.4-1.85,0-4-.36-4-2.62.06-2.42,2.45-1.37,3.87-1.7a12.55,12.55,0,0,0,7.31.75,2.51,2.51,0,0,0,2.26-3.24c-.23-1.1-1.13-3.09-1.29-2.9C521.68,100.53,516.83,97.93,516,102.31Z"/><path class="cls-14" d="M520.72,432c7.2.32,8.17-.51,7.95-6.77l5-.43,6,0,2.93.3.92.93c-.49,8-1.12,15.92-1.4,23.89-.14,3.87-1.44,5.18-5.47,4.76-6.44-.67-13-.78-19.44-1-3.29-.09-5.06-1.29-4.66-4.79a2.68,2.68,0,0,1,.54-.47c2.55.23,5.55,5.4,7.53-.69a5.16,5.16,0,0,1,5.51-2.53,25.51,25.51,0,0,1,4.69,1.48c2.9,1.06,5.82,1.17,7.44-1.78,1.89-3.45-1.66-4.52-3.55-6-3-2.41-6.74-.74-10.13-1.18C520.87,437.29,518.95,436,520.72,432Z"/><path class="cls-5" d="M515.43,372.87c-7.23,0-10.3-2.33-11.38-9.16-.88-5.56-4-10.64-3.34-16.51.22-2-.05-4.19,2.11-5.24s4.11.08,5.51,1.37c3.6,3.34,7.43,6.56,8.41,11.89.57,3.08,1.24,6.28,3.15,8.85,1.56,2.1,3.17,4.08,1.66,6.71C520.15,373.19,517.5,372.63,515.43,372.87Z"/><path class="cls-9" d="M435.71,174.89l-23,.1-3.58-13.91c2.28-1.3,3.21-4.3,6.1-4.83,6.79-1.25,13.39-3.69,20.45-3.23a10.87,10.87,0,0,1-3.26,5.95c-5.54,6-5.3,8.45.94,13.42A22.11,22.11,0,0,1,435.71,174.89Z"/><path class="cls-1" d="M475.73,188.58l1.49.43c.18,6.9.72,13.79.13,20.69-.82,5.54-.53,5.89,4.82,4.32,2-.58,3.16.09,4.41,1.28L482.7,218c-3.61-.68-5.12.88-4.74,4.45l-2.28.48-1.8-.45c-7.85-4.49-8.23-5.62-6.66-14.75.51-2.94,1.56-6.33-1.68-8.69l-2.71-.31.33-1.29C470,198.25,472.08,192.29,475.73,188.58Z"/><path class="cls-5" d="M435.69,153c-7.06-.46-13.66,2-20.45,3.23-2.89.53-3.82,3.53-6.1,4.83l-3.07-10c3.78-1.58,6.21-6.22,11.5-4.44,8,2.68,15,1.17,20.8-5.35a30.11,30.11,0,0,1,4.3-3.4l3,1C445,145.45,438.86,148.2,435.69,153Z"/><path class="cls-5" d="M435.41,314.73c-2.85,5.87-6.39,11.5-6.17,18.4-.82,6.41-.29,12.41,5.19,16.89a14.16,14.16,0,0,0,7,7.19,2.27,2.27,0,0,0,2.16,1.16l4.22,1.33c-2.53,1.58-5.46,1.77-8.26,2.41l-6.9,0c-2.11-3.12-4.7-5.58-2.4-10.39,1.05-2.21-2.14-6.25-3.18-9.58-2.12-6.82-1.61-13.17,1.86-19.24,4.12-7.18,6.4-15.33,11.62-21.92C440.08,306,437,310.07,435.41,314.73Z"/><path class="cls-5" d="M473.89,222.53l1.8.45q-.07,1-.15,2c-6.5,4-20.3,1.41-24.74-4.73-2.08-2.88-2.78-6.08-.86-9.28,1.74-2.9,4.57-3,7.45-2,2.6.86,4.87,0,7.17-1a14.32,14.32,0,0,1-1.25,2.65c-2.37,3.19-3.54,6.48-.43,9.76S469.58,225.05,473.89,222.53Z"/><path class="cls-9" d="M413.53,189.89l4.12,1c.45,7.28.65,14.59,1.43,21.83.89,8.18.08,16.23-.73,24.32-.28,2.83-1.69,4.61-4.62,5C415.7,224.65,414.56,207.27,413.53,189.89Z"/><path class="cls-11" d="M382.57,331.8c-5.48,6.21-10.94,12.44-16.44,18.63-1.41,1.58-3,3-4.45,4.55q0-2.57,0-5.15v-2.89l0,0c3.6-1.17,5.35-3.36,4-7.25,1.86-3,3.75-5.88,6.75-7.85,2.7,1.81,3.34-.8,4.57-2.12,3.07-3.3,5.47-7.54,10.84-7.52C386.5,325.69,383,327.91,382.57,331.8Z"/><path class="cls-5" d="M477,243.23c-2.92,2.14-6.32,3.78-7.69,7.5l-4.55,4.38c-3.25-3-4.95-.62-6.59,1.91-2.79,4.28-5.5,8.61-8.38,12.83-.77,1.13-1.92,2.84-3.55,1.57-1.29-1-.08-2.44.49-3.57,2.54-5,6.12-9.46,8-14.83l3-3,2-1.94c3.55-1.23,7.57-.8,10.84-3l2.15-1.9Z"/><path class="cls-12" d="M486.58,215.31c-1.25-1.19-2.45-1.86-4.41-1.28-5.35,1.57-5.63,1.22-4.82-4.32L481,209a1,1,0,0,0,1.6-.22c4.73-2.11,9.77-3.2,14.79-4.35l2.35,5.54C496.31,214.16,491.24,214.22,486.58,215.31Z"/><path class="cls-15" d="M387.73,322.24c-5.37,0-7.78,4.22-10.84,7.52-1.23,1.33-1.87,3.93-4.57,2.12,3.78-7.19,9.2-13.27,13.62-20,.4.52.68,1.21,1.2,1.53C391.61,316.08,390.88,319.07,387.73,322.24Z"/><path class="cls-9" d="M508.51,112.87c3.47-4.41,8.84-2.38,13.17-3.88-.85,3.65-3.45,4.48-6.76,4.24C512.79,113.08,510.64,113,508.51,112.87Z"/><path class="cls-2" d="M463.17,197.48l-.34,1.29-1.22.41-17-.1-.82-.27C450.06,195.54,456.68,197.41,463.17,197.48Z"/><path class="cls-9" d="M439.59,362.11c2.8-.64,5.73-.84,8.26-2.41l3.83.36q0,.52,0,1C447.81,363.37,443.85,364.58,439.59,362.11Z"/><path class="cls-2" d="M499.72,210l-2.35-5.54c2.91.12,4.42,3.57,6.91,3.57Z"/><path class="cls-9" d="M446.7,174.93l-8.08,0C441.33,171.3,444,171.28,446.7,174.93Z"/><path class="cls-5" d="M478,222.5c-.38-3.57,1.13-5.13,4.74-4.45C482.44,220.93,481,222.54,478,222.5Z"/><path class="cls-5" d="M461.74,175.2c-2.09,3.79-4.13,3.79-6.11-.09Z"/><path class="cls-9" d="M539.69,424.83l-6,0C535.68,421.47,537.69,422.25,539.69,424.83Z"/><path class="cls-9" d="M543.54,426.06l-.92-.93a15.67,15.67,0,0,1,7.07-1.1C548,425.82,545.78,425.94,543.54,426.06Z"/><path class="cls-9" d="M412.7,249c0-1.44-.27-2.91.79-4.14C415.94,246.81,416.24,248.3,412.7,249Z"/><path class="cls-9" d="M472.68,243.12l-2.15,1.9c-.55-.5-1.78-1-1.09-1.77S471.57,243,472.68,243.12Z"/><path class="cls-5" d="M451.67,361.09q0-.52,0-1l2.16-.22Z"/><path class="cls-1" d="M482.58,208.79a1,1,0,0,1-1.6.22Z"/><path class="cls-9" d="M459.69,248l-2,1.94Z"/><path class="cls-11" d="M439.67,425.79c2.09,3.07,5.4,3,8.5,3.11,6.47.16,12.95.07,19.42.12a33.7,33.7,0,0,1,4.47.26c1.58.22,3,.94,2.82,2.83a2.51,2.51,0,0,1-3.21,2.36c-9.33-2.84-18.85,1-28.19-1a15,15,0,0,0-8.83.48c-2-.22-4-.83-6,0h0l-2,0c-6.94-1.62-14.05-1.26-21.08-1.85-2.31-.2-4.8.45-6.11,2.59-1.5,2.47,1.32,3.72,2.16,5.53a16.27,16.27,0,0,0,2.07,2.76A16.56,16.56,0,0,1,396,449a6.14,6.14,0,0,0-4.27,5c-8-4.63-16.63-5.35-25.59-5-21.43.88-42.86,2.16-64.34,1.1-9.64-.48-19.33.09-29-.24-5.81-.19-11.74-1.83-17.41-.42-7.61,1.88-15.21,1.51-22.84,1.54-16.5.07-33,0-49.49,0-4.17,0-8.29-.06-12.36-1.35-3-.94-6-.93-8.18,1.91a1.43,1.43,0,0,1-1.78-.18c-.53-1-1-2-1.62-2.95-.43-.67-1.06-1.51-1.91-1.06-1,.54-.59,1.69-.56,2.63l-1.47.17H144.9c.79,2.93,3.62,3.41,4.58,5.51a26.56,26.56,0,0,1-9.87-.24c-.15-.82,0-1.86-.48-2.42-4.09-5,0-8.58,2-12.51.63-1.22,1.6-1.2,2.94-.94,6.09,1.19,11.94,3.39,18.44,2.62a54.18,54.18,0,0,1,15.4.55c9.89,1.68,19.17,6.38,30.09,2.81,5.49-1.8,11.38-3.11,17-5.1,1.45-.52,2.85-1.29,2.35-3.24-.82-3.16-10.25-9.4-13.78-8.87-12.48,1.86-24.9-.29-37.35-.41a6.39,6.39,0,0,1-4.52-1.82l31.73-.45c10.78.28,21.56.49,32.33-.06l98.48.2,63.48.17c5.58,4.29,22.57,4.26,28.95,0A67.42,67.42,0,0,1,439.67,425.79Z"/><path class="cls-7" d="M171.66,426.08a6.39,6.39,0,0,0,4.52,1.82c12.45.12,24.87,2.27,37.35.41,3.54-.53,13,5.71,13.78,8.87.5,1.95-.9,2.72-2.35,3.24-5.58,2-11.47,3.3-17,5.1-10.92,3.57-20.2-1.13-30.09-2.81a54.18,54.18,0,0,0-15.4-.55c-6.5.77-12.36-1.43-18.44-2.62-1.35-.26-2.31-.28-2.94.94-2,3.93-6.1,7.54-2,12.51.46.56.33,1.6.48,2.42l-2.73-.13c-3-4.05-6.36-7.58-12.17-6.26l-2.11.16-.14,0c-.11-2,0-4.57-2.8-4.32a6,6,0,0,1-5.91-2.64c-1.34-1.75-3.41-2-5.47-1.32-3,1-6,1.75-8.75,3.52-6.21,4-25.32,3.11-31.16-1.48-2.12-1.66-4.15-2.61-6.81-2.29a5.51,5.51,0,0,1-4.66-1.36c-3.79-3.75-8.43-3.49-13.11-2.88a46.64,46.64,0,0,1-11.94.38c-1.73-.22-3.34-.91-3.45-3s1.35-2.95,3.09-3.32a15.4,15.4,0,0,1,4-.4c8.67.42,17.27-1,25.91-1.09,2.59,0,5-.42,6.34-3.07l81,.14a11.9,11.9,0,0,0,16,0Z"/><path class="cls-11" d="M67.69,425.89c-1.33,2.65-3.75,3-6.34,3.07-8.65.14-17.24,1.51-25.91,1.09a15.4,15.4,0,0,0-4,.4c-1.73.38-3.19,1.28-3.09,3.32s1.72,2.75,3.45,3a46.64,46.64,0,0,0,11.94-.38c4.69-.61,9.32-.87,13.11,2.88a5.51,5.51,0,0,0,4.66,1.36c2.66-.31,4.69.63,6.81,2.29,5.84,4.59,24.95,5.48,31.16,1.48,2.74-1.77,5.76-2.54,8.75-3.52,2.06-.67,4.13-.42,5.47,1.32a6,6,0,0,0,5.91,2.64c2.82-.25,2.69,2.32,2.81,4.32-7.13.32-8.29,1.29-6.91,5.81a26.74,26.74,0,0,1-10,.66c-1.82-3.49-6.62-2.92-8.6-6.25,0,0-1.06.59-1.63.91-9.77,2-19.67-1.07-29.44.75-1.12-1.07,1.22-4.88-2.57-3.65-3,1-5.84,0-8.71.19-4.78.3-10.26-1.65-13.87,3.48-2,5.7-3.94,6.39-11.21,4,.4-4.29-1.78-6.34-5.87-6.69-1.62-.14-3.24-.26-4.86-.39-.34-6.14-.67-12.28-1-18.42-.15-2.55.71-4.33,3.54-4.29C36.79,425.51,52.25,424.76,67.69,425.89Z"/><path class="cls-12" d="M162.49,451.55c2.21-2.84,5.22-2.85,8.18-1.91,4.06,1.29,8.18,1.35,12.36,1.35,16.5,0,33,0,49.49,0,7.63,0,15.24.34,22.84-1.54,5.66-1.4,11.59.23,17.41.42,9.65.32,19.34-.24,29,.24,21.48,1.06,42.9-.22,64.34-1.1,9-.37,17.64.36,25.59,5l1.07,1.81-5.11.27c-3.29-2.06-7-2-10.66-2-37.27-.09-74.54-.9-111.82-.35-30.62.46-61.24.27-91.86.29-3.48,0-7-.52-10.44-.8l-.28-1.73Z"/><path class="cls-1" d="M65.91,451c9.77-1.82,19.67,1.2,29.45-.75l1.26,4.65c-9.23,1.71-18.51.87-27.76.39a5.15,5.15,0,0,1-5-4.18Z"/><path class="cls-13" d="M115.55,455c-1.38-4.52-.23-5.49,6.91-5.81l.14,0c.21.72.12,1.88,1.13,1.8s.78-1.23,1-2c5.81-1.31,9.12,2.21,12.17,6.26C129.78,454.39,122.63,457.22,115.55,455Z"/><path class="cls-15" d="M65.91,451l-2,.1L40.76,451c3.61-5.12,9.09-3.17,13.87-3.48,2.87-.18,5.7.79,8.71-.19C67.14,446.14,64.79,450,65.91,451Z"/><path class="cls-12" d="M149.47,455.66c-1-2.1-3.79-2.58-4.58-5.51h10.25C155.83,454.64,153.31,455.83,149.47,455.66Z"/><path class="cls-11" d="M164.67,426.06a11.9,11.9,0,0,1-16,0A98.69,98.69,0,0,1,164.67,426.06Z"/><path class="cls-15" d="M18.83,448c1.62.13,3.24.25,4.86.39,4.09.36,6.26,2.4,5.87,6.69l-2,0L25,454.14l-.59-.28c-.17-2.9-1.93-3.86-4.57-3.71Z"/><path class="cls-7" d="M96.62,454.92l-1.26-4.65c.56-.32,1.62-.92,1.63-.91,2,3.33,6.78,2.76,8.6,6.25C102.55,456,99.6,455.26,96.62,454.92Z"/><path class="cls-1" d="M19.82,450.15c2.65-.14,4.4.81,4.57,3.71C21.89,453.83,20.08,452.94,19.82,450.15Z"/><path class="cls-12" d="M156.61,450c0-.93-.47-2.09.56-2.63.86-.45,1.49.39,1.91,1.06.6.94,1.08,2,1.62,2.95Z"/><path class="cls-1" d="M25,454.14l2.53.91A2.15,2.15,0,0,1,25,454.14Z"/><path class="cls-3" d="M6,345.12a2.12,2.12,0,0,1-.61-3.18A4.29,4.29,0,0,1,6,345.12Z"/><path class="cls-11" d="M162.59,451.46l.28,1.73C162,452.74,161.72,452.2,162.59,451.46Z"/><path class="cls-1" d="M509.23,455.36c-4.36-4.34-4.37-7.59,0-11.07l.53,4.69Z"/><path class="cls-9" d="M509.75,449l-.53-4.69.4-2.23c5.82-1,3.62,3.17,3.78,5.83a.85.85,0,0,0-.29.61,2.7,2.7,0,0,0-.54.47Z"/><path class="cls-7" d="M392.75,455.77,391.69,454a6.14,6.14,0,0,1,4.27-5,16.55,16.55,0,0,0,7.74-5.91l4,0a16,16,0,0,0,2.15,5.86l-.7,6.7-13.46.52Z"/><path class="cls-14" d="M428.66,434c2-.85,4-.25,6,0a44.66,44.66,0,0,0,19.68,3.75c6.26-.1,12,2.27,18,3.2,1.9.29,2.71,2.29,3.33,4.06h0a52.74,52.74,0,0,1-14.77,3.82c3,2,7.93-.08,8.77,5.17l-7,.37-6.9-.49-.8-3.88c-.5-2.74,4.51-7.78-3.14-7.54l-35.14-.74a5,5,0,0,1,4.36-5.06,11.65,11.65,0,0,0,5.67-2.62l2,0Z"/><path class="cls-12" d="M426.66,434a11.65,11.65,0,0,1-5.67,2.62,5,5,0,0,0-4.36,5.06l-3,.54-2.94-.22a2.31,2.31,0,0,0-2.94,1.14l0-.09-4,0a16.25,16.25,0,0,1-2.07-2.75c-.85-1.8-3.67-3.06-2.16-5.53,1.3-2.14,3.8-2.79,6.11-2.59C412.6,432.78,419.72,432.42,426.66,434Z"/><path class="cls-2" d="M454.91,450l.8,3.88c-2.2,1.34-2,7.27-6.09,4.32-3.11-2.25-3.76-6.5-1-10.23.46,2,0,4.44,2.52,6.35l.68-5.46Z"/><path class="cls-9" d="M410.68,442l2.94.22c.3,2.62.67,5.23.86,7.85.1,1.28.22,3.09-1.22,3.46-2.08.54-1.32-1.74-2-2.68-.45-.67-1-1.3-1.46-1.94a16,16,0,0,1-2.15-5.86l0,.09C408.75,442.86,410,443.22,410.68,442Z"/><path class="cls-1" d="M451.81,448.86l-.68,5.46c-2.57-1.91-2.06-4.33-2.52-6.35.67-1.33,1.36-2.65,3-2.95Z"/><path class="cls-9" d="M451.81,448.86l-.17-3.84.13-2.56c7.65-.24,2.64,4.8,3.14,7.54Z"/><path class="cls-2" d="M446.67,461.05l-1.22-.92Z"/><path class="cls-13" d="M513.4,447.89c-.16-2.65,2-6.84-3.78-5.83l-2-.43c1.11-2.75,3.91-3.28,6.1-4.61,2-.64,3.67-1.47,4-3.87.28-2.09,1.75-1.51,3-1.15-1.77,4,.15,5.29,3.88,5.78,3.38.44,7.1-1.22,10.13,1.18,1.89,1.5,5.44,2.56,3.55,6-1.61,2.95-4.54,2.84-7.44,1.78a25.51,25.51,0,0,0-4.69-1.48,5.16,5.16,0,0,0-5.51,2.53Z"/><path class="cls-5" d="M487.74,443c.89-1.51,2.47-1.44,3.89-1.71l3,.19c.48,1.22.88,2.47,1.44,3.64,2.8,5.9,1.28,8.73-5.32,9.82l-.66-1.12C491,449.87,489.67,446.38,487.74,443Z"/><path class="cls-14" d="M494.61,441.5l-3-.19c1.86-2.11,3.78-4.17,5.56-6.34,1.58-1.93,3.44-3.07,5.43-1,3,3.09-2.81,1.84-2,4.3,4.35,1.44,8.42-3.86,13-1.24-2.19,1.33-5,1.86-6.1,4.61Z"/><path class="cls-11" d="M487.74,443c1.93,3.36,3.28,6.84,2.33,10.82-3.51,2.42-7.42,2.27-11.38,1.79a2.54,2.54,0,0,0-3.07-.46l-3.16-.67c-.21-3.6,1.83-6.44,3.2-9.5h0C479.87,445.47,483.72,443.71,487.74,443Z"/><path class="cls-14" d="M475.62,455.17a2.54,2.54,0,0,1,3.07.46l-1.06.36Z"/><path class="cls-12" d="M475.66,445c-1.37,3.06-3.41,5.9-3.2,9.5l-2.8-.51c-.84-5.25-5.76-3.15-8.77-5.17A52.74,52.74,0,0,0,475.66,445Z"/><path class="cls-2" d="M354.51,73.08c-1.13-5.83,2.23-7.85,7.2-9,5.86-1.3,6.29-2.35,4.25-7.89-3-8.2-1-13,7.21-16.9a12.56,12.56,0,0,0,4.46-3.92c7.43-9.7,18.5-11.76,29.43-14,3.25-.66,6,1.79,9,2.5C428,26.72,440,29.29,451.67,33.22c3.92,1.32,8.14,2,10.83,5.67-6.77-.19-13.06,2.5-19.67,3.28-3-3.08-7.52-2.25-11-4.29-6.09-3.57-13.09-3.37-19.84-4.11-2.41-.26-3.62,1.26-4.39,3.28a7.7,7.7,0,0,0-5.76,3l-2.17.17c-4-4.47-9-3.72-13.83-2.15-3.2,1-6.13,2.87-6.08,7,0,3.94,2.06,6.53,5.58,8.09,2.13.94,4.33,1.74,6.35,2.88,2.89,1.63,4,4.36,3.81,7.59-.11,2.32-.9,4.52-3.34,5-6.13,1.2-11.58,4.23-17.14,6.66-4,1.74-9.83,1.49-11.39,7.3C360.52,79.46,357,76.76,354.51,73.08Z"/><path class="cls-1" d="M407.6,37c.77-2,2-3.55,4.39-3.28,6.75.74,13.75.54,19.84,4.11,3.48,2,8,1.21,11,4.29A73.23,73.23,0,0,0,424,56.46c-3-1.15-5.54-3.33-8.91-3.45a5.49,5.49,0,0,1-3.53-2.53c.38-3.69.86-7.4-1.76-10.59Z"/><path class="cls-12" d="M411.58,50.48A5.5,5.5,0,0,0,415.11,53c1.55,2.63,4.78,3.92,5.68,7.07-3.44,4.79-6.23,9.86-7.26,15.76a20.74,20.74,0,0,0-3.14,15.81c-3.12-.32-7.56-.29-5.29-5,2.8-5.87,4.23-12.2,7.14-18,3.22-6.44-.06-12-7.2-13.25-1.47-.26-3-.22-4.46-.45-3.35-.52-6-2.11-7.08-5.47-.61-1.87-1.55-4.45.39-5.5,2.24-1.21,2.36,2.05,3.69,3,1.8,4.17,5.08,5.12,9.22,4.3C408.38,50.94,410,50.74,411.58,50.48Z"/><path class="cls-2" d="M420.78,60.08c-.9-3.15-4.13-4.44-5.68-7.07,3.37.12,5.94,2.3,8.91,3.45A7.76,7.76,0,0,1,420.78,60.08Z"/><path class="cls-8" d="M512.69,76.16l-1.75,1.95a20.09,20.09,0,0,1-2.68-8.72C510.85,71.5,511.35,74.12,512.69,76.16Z"/><path class="cls-8" d="M511.46,80l.27,2Z"/><path class="cls-7" d="M354.51,73.08c2.49,3.68,6,6.38,9.11,9.47a16.56,16.56,0,0,0,6.17,7.62c5.39,3.48,8.45,8.67,12.05,13.59,7.59,10.35,12.81,22,18.86,33.2q.34,1.95.69,3.89c-2,0-3.34.53-2.53,2.94.31.95.63,1.9.89,2.86,2.82,10.76-.29,14.24-11.37,15.6a100.47,100.47,0,0,0-24.38,6.2,39.51,39.51,0,0,1-16.46,2.87c-6.78-.28-12.88.76-17.84,5.82-.76.78-2.1,1.64-3,1.51-8.46-1.26-11.66,5.39-16,10.37a87.49,87.49,0,0,0,2,18q0,2,0,4l-.93,12.94c2.77,4.34,7.61,4.37,11.61,4.33,10.06-.11,19.69,3.17,29.73,3a32,32,0,0,1,12.57,2.8c4.29,1.77,9.11,1.79,13.78,1.87,6,.11,12-.24,18,.71,3.49.56,5.12-1,6.63-4.36,4.9-10.9,4.93-22.29,4.59-33.81a13,13,0,0,0-2.19-7c-.8-1.19-2-2.91-.18-3.84s2.55,1.16,3.14,2.43c.84,1.79,1.91,3.73,1.92,5.61.12,16.11,2,32.29-1.61,48.28a3.63,3.63,0,0,0,0,1c-.78,4.52-.7,9.29-3.94,13.07-2.7-3.07-2.23-6.93-2.31-10.5-.1-4.58-2.27-6.14-6.34-5a21.36,21.36,0,0,1-10.79,0c-4.07-.95-7.87-.57-8,5.14a2.65,2.65,0,0,1-5.15,1c-1.62-4.36-5.19-4.71-9-4.61-3.33.08-6.23-.61-8.28-3.59-1.22-1.77-3.27-2.09-5.3-2.38-9.72-1.4-19.6-1.44-29.23-3.62a10.77,10.77,0,0,0-5.41.63,4.11,4.11,0,0,1-4.2-.72c-5.75-5-11.91-5.62-18.29-1.4-2.54,1.68-5.73,1.45-8.54,3.48,3.13,2.46,6.6,1.78,9.7,2.43,2.77.58,5.61.79,8.39,1.31,1.64.31,3.51.82,3.56,2.89s-1.92,2.48-3.54,2.77c-4.27.77-8.51,1.48-12.78-.35-3.21-1.37-6.06-1.44-6,3.38,0,2.4-1.37,3.62-3.56,4.13l-1-4-2-3v-1a3.34,3.34,0,0,0,0-1l.95-4.57c.48-1.76.87-3.55,1.46-5.27a67.09,67.09,0,0,0-46.61-87c-9.87-2.62-19.76-2.56-29.75-1.5-1.14-.22-2.29-.41-3.43-.67s-2.66-.11-2.84-1.54,1.44-1.61,2.42-2.12c1.37-.71,2.75-1.55,3.13-3.06,1.23-4.81,4.78-5.34,8.9-5.28q8.49.14,17-.08c2.65-.07,5.88-.17,5.89-3.85,0-3.5-2.78-4.8-5.84-4.88-8-.2-15.91-1.57-23.93-1.23-1.56.07-3.37.39-4.55-1.21.14-1.44,1.28-1.57,2.2-1.55,12.9.33,25.91-3,38.71,1,6.76,2.14,13.92,3.34,19,9.06,1.9,2.13,4.87,2.3,7.46,2.34,6.87.11,10.37,5.33,14.47,9.39,1.71,1.69,2.7,4.11,5.17,5.11.45.18,1.13.46,1.22.81,1.38,5.84,7,8.33,10,12.88,3.07,4.74,6.49,5.17,10.27.88,1-1.11,2-2.43,3.26-3,3.48-1.49,4.32-4.13,4.47-7.59.34-7.69,1.7-9,9.29-9.05s15-.09,22.48,0c3.74,0,6.85-.78,8.73-4.47,1.7-3.34,5-3.54,8.25-3.5,3.65,0,6.59-.87,7.9-4.68a.82.82,0,0,1,.26-.42c8.05-5,4.94-10.93,1.33-16.8-2.91-4.74-4.47-10.08-8.38-14.53-2.48-2.82-4.44-5.57-7.65-8-3.39-2.55-7.26-5.85-8.24-10.87a6,6,0,0,0-3.48-4.08c-3.65-1.67-6.48-3.32-8-7.86-1-3-6.32-3.41-9.58-5.34-4.71-2.8-7.1-7.87-12.41-10.13-7.45-3.17-14.17-8-22.06-10.37-4.58-1.35-9.59-1-12-7.09-1.29-3.22-6.78-2.69-10.17-4.45-2.27-1.18-4-2.27-4.1-5,8.63,1.68,16.37,5.8,24.52,8.8,7.37,2.72,14.07,6.53,20.89,10.17C329.12,51.31,341.79,62.25,354.51,73.08ZM395.67,133l.25.73-.26-.72c-.36-.92-.5-2-1.87-2.52C393.88,132.1,394.88,132.45,395.67,133Z"/><path class="cls-2" d="M257.64,21.07l-19-3.16c1.74-1.85,3.91-2.59,6.26-1.67a8.91,8.91,0,0,0,6.28-.06C256.19,14.43,257.86,16.35,257.64,21.07Z"/><path class="cls-2" d="M235.71,17.65l-8.2-.78C230.43,15.2,233.14,15.67,235.71,17.65Z"/><path class="cls-16" d="M203.71,145.64c10-1.06,19.89-1.12,29.75,1.5a67.09,67.09,0,0,1,46.61,87c-.59,1.72-1,3.51-1.46,5.27-2.94,2.94-3.61,7.21-6.09,10.43l.15,0-.81,1a86.42,86.42,0,0,1-21.26,19.82l-15,6.21h.06l-1.31,1.1c-6.62-.51-13.13,1.13-19.72,1.12-22.21-2.25-40.26-11.78-53.09-30.39-19.36-28.08-14-66.26,11.79-88.45C182.32,152.64,192.9,149.1,203.71,145.64Zm14,61.93c-3.92-.11-7.44,1.34-10.92,2.88-1.6.71-2.8,1.93-2.41,3.87.34,1.72,1.81,2.23,3.34,2.5a27.59,27.59,0,0,0,11.8-.4C223.36,212.86,222.93,210.75,217.67,207.58Z"/><path class="cls-6" d="M31.67,157c1.24-2.13.65-6.2,5.53-2,2.91,2.52,7.1,3.73,9.24,7.69.69,1.28,2.66,1.19,4.17,1.22,3.33.07,6.66.1,10,.08,3.51,0,6.45.64,8.28,4.26,1.54,3.06,3.66,2.88,5.7.07,4.18-5.74,6.5-5.59,10.38.67,1,1.54,2.14,2.68,3.91,2.72,4.49.12,9,.12,13.46,0a4.2,4.2,0,0,0,4-2.54c1.8-4.57,5.48-5.37,9.75-5.22a13.82,13.82,0,0,1,2,0c10.41,2,17.06-2.05,21.3-11.87,1.65-3.82,4.31-7.3,5.7-11.43,1.32-3.92,2.88-7.91,7.45-9.36a.68.68,0,0,0,.39-.3c4.49-10.34,13.45-5.39,20.76-6.06-3.71,3.3-8.73,3.89-13,6.16-3.87,2.06-6.2,4.1-6.07,8.57.09,3-.93,4.84-4.5,4.05-2.48-.55-3.75,1.09-4.24,3.23-1,4.25-3.62,7.21-6.52,10.35s-5.13,7.31-7,11.31c-1.43,3-.64,6.14,1.68,8.82,1.68,1.94,2.25,4.37.11,6.25s-4.23,1-6.23-.77c-5.16-4.46-9.46-4.05-13.28,1.28-2,2.77-4.1,3.21-5.7.09-1.84-3.58-4.71-4.28-8.25-4.36s-7.31-.38-10.95-.72a7.09,7.09,0,0,1-4.8-2.37c-4.47-5-12.67-5.68-17.38-1-3.26,3.26-5.41,3.13-8-.37-1.55-2.09-3.88-2.4-6.32-2.09a37.79,37.79,0,0,1-7.46.13C35.29,172.86,33.64,164.83,31.67,157Z"/><path class="cls-6" d="M267.66,303c-2.38.1-4.91.2-5.77,3-1.48,4.74-5,5.41-9.12,4.79-3.78-.57-6.2.12-7.57,4.31-1.48,4.54-7.42,5.18-10.53,1.57-4.61-5.36-15.68-6.6-21.38-2.39-4.85,3.59-7.47,3.5-11.86-.33s-9.79-3.79-15.11-3.82c-2.82,0-5.63.49-8.45.74-4,.36-7.29-.49-8.37-5.1-.59-2.53-2.42-3.47-4.91-3.11s-5.47.46-6.49,3.66a6.94,6.94,0,0,0-.37,2.46c.46,7.53-.9,10.85-10.44,10.39-4-.2-5.48,2.28-5.64,6-.13,3.21.87,7.28-3,8.86a19.34,19.34,0,0,1-13.7.14c-4-1.39-3.86-7.28-.2-10.32a107.71,107.71,0,0,0,13.66-13.64,11.36,11.36,0,0,1,3.94-2.95c1-.5,2.35-1,2-2.48s-1.68-1.58-2.84-1.59c-3.82-.06-7.65-.07-11.48.06a4.36,4.36,0,0,0-4.2,3c-1.32,3.85-4.28,4.75-7.89,4.71s-7.33-.07-11,0c-4.43.12-7.08-1.52-10.22-5.23-3.34-3.95-6.74-8.27-11-11.66s-7.88-7.72-11.69-11.72c-.76-.8-1-2.35-2.42-2.14-1.7.26-1.78,1.86-1.83,3.15-.14,4,0,8-.24,12-.3,6.06-2.88,8-8.83,6.55-3.26-.81-6.23-.86-9.08,1.05,0-4,3.16-3.7,5.72-3.93,7.75-.69,8-1,8.32-8.59.15-3.32.62-6.63,1-9.92.25-1.91,1-3.58,3.14-4a5.43,5.43,0,0,1,5.4,1.82c4.85,5.2,10.61,9.64,15.13,14.9C94,297.39,99.2,299.6,102,304.34a5.37,5.37,0,0,0,5.12,2.54c5.92-.14,12.57,2.05,16.32-5.2.41-.79,2-1.28,3.07-1.38,5.3-.49,10.62-.9,15.93-1.14,2.62-.12,5.12.56,5.81,3.6s.26,5.65-2.93,7.15c-1.51.71-3.29,1.44-2.59,3.61.61,1.88,2.42,2.1,4.1,2.27,4.64.46,7.16-1.64,7.71-6.39,0-.33,0-.67.07-1,.47-3.27-1-7.35,3.49-9,4.9-1.77,11.74-.24,14.57,3.62,2,2.7,4.29,4,7.56,3.92,9.11-.31,18,.53,25.86,5.74,1.47,1,2.78.22,4.12-.66,6.8-4.47,20.64-4.41,26.85.34,2.31,1.77,3.84,1.74,5.23-.69,2.08-3.61,5.32-4.79,9.26-4.73a8.42,8.42,0,0,0,6.94-3.28C261.2,300.51,264.38,300.2,267.66,303ZM137.55,324.38c-.23-1,.33-3.2-1.58-3.75s-2.07,1.66-2.7,2.88a7.12,7.12,0,0,1-2.6,2.88c-1.28.81-4,.74-3.34,2.86s3.3,1.65,5.21,1.6C136.35,330.75,137.64,328.38,137.55,324.38Z"/><path class="cls-13" d="M123.62,231.11q0,1.88-.08,3.75a50.25,50.25,0,0,1-15.78,2.27c-2.9.69-5.78,1.5-8.71,2.05-10.66,2-11.06,2-12.5-8.82-1.27-9.5-2.38-19.12-.85-28.75.22-1.36,1.06-4.16,2.06-3,3.44,4,8.62-.54,11.89,3,.45.49,2,.38,2.83.07,6.43-2.39,12.77-.57,19.14.26l.11,3a19.89,19.89,0,0,0-.51,8.05C120.92,219.2,120.81,225.35,123.62,231.11Z"/><path class="cls-6" d="M51.66,307c2.39,2.83,5.27,3.19,8.51,1.7a19.45,19.45,0,0,1,10.71-1.48c1.3.16,3.24.27,3.71,1.09,2.76,4.8,8.69,6.42,11.18,11.37a5.59,5.59,0,0,0,3,3.11c3.75,1.3,5.17,3.92,4.51,7.75A4.73,4.73,0,0,1,89,334.7c-3.58.54-6.15-.7-7.45-4.25-.85-2.32-2.72-3.13-5.06-3.36-6-.59-6.78.67-4.74,6.18,1.26,3.42,2,6.62,6.74,6.4,1.89-.09,2.64,1.73,3,3.47.38,2,.78,3.9,1.17,5.85-1.34.36-2.94.6-3.64-.71-4.17-7.78-13.92-11.1-16.15-20.44-.44-1.85-2.53-2.52-4.08-3.46A6.72,6.72,0,0,1,55.67,319l.53-.54-.54.53-3,1a8.53,8.53,0,0,1-2-6Z"/><path class="cls-7" d="M250.6,270.75a86.42,86.42,0,0,0,21.26-19.82l.81-1-.15,0,3.16,3.14c-1.52,4-3.43,7.42-8.26,8.38-2.2.44-3.95,1.27-1.63,4.63,4.18,6.07,3.22,8-3.48,11.26-.74.36-1.72.68-2.07,1.31-3.76,6.78-10.15,6.62-16.57,6.42,0-1.4.53-3.11-1.72-3.27a1.37,1.37,0,0,0-1.08.77c-.38,2.22,1.49,2.06,2.78,2.51-2.09,3-4.62,3.12-7.18.82-4-3.6-8.94-4.06-13.9-4.34-2.86-.16-5.67-.13-7.91-2.3,6.6,0,13.1-1.63,19.73-1.12L235.7,277h-.06a45.74,45.74,0,0,0,8.32-.83C248.24,275.48,249.61,274.62,250.6,270.75Z"/><path class="cls-11" d="M107.76,237.14a50.27,50.27,0,0,0,15.78-2.27q0,2.07.09,4.13c-8.37,2.58-16.62,5.66-25.39,6.65a24.4,24.4,0,0,0-10.81,3.46c-5.82,3.77-12.34,4.76-19.08,4.86-7.55.1-14.59.87-21,6s-12,2.36-15.57-7l11.92,0c4.59-.23,9.48,1,13.58-1.93a12.59,12.59,0,0,1,8.44-2.16c5,.23,10-.05,14-3.87l0,0c8.63.36,16.58-3.24,25-4.37C106.51,240.38,107.34,238.86,107.76,237.14Z"/><path class="cls-7" d="M121.73,205l-.11-3a5.87,5.87,0,0,0-1.93-5.07c-1.3-2.3-3.48-2.76-5.87-2.91-5.4-.33-10.8-.73-16.2-1.12-3.18-.22-6.28-.62-8-3.86,8.36-.95,16.45.84,24.56,2.42a9.2,9.2,0,0,1,1.48.18c2.42.93,6.11-2.14,7.26,1C124.37,196.57,124.71,201.11,121.73,205Z"/><path class="cls-11" d="M89.62,189.06c1.73,3.24,4.83,3.64,8,3.86,5.4.38,10.8.78,16.2,1.12,2.39.15,4.57.6,5.87,2.91-9,.62-17.73-1.85-26.62-2.62-6.56-.56-13.6-1.14-19.42-5.26l10,.93Z"/><path class="cls-10" d="M293.85,308.76c.1-4.56,6.77-8.31,10.71-6,2.27,1.32,2,4-.72,5.33-2.36,1.14-5,1.72-6.63,4a1.44,1.44,0,0,1-2.19.28C293.9,311.45,293.87,310.09,293.85,308.76Z"/><path class="cls-6" d="M275.68,253l-3.16-3.14c2.48-3.21,3.15-7.48,6.09-10.43l-.95,4.57a3.38,3.38,0,0,0,0,1v1l2,3,1,4Z"/><path class="cls-7" d="M123.62,231.11c-2.81-5.76-2.69-11.91-2.4-18.08,2.54,1.59,2.4,4.17,2.42,6.65C123.67,223.48,123.63,227.3,123.62,231.11Z"/><path class="cls-3" d="M184.1,45.73c-3.16-.14-5-1.75-5.15-4.93-.17-2.78,1.06-4.57,4-4.46s5,1.77,5.28,4.91C188.49,44.14,186.87,45.52,184.1,45.73Z"/><path class="cls-3" d="M247.26,101.41c2.61.11,4,1.33,4,3.72,0,2.22-1,4-3.39,4.13s-3.56-1.56-3.75-3.78A3.47,3.47,0,0,1,247.26,101.41Z"/><path class="cls-13" d="M256.73,411.06c-12.36,1.64-24.62,4.33-37.2,3.51,1.29-2.62,3.72-3.15,6.28-3.32A203.64,203.64,0,0,0,318,382.94a24,24,0,0,1,3.21-1.34l.52.53-6.39,5.53c-2.09.81-4.21,1.58-5.66,3.45l.06,0a5,5,0,0,0-3.08,2h0a11.68,11.68,0,0,0-9,4l0,0c-8.41,2.36-16.74,4.92-24.46,9.14C268.13,409.12,262.21,409.36,256.73,411.06Z"/><path class="cls-12" d="M361.64,346.95q0,1.45,0,2.89c-5.54,4.46-10.72,9.23-14,15.72-.9,2.3-2.89,3.4-4.89,4.49-1.65-.41-2.59.45-3.23,1.82a5.21,5.21,0,0,0-3.94,3.08,7.71,7.71,0,0,0-4,2,9.51,9.51,0,0,0-4,3l-3,1.13-3-.18c3.87-3.48,8.8-5.65,12.15-9.78,8.58-5,15.1-12.37,21.65-19.64C357.12,349.44,358.75,347.34,361.64,346.95Z"/><path class="cls-13" d="M321.52,380.86l3,.18-.22.64-2.56.44-.52-.53A4.2,4.2,0,0,1,321.52,380.86Z"/><path class="cls-15" d="M43.67,253l-11.92,0-1-5c.73-3.11,0-6-1.09-8.92-2.55-11.25-2-22.67-1.91-34.06,2.68-3.26,2.72-7.44,3.65-11.25s2.83-4.49,6.15-3.64a11.66,11.66,0,0,1,5.68,2.94,10.05,10.05,0,0,0,6.18,2.89c5.8.78,6.64,1.86,5.9,7.86a69.22,69.22,0,0,0-.1,17.41c.77,5.94,1.62,11.87,2.16,17.83.57,6.39-2,9.65-8.19,10.92C47,250.42,45,251,43.67,253Z"/><path class="cls-12" d="M43.67,253c1.29-2,3.3-2.57,5.5-3,6.23-1.28,8.77-4.54,8.19-10.92-.53-6-1.39-11.89-2.16-17.83a69.22,69.22,0,0,1,.1-17.41c.74-6-.1-7.08-5.9-7.86a10.05,10.05,0,0,1-6.18-2.89,11.66,11.66,0,0,0-5.68-2.94c-3.32-.86-5.25-.08-6.15,3.64s-1,8-3.65,11.25c0-4-.13-8,0-12,.3-6.88,4.12-9.83,11-8.57,3.75.69,7.41,1.89,11.09,2.84,7.91,2,15.86,1.61,23.83,1.79,5.82,4.12,12.86,4.7,19.42,5.26,8.88.77,17.61,3.24,26.62,2.62a5.87,5.87,0,0,1,1.93,5.06c-6.37-.83-12.71-2.65-19.14-.26-.85.32-2.38.43-2.83-.07-3.27-3.58-8.46,1-11.89-3-1-1.18-1.84,1.63-2.06,3-1.53,9.63-.41,19.25.85,28.75,1.45,10.87,1.84,10.84,12.5,8.82,2.93-.56,5.81-1.36,8.71-2.05-.42,1.72-1.25,3.25-3.12,3.5-8.38,1.13-16.32,4.73-25,4.37,5.85-2.78,6.38-7.41,5.31-13.23A113.64,113.64,0,0,1,83.61,209c.22-5.36.39-10.32-5.29-13.85-7.62-4.73-16.77-1.36-19.17,7.17-3.37,12-.37,23.68.45,35.49.09,1.35.76,3.06,2.08,3.12,3.89.15,6.35,3.5,10,4.05l8,0c-4,3.82-9,4.1-14,3.87a12.59,12.59,0,0,0-8.44,2.16C53.14,254,48.26,252.76,43.67,253Z"/><path class="cls-11" d="M29.65,239.06c1.08,2.89,1.83,5.81,1.09,8.92C29,245.17,28.33,242.24,29.65,239.06Z"/><path class="cls-5" d="M397.69,425.94l-63.48-.17-98.48-.2c-.65-4.19,2.31-6.27,5-8.51,8.47-.64,16.62-2.81,24.74-5.12,6.51-1.29,13-2.64,19.1-5.34,7.16-3.17,14.2-6.14,22.39-4.1,8.76,2.19,17.86-.74,26.67,1.42-.8,3.73-3.58,4.81-6.9,5.41-1.6.29-3.59.91-3.42,3s2.24,1.57,3.61,1.85c20.28,4.22,40.63,7.34,61.49,7.07,8.68-.11,17.35,2.39,26.18,2a4.37,4.37,0,0,1,4.13,2.32Z"/><path class="cls-8" d="M333.62,403.92c-8.81-2.16-17.91.77-26.67-1.42-8.19-2-15.24.92-22.39,4.1-6.09,2.7-12.6,4-19.1,5.34-2.85-.88-5.94.66-8.72-.87,5.49-1.7,11.4-1.94,16.53-4.86,8.64-1.75,17-4.33,24.45-9.14l0,0a13.26,13.26,0,0,0,9-4h0c1.4-.11,2.67-.4,3.08-2l-.06,0c2.26.44,3.84-1.29,5.8-1.81l.1,1.61c-2.67,3.23-2.25,4.65,2.09,5.89,7.29,2.08,14.63,4,22,5.95A11.5,11.5,0,0,1,333.62,403.92Z"/><path class="cls-3" d="M170.65,341c-3.08-.38-7.62.57-8.33-4.84-.46-3.49,2.9-5.3,9.11-5.07,4.05.15,8.35.45,9.35,5.45C181.38,339.56,177.95,341,170.65,341Z"/><path class="cls-6" d="M151.28,334.81c-4-.26-5.6-2.57-5.39-6.32.23-4,2.7-5.49,6.42-5.25s5.25,2.52,5.15,6C157.35,333.23,155,334.87,151.28,334.81Z"/><path class="cls-12" d="M365.57,339.73c1.4,3.9-.35,6.08-4,7.25l1.12-3,.87-2Z"/><path class="cls-7" d="M363.62,342l-.87,2A2,2,0,0,1,363.62,342Z"/><path class="cls-12" d="M311.74,223.94l.93-12.94c3,1.22,4.58,3.61,5.7,6.54s3.78,3.48,6.62,3.27c2.2-.16,4.08-1.16,4.26-3.46.65-8.46,1.07-16.94-.89-25.31-.57-2.45-2.57-3.34-4.89-3.53-2.61-.22-4.09,1.25-4.68,3.57-.78,3.06-1.45,6.15-2,9.26-.44,2.65-1.37,4.79-4.15,5.66a87.49,87.49,0,0,1-2-18c12.22-3.1,24.55-5.82,36.62-9.44a124.19,124.19,0,0,1,20-3.89c6.09-.78,10.76,3.56,14.78,7.93,1.17,1.28,1.8,3.7,4.09,2.79,1.83-.72,1.21-2.86,1.47-4.46.47-2.89-1.35-7.7,2.77-8,4.63-.29,3.08,4.95,3.95,7.84,4.24,14.2,3.67,28.55,1.41,43-.68,4.34-2.52,6.21-6.77,6.11-17.27-.4-34.5-.92-51.64-3.78C328.93,225.77,320.27,225.29,311.74,223.94Z"/><path class="cls-8" d="M442.67,137.88a30.1,30.1,0,0,0-4.3,3.4c-5.76,6.52-12.84,8-20.8,5.35-5.3-1.78-7.72,2.86-11.5,4.44l-1.54-4c4.5-5.63,10.28-6.74,17.17-5.64,3.9.62,7.83-.84,11.24-3.08C436.11,136.24,439.33,135.82,442.67,137.88Z"/><path class="cls-13" d="M409.69,179.92c1.85,1.81,2.18,3.93,1.4,7.69Z"/><path class="cls-13" d="M407.79,166.88c.84,2.11,1.88,4.18,1.29,7.23-1.62-2.54-1.37-4.84-1.5-7.06Z"/><path class="cls-13" d="M407.58,167.05l-.09-.93.3.76Z"/><path class="cls-3" d="M409.64,244.94a3.63,3.63,0,0,1,0-1Q409.67,244.45,409.64,244.94Z"/><path class="cls-4" d="M363.81,364a41.24,41.24,0,0,1,4.12,3.56c4.71,5.24,4.61,7.81-.61,12.54s-10.46,9.2-15.7,13.79c-2.48,1.38-4.29.84-5.67-1.73-1.63-3-4-5.69-4.62-9.21C349.27,377.13,356.44,370.44,363.81,364Z"/><path class="cls-1" d="M339.63,402.73c-7.32-2-14.66-3.87-22-5.95-4.34-1.24-4.76-2.66-2.09-5.89l11.85-7c2.29,2.37,4.52,4.9,8.36,3.11,4.58,3.27,6.58,8.38,9.27,13l.44,1a3.39,3.39,0,0,0,0,1C343.73,403.49,341.64,402.82,339.63,402.73Z"/><path class="cls-16" d="M363.81,364c-7.37,6.46-14.54,13.16-22.47,19l-2.63,0L337,381.24c8.15-7.31,15.69-15.33,25.05-21.2C364.33,360.63,363.65,362.49,363.81,364Z"/><path class="cls-1" d="M362.1,360c-9.36,5.87-16.91,13.89-25.05,21.2l-1.64-1.37,3.24-4.94-.05.07a3.87,3.87,0,0,0,1.82-2.59l2.36-2.36c2-1.1,4-2.19,4.89-4.49,4.78-2.13,7.16-7.76,12.73-8.74Z"/><path class="cls-5" d="M338.71,383l2.63,0c.65,3.52,3,6.18,4.61,9.21,1.38,2.56,3.18,3.11,5.67,1.73,1.5,6-2.81,5.75-6.56,6.12-2.69-4.62-4.7-9.73-9.27-13C335.73,384.89,337.61,384.2,338.71,383Z"/><path class="cls-12" d="M397.69,425.94l21-.45,7.93.4C420.25,430.2,403.27,430.23,397.69,425.94Z"/><path class="cls-7" d="M360.4,356.82c-5.57,1-7.95,6.61-12.73,8.74,3.26-6.48,8.43-11.26,14-15.72q0,2.57,0,5.14Z"/><path class="cls-8" d="M345.55,402a3.39,3.39,0,0,1,0-1Q345.53,401.5,345.55,402Z"/><path class="cls-2" d="M464.74,255.12l4.55-4.38c-.85,4.63-3,8.82-5.07,12.9-8.1,16-16.59,31.71-24.9,47.56a6.09,6.09,0,0,1-3.91,3.54c1.55-4.66,4.66-8.73,5.18-13.78h0c2.64-2,3.52-4.87,4.12-7.91l2.74-5.1,1.16-2.94h0c2.81-1.94,3.94-4.87,4.68-8l4.25-8a5.38,5.38,0,0,0,2-4l1.89-3a10.1,10.1,0,0,0,3-6Q464.65,255.54,464.74,255.12Z"/><path class="cls-5" d="M453.33,277c-.74,3.15-1.86,6.08-4.68,8A10.33,10.33,0,0,1,453.33,277Z"/><path class="cls-5" d="M464.52,256a10.1,10.1,0,0,1-3,6C459.24,258.31,462.22,257.3,464.52,256Z"/><path class="cls-5" d="M444.74,293c-.61,3-1.49,5.93-4.12,7.91C441.25,297.91,442,294.95,444.74,293Z"/><path class="cls-5" d="M459.59,265a5.38,5.38,0,0,1-2,4C457.18,267.08,458.08,265.88,459.59,265Z"/><path class="cls-5" d="M448.65,285l-1.16,2.94A2.56,2.56,0,0,1,448.65,285Z"/><path class="cls-2" d="M479.67,246.41c6-1,12.22-1.79,18.23-1,7.22.95,15.9,12.34,13.58,19-1.78,5.09-3.33,11-7.84,15-2.87,2.54-3.64.6-4.25-1.85-.26-1.05.33-2.62-1.22-2.92-1.3-.26-2.16,1-2.7,1.91-5,8.8-13.25,15.7-14.91,26.56-.74,4.86-3.41,9.34-6.21,13.53-.55.82-1.3,1.89-.39,2.68,1.27,1.1,2.22-.16,2.81-1,2.56-3.88,5.57-7.5,7.09-12,1.62-4.8,4.63-8.83,7.31-13,1.24-1.94,3.07-3.29,5.45-1.59a4,4,0,0,1,1.39,5.67c-5.75,10.86-10.91,22.1-17.47,32.44a115.73,115.73,0,0,0-8.35,15c-3.88,8.72-11.93,10.73-20.56,11.23-2.42-2.72-1.28-5.38.47-7.7,3.84-5.06,4.88-11.51,8.63-16.67a12.14,12.14,0,0,0,2.08-9.55c-.59-2.73,0-4.47,2.74-5.47a4.75,4.75,0,0,0,3.3-4.58c0-2.45-2.05-2.8-3.77-3.29-5.82-1.65-5.55-6.23-5.46-10.86s2.5-8.4,6.53-8c9.26.89,13.55-3.93,18.1-10.93,5.58-8.6,7.4-18.39-1.07-24.74A8.12,8.12,0,0,1,479.67,246.41Z"/><path class="cls-8" d="M479.67,246.41a8.12,8.12,0,0,0,3.51,7.74c8.46,6.35,6.64,16.14,1.07,24.74-4.54,7-8.84,11.82-18.1,10.93-4-.39-6.44,3.51-6.53,8s-.36,9.21,5.46,10.86c1.72.49,3.81.84,3.77,3.29a4.75,4.75,0,0,1-3.3,4.58c-2.77,1-3.33,2.75-2.74,5.47a12.14,12.14,0,0,1-2.08,9.55c-3.75,5.16-4.79,11.61-8.63,16.67-1.75,2.31-2.89,5-.47,7.7-6.46-.31-10.9-4.13-15-8.61-2.09-4.18-4.19-8.36-3.94-13.24,2.8-13.8,11.52-24.85,17.4-37.22,6.76-14.22,15.24-27.56,21.69-42C473.39,251.38,475.61,247.91,479.67,246.41Z"/><path class="cls-2" d="M432.73,334.11c-.25,4.88,1.85,9.06,3.94,13.24L434.44,350c-5.49-4.48-6-10.47-5.2-16.89Z"/><path class="cls-2" d="M443.63,358.37a2.27,2.27,0,0,1-2.16-1.16Z"/><path class="cls-2" d="M473.89,222.53c-4.31,2.53-7.94,1.08-11-2.17s-1.93-6.57.43-9.76a14.32,14.32,0,0,0,1.25-2.65l.14-2.95a14.1,14.1,0,0,0,.85-5.92c3.24,2.37,2.19,5.75,1.68,8.69C465.66,216.9,466,218,473.89,222.53Z"/><path class="cls-5" d="M465.55,199.08a14.1,14.1,0,0,1-.85,5.92c-2.47-1.18-2.94-3.42-3.09-5.83l1.22-.41Z"/><path class="cls-1" d="M400.7,137c-6-11.2-11.27-22.85-18.86-33.2-3.61-4.92-6.67-10.11-12.05-13.59a16.56,16.56,0,0,1-6.17-7.62c1.56-5.8,7.41-5.55,11.39-7.3,5.57-2.44,11-5.46,17.14-6.66,2.44-.48,3.24-2.68,3.34-5,.15-3.23-.93-6-3.81-7.59-2-1.14-4.22-1.94-6.35-2.88-3.51-1.56-5.53-4.15-5.58-8.09-.05-4.12,2.87-5.95,6.08-7,4.84-1.57,9.81-2.32,13.83,2.15a19.05,19.05,0,0,0,.17,6.73l-2.26,0c-1.33-1-1.44-4.24-3.68-3-1.94,1-1,3.63-.39,5.5,1.11,3.37,3.74,5,7.08,5.47,1.47.23,3,.19,4.46.45,7.14,1.28,10.42,6.8,7.2,13.25-2.91,5.83-4.34,12.15-7.14,18-2.27,4.75,2.17,4.72,5.29,5,.53,12.93,4.74,24.27,14,33.67,4,4.11,3,7.08-2.64,8.92a14.7,14.7,0,0,1-9.82.09C407.43,132.65,403.83,133.46,400.7,137Z"/><path class="cls-2" d="M516,102.31c.79-4.38,5.63-1.78,7.63-4.28.15-.19,1.06,1.8,1.29,2.9a2.51,2.51,0,0,1-2.26,3.24,12.55,12.55,0,0,1-7.31-.75Z"/><path class="cls-7" d="M513.4,447.89l7.23-.08c-2,6.08-5,.91-7.53.68A.85.85,0,0,1,513.4,447.89Z"/><path class="cls-11" d="M124.71,449c-.2.74,0,1.89-1,2s-.92-1.08-1.13-1.8Z"/><path class="cls-11" d="M428.66,434h0Z"/><path class="cls-14" d="M410.68,442c-.67,1.18-1.93.83-2.93,1.14A2.31,2.31,0,0,1,410.68,442Z"/><path class="cls-8" d="M407.6,37l2.21,2.84a9.44,9.44,0,0,1-3.07,4.92c-2.81-.4-4.61-1.82-4.9-4.79A7.7,7.7,0,0,1,407.6,37Z"/><path class="cls-15" d="M401.84,40c.29,3,2.09,4.39,4.9,4.79-1.57,3.08-4.06,3.17-6.9,2.11a19.05,19.05,0,0,1-.17-6.73Z"/><path class="cls-2" d="M399.84,46.92c2.84,1.06,5.33,1,6.9-2.11a9.44,9.44,0,0,0,3.07-4.92c2.63,3.19,2.14,6.9,1.77,10.59-1.59.26-3.2.46-4.78.78-4.14.82-7.42-.14-9.22-4.3Z"/><path class="cls-14" d="M312.68,207c2.78-.87,3.7-3,4.15-5.66.52-3.11,1.19-6.21,2-9.26.59-2.32,2.07-3.79,4.68-3.57,2.32.19,4.32,1.08,4.89,3.53,2,8.37,1.53,16.85.89,25.31-.18,2.31-2.06,3.3-4.26,3.46-2.83.21-5.48-.3-6.62-3.27s-2.7-5.32-5.7-6.54Q312.68,209,312.68,207Z"/><path class="cls-11" d="M395.67,133c-.79-.54-1.79-.9-1.88-2.51,1.37.48,1.51,1.6,1.87,2.52Z"/><path class="cls-3" d="M279.66,249l-2-3Z"/><path class="cls-11" d="M395.66,133l.26.72-.25-.73Z"/><path class="cls-3" d="M277.66,245a3.38,3.38,0,0,1,0-1A3.34,3.34,0,0,1,277.66,245Z"/><path class="cls-1" d="M219.47,216.43a27.59,27.59,0,0,1-11.8.4c-1.53-.27-3-.78-3.34-2.5-.39-1.94.81-3.17,2.41-3.87,3.48-1.54,7-3,10.92-2.88C214.24,211.35,215,214.26,219.47,216.43Z"/><path class="cls-2" d="M219.47,216.43c-4.45-2.17-5.24-5.08-1.81-8.86C222.93,210.75,223.36,212.86,219.47,216.43Z"/><path class="cls-6" d="M250.6,270.75c-1,3.87-2.36,4.72-6.64,5.38a45.74,45.74,0,0,1-8.32.83Z"/><path class="cls-6" d="M235.7,277l-1.31,1.09Z"/><path class="cls-6" d="M272.67,249.9l-.81,1Z"/><path class="cls-3" d="M137.55,324.38c.08,4-1.21,6.36-5,6.46-1.91,0-4.51.67-5.21-1.6s2.06-2.05,3.34-2.86a7.12,7.12,0,0,0,2.6-2.88c.63-1.22.73-3.44,2.7-2.88S137.32,323.37,137.55,324.38Z"/><path class="cls-3" d="M55.67,319l.54-.53-.53.54Z"/><path class="cls-3" d="M243.66,285c-1.29-.45-3.16-.29-2.78-2.51a1.37,1.37,0,0,1,1.08-.77c2.25.16,1.72,1.87,1.72,3.27Z"/><path class="cls-15" d="M297.71,397.06c-7.49,4.82-15.82,7.39-24.45,9.14C281,402,289.3,399.43,297.71,397.06Z"/><path class="cls-11" d="M321.74,382.12l2.56-.44,1.05,1.06a47.2,47.2,0,0,1-9.3,5.65l-.71-.75Z"/><path class="cls-15" d="M306.7,393.08a13.26,13.26,0,0,1-9,4A11.68,11.68,0,0,1,306.7,393.08Z"/><path class="cls-11" d="M315.49,389.29c-2,.52-3.54,2.25-5.8,1.81,1.45-1.87,3.57-2.64,5.66-3.45l.7.74Z"/><path class="cls-11" d="M309.75,391.06c-.41,1.62-1.68,1.91-3.08,2A5,5,0,0,1,309.75,391.06Z"/><path class="cls-11" d="M335.62,374.95a5.21,5.21,0,0,1,3.94-3.08l.44.53L338.6,375l.05-.07-2.69.45Z"/><path class="cls-11" d="M327.57,379.9a9.53,9.53,0,0,1,4-3l.9,1-4.1,2.93Z"/><path class="cls-11" d="M342.78,370l-2.36,2.36H340l-.44-.53C340.2,370.49,341.13,369.64,342.78,370Z"/><path class="cls-11" d="M331.6,376.91a7.71,7.71,0,0,1,4-2l.34.43-3.45,2.5Z"/><path class="cls-11" d="M324.31,381.68l.22-.64,3-1.13.83.89-3,1.94Z"/><path class="cls-13" d="M83.61,209A113.64,113.64,0,0,0,85,231.78c1.08,5.82.54,10.45-5.31,13.23l0,0-8,0c-4.44-8.32-6.48-16.93-3.39-26.24a3.92,3.92,0,0,0-.08-2.93c-3.44-5.43.79-9.59,2.32-14.11a4.82,4.82,0,0,1,5.19-3.18c2.78.49,2,3.23,1.61,5C76,209.41,79.56,209.43,83.61,209Z"/><path class="cls-15" d="M83.61,209c-4.05.42-7.57.39-6.29-5.5.38-1.74,1.17-4.48-1.61-5a4.82,4.82,0,0,0-5.19,3.18c-1.53,4.52-5.76,8.68-2.32,14.11a3.92,3.92,0,0,1,.08,2.93c-3.1,9.31-1.05,17.92,3.39,26.24-3.63-.55-6.09-3.9-10-4.05-1.32-.05-2-1.77-2.08-3.12-.83-11.81-3.83-23.53-.45-35.49,2.4-8.53,11.56-11.9,19.17-7.17C84,198.69,83.83,203.65,83.61,209Z"/><path class="cls-2" d="M325.36,382.74l3-1.94,4.1-2.93,3.45-2.5,2.69-.45-3.24,4.94-8,4-11.85,7-.1-1.61.57-.9A47.2,47.2,0,0,0,325.36,382.74Z"/><path class="cls-12" d="M327.44,383.87l8-4,1.64,1.37,1.67,1.72c-1.11,1.24-3,1.93-2.91,4C332,388.77,329.73,386.24,327.44,383.87Z"/><path class="cls-2" d="M340,372.4h.43A3.87,3.87,0,0,1,338.6,375Z"/></svg>