<?xml version="1.0" encoding="utf-8"?>
<!-- Generator: Adobe Illustrator 21.0.2, SVG Export Plug-In . SVG Version: 6.00 Build 0)  -->
<svg version="1.1" id="Layer_1" xmlns="http://www.w3.org/2000/svg" xmlns:xlink="http://www.w3.org/1999/xlink" x="0px" y="0px"
	 width="394.5px" height="394.5px" viewBox="0 0 394.5 394.5" style="enable-background:new 0 0 394.5 394.5;" xml:space="preserve"
	>
<style type="text/css">
	.st0{clip-path:url(#SVGID_2_);}
	.st1{fill:#222222;}
	.st2{fill:#1F1F1F;}
	.st3{fill:#212121;}
	.st4{fill:#262626;}
	.st5{fill:#6A6A6A;}
	.st6{fill:#767676;}
	.st7{fill:#2E2E2E;}
	.st8{fill:#3C3C3C;}
	.st9{fill:#8B8B8B;}
	.st10{fill:#787878;}
	.st11{fill:#404040;}
	.st12{fill:#363636;}
	.st13{fill:#525252;}
	.st14{fill:#383838;}
	.st15{opacity:0;fill:#FFFFFF;}
	.st16{fill:#777777;}
	.st17{fill:#7C7C7C;stroke:#2D2D2D;stroke-width:12;stroke-miterlimit:10;}
</style>
<title>vinyldisc</title>
<g>
	<defs>
		<circle id="SVGID_1_" cx="197" cy="197.1" r="196"/>
	</defs>
	<clipPath id="SVGID_2_">
		<use xlink:href="#SVGID_1_"  style="overflow:visible;"/>
	</clipPath>
	<g class="st0">
		<path class="st1" d="M215.4-0.3l3,0.3l19,3.2l11.2,3.4c0.1,2.7,1.8,3.8,4.1,5c3.4,1.8,8.9,1.2,10.2,4.5c2.4,6.1,7.4,5.7,12,7.1
			c7.9,2.3,14.6,7.2,22.1,10.4c5.3,2.3,7.7,7.3,12.4,10.1c3.2,1.9,8.6,2.3,9.6,5.3c1.5,4.5,4.4,6.2,8,7.9c1.7,0.7,3,2.2,3.5,4.1
			c1,5,4.8,8.3,8.2,10.9c3.2,2.4,5.2,5.2,7.6,8c3.9,4.4,5.5,9.8,8.4,14.5c3.6,5.9,6.7,11.8-1.3,16.8c-0.1,0.1-0.2,0.3-0.3,0.4
			c-1.3,3.8-4.3,4.7-7.9,4.7c-3.2,0-6.5,0.2-8.2,3.5c-1.9,3.7-5,4.5-8.7,4.5c-7.5-0.1-15-0.1-22.5,0c-7.6,0.1-9,1.4-9.3,9
			c-0.1,3.4-1,6.1-4.5,7.6c-1.3,0.6-2.3,1.9-3.3,3c-3.8,4.3-7.2,3.9-10.3-0.9c-3-4.6-8.6-7-10-12.9c-0.1-0.4-0.8-0.6-1.2-0.8
			c-2.5-1-3.5-3.4-5.2-5.1c-4.1-4.1-7.6-9.3-14.5-9.4c-2.6,0-5.6-0.2-7.5-2.3c-5.1-5.7-12.3-6.9-19-9.1c-12.8-4-25.8-0.7-38.7-1
			c-0.9,0-2.1,0.1-2.2,1.6c1.2,1.6,3,1.3,4.6,1.2c8-0.3,15.9,1,23.9,1.2c3.1,0.1,5.9,1.4,5.8,4.9c0,3.7-3.2,3.8-5.9,3.9
			c-5.7,0.2-11.3,0.2-17,0.1c-4.1-0.1-7.7,0.5-8.9,5.3c-0.4,1.5-1.8,2.4-3.1,3.1c-1,0.5-2.6,0.6-2.4,2.1s1.8,1.3,2.8,1.5
			s2.3,0.4,3.4,0.7c-10.8,3.5-21.4,7-30.4,14.7c-25.8,22.2-31.1,60.4-11.8,88.4c12.8,18.6,30.9,28.1,53.1,30.4
			c2.2,2.2,5,2.1,7.9,2.3c5,0.3,9.9,0.7,13.9,4.3c2.6,2.3,5.1,2.2,7.2-0.8l0,0c6.4,0.2,12.8,0.4,16.6-6.4c0.4-0.6,1.3-1,2.1-1.3
			c6.7-3.2,7.7-5.2,3.5-11.3c-2.3-3.4-0.6-4.2,1.6-4.6c4.8-1,6.7-4.4,8.3-8.4h5c2.2-0.5,3.6-1.7,3.6-4.1c-0.1-4.8,2.8-4.8,6-3.4
			c4.3,1.8,8.5,1.1,12.8,0.4c1.6-0.3,3.6-0.6,3.5-2.8s-1.9-2.6-3.6-2.9c-2.8-0.5-5.6-0.7-8.4-1.3c-3.1-0.6-6.6,0-9.7-2.4
			c2.8-2,6-1.8,8.5-3.5c6.4-4.2,12.5-3.6,18.3,1.4c1.2,1,2.8,1.3,4.2,0.7c1.7-0.7,3.6-0.9,5.4-0.6c9.6,2.2,19.5,2.2,29.2,3.6
			c2,0.3,4.1,0.6,5.3,2.4c2,3,5,3.7,8.3,3.6c3.8-0.1,7.4,0.3,9,4.6c0.5,1.4,2,2.1,3.4,1.6c1.1-0.4,1.8-1.5,1.8-2.6
			c0.1-5.7,3.9-6.1,8-5.1c3.5,0.9,7.3,0.9,10.8,0c4.1-1.1,6.2,0.5,6.3,5c0.1,3.6-0.4,7.4,2.3,10.5c-0.8,3.4,0.9,7.7-2.3,10.2
			c-4.3,3.4-5,7.8-4.7,12.7c-2.7-1.4-4.9-6.9-8.4-2.1c-4.5,6.1-11.5,8.2-17.6,11.1c-8.5,4-17.1,7.1-22.4,15.5
			c-0.9,1.5-2.2,1.8-3.1,0.2c-2.6-4.4-5-3.4-7.6,0c-1.1,1.3-2.6,2.1-4.2,2.5c-3.7,1.1-7,3.1-9.7,5.9c-3,3.1-6.6,4.1-10.9,3.7
			c-12-1.1-12.1-1.1-14.3,10.4c-1,5.2-4.8,5.8-9,5.7s-8.1-0.9-8.4-5.8c-0.5-7.8-1.8-15.5-1.3-23.4c0.1-2.2,0.6-4.3,2.8-5.5
			c1.1-0.6,3.1-0.8,2.6-2.5c-0.6-1.9-2.5-1.1-3.9-1c-1.7,0.2-3.8,0.4-4.4,2c-2.2,5.3-6.5,5.5-11.1,5.2c-3.3-2.8-6.5-2.5-9.2,0.7
			c-1.7,2.2-4.3,3.4-7,3.3c-3.9-0.1-7.2,1.1-9.3,4.7c-1.4,2.4-2.9,2.5-5.2,0.7c-6.2-4.8-20-4.8-26.9-0.3c-1.3,0.9-2.6,1.6-4.1,0.7
			c-7.9-5.2-16.8-6-25.9-5.7c-3.3,0.1-5.6-1.2-7.6-3.9c-2.8-3.9-9.7-5.4-14.6-3.6c-4.5,1.6-3,5.7-3.5,9c0,0.3,0,0.7-0.1,1
			c-0.6,4.7-3.1,6.9-7.7,6.4c-1.7-0.2-3.5-0.4-4.1-2.3c-0.7-2.2,1.1-2.9,2.6-3.6c3.2-1.5,3.6-4.2,2.9-7.1s-3.2-3.7-5.8-3.6
			c-5.3,0.2-10.6,0.6-15.9,1.1c-1.1,0.1-2.7,0.6-3.1,1.4c-3.8,7.3-10.4,5.1-16.3,5.2c-2.1,0.2-4-0.8-5.1-2.5c-2.8-4.8-8-7-11.6-11.1
			c-4.5-5.3-10.3-9.7-15.1-14.9c-1.3-1.6-3.4-2.3-5.4-1.8c-2.1,0.5-2.9,2.1-3.1,4c-0.4,3.3-0.9,6.6-1,9.9c-0.3,7.6-0.6,7.9-8.3,8.6
			c-2.6,0.2-5.7-0.1-5.7,3.9c0,1.3,0,2.7,0,4l-1,7l-4.5,0.1l-1.6-2.1l0.6-0.7h-0.8c-12.9-22.9-20.9-48.2-23.7-74.3
			c3.7,4,3.2,9.2,4.2,14.1c0.8,3.8,0.1,8.8,6.3,8.9c1.3,0,1.9,1.7,2.6,2.9c3.5,6.2,11.4,8.3,17.5,4.8c0.1-0.1,0.2-0.1,0.3-0.2
			c6.2-3.6,12.2-7.1,19.9-6.8c4.4,0.1,8.7-1.1,12.4-3.4c7.4-4.4,15.3-5.2,23.6-4.6c3.9,0.3,15.4-8,16.3-11.8c0-0.7,0-1.4-0.2-2
			c0-1.4,0-2.8-0.1-4.1l0.1-3.8c0-3.8,0.1-7.6,0-11.4c0-2.5,0.1-5.1-2.4-6.6c-0.4-2.7-0.2-5.4,0.5-8.1c3-3.9,2.6-8.4,1.2-12.3
			c-1.2-3.1-4.8,0-7.3-1c-0.5-0.1-1-0.2-1.5-0.2c-8.1-1.6-16.2-3.4-24.6-2.4l-5.9,0.9c-0.3-2.4-2.1-4.3-4.4-4.8
			c-5.5-1.3-11-2.9-16.7-1.9c-1.8,0.5-3.7,0.3-5.4-0.4c-9.9-5.3-20.3-8-31.6-6.8c-0.3,0-0.7-0.1-1-0.1L7,141.9l0.9-3l3.3,0.1
			c2,7.8,3.6,15.9,14.1,16.6c2.5,0.2,5,0.2,7.5-0.1c2.4-0.3,4.8,0,6.3,2.1c2.6,3.5,4.8,3.6,8,0.4c4.7-4.7,12.9-4,17.4,1
			c1.2,1.4,3,2.2,4.8,2.4c3.6,0.4,7.3,0.6,10.9,0.7s6.4,0.8,8.2,4.4c1.6,3.1,3.7,2.7,5.7-0.1c3.8-5.3,8.1-5.7,13.3-1.3
			c2,1.7,4.1,2.6,6.2,0.8s1.6-4.3-0.1-6.2c-2.3-2.7-3.1-5.8-1.7-8.8c1.9-4,4.1-8.1,7-11.3s5.5-6.1,6.5-10.4c0.5-2.1,1.8-3.8,4.2-3.2
			c3.6,0.8,4.6-1.1,4.5-4.1c-0.1-4.5,2.2-6.5,6.1-8.6c4.3-2.3,9.3-2.9,13-6.2h2c3.6-0.5,5-4.4,8.4-5.2c3.2-0.8,4-3,3.8-6.1
			c-0.3-7.3-0.5-14.7,0.6-22c0.6-4-0.5-7.2-4.7-8.8c-2.9-1.2-2.9-3.2-0.2-4.6c2.3-1.1,3.9-3.1,4.5-5.6c0.3-1.7,1.7-3,3.4-3.2
			c2.2-0.2,3.5,1.1,4.1,2.9c1.1,3.1,3.3,4.4,6.5,4.5c1.7,0,3.3,0.1,5,0.3c2.4,0.3,4.3,1.3,4.1,4c-0.1,2.5-1.9,3.4-4.1,3.6
			c-2.5,0.3-5,0.3-7.4,0.7c-2,0.3-3.4,1.6-3.3,3.8c0.1,1.8,1.5,3.2,3.3,3.3c2.1,0.3,4.3,0.4,6.5,0.6s4.5,0.5,5,3.2s-1.2,3.9-3.4,4.8
			c-4.7,1.9-4.2,5.9-3.9,9.8s3,4.8,6.2,5.3c7.7,1.4,15.4-0.3,23.2,0.1c6.9,0.4,13.9,0.8,20.9,0.7c3.1,0,5,1.5,5.6,4.6
			c0.4,2,1.2,3.9,3.3,4.7c4.8,1.7,9.7,7.2,14.1-0.7c0.4-0.7,1.8-0.8,2.7-1.3c3.8-2.1,3.9-4.8,0.2-7.1c-5.6-3.5-5.6-5.3,0.3-8.8
			c1.5-0.9,2.8-1.9,2.6-3.9c-0.2-2.2-1.9-3.1-3.8-3.4s-4-0.3-6-0.4s-4.2-0.5-4.9-2.7c-0.7-2.8-2.9-5-5.7-5.7
			c-1.7-0.5-2.7-2.2-2.4-3.9c0.1-1.6,1.3-2.9,2.8-3.1c1.9-0.3,3.6,0.3,4.1,2.1c1.9,6.7,7,5.4,11.8,5.1c1.9-0.1,3.6-1,4.1-3.1
			s-0.9-3.4-2.7-4.2s-3.8-1.4-3.9-3.5c-0.3-6.3-2.3-10.8-7.3-15.6c-3.5-3.3-6.4-5.4-10.8-6.1c-1.6-0.2-3.3-0.6-4.8-1.2
			c-1.4-0.6-1.9-1.9-0.5-3.2c3.1-2.9,12.7-2,14.8,1.7c1.2,2.3,3.6,3.6,6.1,3.4c3.2,0,6.3,0.1,9.5,0c4-0.1,7.7,0.3,9.1,5
			c0.5,1.5,1.9,2.5,3.5,2.3c1.9-0.2,2.8-1.5,3.4-3.2c2.4-7.4-0.5-11.9-8.1-12c-4.9,0-7.4-1.8-7.7-6.9c-0.4-6.3-4.4-9.8-10.7-11
			c-1.8-0.3-3.9-0.6-5.1-1.8c-5.2-4.8-11.5-4.4-17.9-4.5c-6.8,0-13.8,0.3-20.3-1.2c-8.4-1.8-17.2-2-25.7-0.4
			c-11.2,1.8-22.5,5.2-34,1.4c-1.8-0.7-3.7-0.4-5.3,0.6c-4.9,3.3-9.5,2.1-14.1-0.6l1.3-1.6c22.7-7,46.4-10.4,70.2-10.3l5.8,0.1
			L215.4-0.3z M273.5,290.9c0,1.3,0,2.7,1.2,3.6c0.6,0.5,1.5,0.5,2-0.1c0.1-0.1,0.1-0.1,0.2-0.2c1.7-2.3,4.3-2.9,6.6-4
			c2.8-1.3,3-4,0.7-5.3C280.2,282.5,273.6,286.3,273.5,290.9L273.5,290.9z"/>
		<path class="st2" d="M11.3,139.1L8,139c8.6-29.7,24.2-56.8,45.4-79.2c14.2-15,30.7-27.7,48.9-37.4c1.9-1,3.9-1.8,5.9-2.6
			c2.1,2,3.3,1.2,4.1-1.2l0.7-0.7c1.8,1,3.4,3.2,5.7,1.8c2.9-1.6,5.7-1,8.6-0.6c7.7-1.4,15.3-3.8,23.2-0.1c2.5,1.2,4.1,2.1,4.9,4.9
			c1.6,5.5,1.1,11.3,2.7,16.7c3.2,11-2.1,10.8-9.9,10.4c-3.2-0.2-4.5-2.4-5.8-4.8c-0.7-1.6-2.4-2.5-4.1-2.2c-1.9,0.4-2.7,2-2.8,3.7
			c-0.2,3.7-0.1,7.3-0.2,11c-0.1,4.1,0.5,7.7,5.3,8.9c1.3,0.3,2,1.6,2.7,2.8c4,6.5,11.6,6.8,16.1,0.5c1.1-1.5,2.1-2.6,4.1-2.2
			c1.2,0.2,2.1,1.2,2.2,2.4c0.3,1.5-0.5,3.1-2,3.7c-3.8,1.8-4.5,5.1-4.4,8.7s-0.6,6.3-4.4,8.1c-3.1,1.4-3.6,5.7-0.7,7.4
			c4.3,2.6,3.1,5.1,1.1,8.1h-2c-7.3,0.7-16.3-4.3-20.8,6.1c-0.1,0.1-0.2,0.3-0.4,0.3c-4.6,1.5-6.1,5.4-7.4,9.4
			c-1.4,4.1-4.1,7.6-5.7,11.4c-4.2,9.9-10.9,13.9-21.3,11.9c-0.7,0-1.3,0-2,0c-4.3-0.2-7.9,0.6-9.8,5.2c-0.7,1.6-2.3,2.6-4,2.5
			c-4.5,0.1-9,0.1-13.5,0c-1.8,0-3-1.2-3.9-2.7c-3.9-6.2-6.2-6.4-10.4-0.7c-2,2.8-4.2,3-5.7-0.1c-1.8-3.6-4.8-4.3-8.3-4.3
			c-3.3,0-6.7,0-10-0.1c-1.5,0-3.5,0.1-4.2-1.2c-2.1-4-6.3-5.2-9.2-7.7C12,132.9,12.6,137,11.3,139.1z"/>
		<path class="st3" d="M155.3,107.1c2-3,3.2-5.6-1.1-8.1c-2.8-1.7-2.3-6,0.7-7.4c3.8-1.7,4.5-4.5,4.4-8.1s0.5-7,4.4-8.7
			c1.5-0.6,2.3-2.1,2-3.7c-0.2-1.2-1.1-2.2-2.3-2.4c-1.9-0.4-3,0.7-4.1,2.2c-4.5,6.2-12.1,6-16.1-0.5c-0.7-1.2-1.4-2.4-2.7-2.8
			c-4.8-1.3-5.4-4.8-5.3-8.9c0.1-3.7,0.1-7.3,0.2-11c0.1-1.7,0.8-3.3,2.8-3.7c1.7-0.4,3.4,0.6,4.1,2.2c1.3,2.4,2.6,4.7,5.8,4.8
			c7.8,0.4,13.1,0.6,9.9-10.4c-1.6-5.3-1.1-11.2-2.7-16.7c-0.8-2.8-2.4-3.7-4.9-4.9c-7.9-3.7-15.5-1.3-23.2,0.1
			c-1.2-2.2-1.9-4.6-2-7.1l4.5-1.3c4.6,2.7,9.2,3.9,14.1,0.6c1.6-1,3.5-1.3,5.3-0.6c11.5,3.8,22.8,0.4,34-1.4
			c8.5-1.6,17.2-1.5,25.7,0.4c6.5,1.5,13.5,1.1,20.3,1.2c6.4,0,12.6-0.3,17.9,4.5c1.2,1.1,3.4,1.4,5.1,1.8
			c6.4,1.1,10.3,4.7,10.8,11.2c0.4,5,2.8,6.8,7.7,6.9c7.6,0.1,10.5,4.6,8.1,12c-0.5,1.7-1.4,3.1-3.4,3.2c-1.6,0.2-3.1-0.8-3.5-2.3
			c-1.5-4.8-5.1-5.1-9.1-5c-3.2,0.1-6.3,0-9.5,0c-2.6,0.2-5-1.2-6.1-3.5c-2.1-3.6-11.7-4.5-14.8-1.7c-1.4,1.3-0.9,2.5,0.5,3.2
			c1.5,0.6,3.2,1,4.8,1.2c4.4,0.7,7.3,2.8,10.8,6.1c5,4.8,7,9.3,7.3,15.6c0.1,2,2.2,2.7,3.9,3.5s3.2,2,2.7,4.2s-2.2,3-4.1,3.1
			c-4.8,0.3-9.9,1.6-11.8-5.1c-0.5-1.8-2.2-2.4-4.1-2.1c-1.6,0.2-2.8,1.5-2.8,3.1c-0.3,1.7,0.7,3.4,2.4,3.9c2.8,0.7,5,2.9,5.7,5.7
			c0.7,2.2,2.9,2.6,4.9,2.7s4,0.1,6,0.4s3.5,1.2,3.8,3.4c0.2,1.9-1.1,3-2.6,3.9c-5.9,3.5-5.9,5.3-0.3,8.8c3.7,2.3,3.6,5-0.2,7.1
			c-0.9,0.5-2.3,0.6-2.7,1.3c-4.4,7.9-9.3,2.4-14.1,0.7c-2.1-0.8-2.9-2.7-3.3-4.7c-0.6-3.1-2.5-4.7-5.6-4.6c-7,0.1-14-0.3-20.9-0.7
			c-7.8-0.5-15.5,1.3-23.2-0.1c-3.2-0.6-5.9-1.6-6.2-5.3s-0.8-7.9,3.9-9.8c2.2-0.9,3.9-2.2,3.4-4.8s-2.8-3-5-3.2s-4.3-0.2-6.5-0.6
			c-1.8-0.1-3.2-1.5-3.3-3.3c-0.1-2.2,1.3-3.4,3.3-3.8c2.4-0.4,5-0.4,7.4-0.7c2.2-0.2,4-1.1,4.1-3.6c0.1-2.8-1.8-3.8-4.1-4
			c-1.6-0.2-3.3-0.2-5-0.3c-3.2-0.1-5.4-1.4-6.5-4.5c-0.7-1.9-2-3.1-4.1-2.9c-1.7,0.2-3.1,1.5-3.4,3.2c-0.6,2.5-2.3,4.5-4.5,5.6
			c-2.7,1.5-2.7,3.5,0.2,4.6c4.2,1.7,5.3,4.9,4.7,8.8c-1,7.3-0.9,14.6-0.6,22c0.1,3.1-0.6,5.3-3.8,6.1
			C160.3,102.7,158.9,106.6,155.3,107.1z M163.8,27.8c2.8-0.2,4.4-1.6,4.2-4.5c-0.3-3.1-2.2-4.8-5.3-4.9s-4.2,1.7-4,4.5
			C158.8,26.1,160.6,27.7,163.8,27.8L163.8,27.8z M226.9,83.5c-1.9,0.1-3.3,1.8-3.2,3.7c0,0.1,0,0.2,0,0.4c0.2,2.2,1.3,3.9,3.8,3.8
			s3.4-1.9,3.4-4.1C230.9,84.8,229.5,83.6,226.9,83.5L226.9,83.5z"/>
		<path class="st1" d="M183.5,396.4c-20.2-1.9-39.8-6-58.7-13.7c-26.9-11-50.2-27.1-70.8-47.7c-9.1-9-15.7-19.5-22.8-29.9l1.1-3.2
			l3-1l0,0c0.1,2.2,1.3,4.2,3.1,5.4c1.5,0.9,3.6,1.6,4.1,3.5c2.2,9.3,12,12.7,16.2,20.4c0.7,1.3,2.3,1.1,3.6,0.7
			c6.4,3.2,10.9,8.9,16.4,13.3c6.8,5.4,14.3,9.9,21.2,15.2c6.6,5.1,15.7,5.5,21.9,11.5c2.7,2.5,6.1,4.1,9.8,4.5
			c7.1,1.2,14,3.4,20.8,5.2c10.7,2.8,21.2,5.3,32.2,6c16.5,1.1,32.9,0.4,49-3.6c8.2-2,15.8-5.8,23.5-9.2c9.9-4.4,18.5-11,28.8-14.6
			c4-1.4,6.8-5.7,11.8-5.5c0.8,0,1.8-0.9,2.5-1.5c5.3-4.8,7.5-4.7,13.1,0.7c-3.4,4.1-8.3,6.3-12.1,9.8c-0.1,0.2-0.2,0.5-0.3,0.7
			c-1.1,0.4-2.2,0.8-3.2,1.4c-28,16.7-59.6,26.4-92.2,28.3c-2.6,0.2-5,0.7-6.3,3.3L183.5,396.4z"/>
		<path class="st4" d="M103.2,221.1c0.2,0.6,0.3,1.3,0.2,2c-0.9,3.8-12.4,12.1-16.3,11.8c-8.3-0.7-16.2,0.1-23.6,4.6
			c-3.7,2.3-8,3.4-12.4,3.3c-7.7-0.3-13.7,3.1-19.9,6.8c-6.1,3.7-14,1.8-17.7-4.3c-0.1-0.1-0.1-0.2-0.2-0.3
			c-0.7-1.1-1.2-2.9-2.6-2.9c-6.3-0.1-5.5-5.1-6.3-8.9c-1-4.8-0.5-10.1-4.2-14.1c-2.7-20.5-0.9-40.9,2.9-61.1h1
			c0.3,0.1,0.7,0.1,1,0.1c11.3-1.2,21.7,1.5,31.6,6.8c1.7,0.7,3.6,0.9,5.4,0.4c5.8-1,11.2,0.5,16.7,1.9c2.4,0.5,4.1,2.4,4.4,4.8
			l-10-0.9c-8-0.2-15.9,0.2-23.8-1.8c-3.7-0.9-7.3-2.1-11.1-2.8c-6.8-1.3-10.7,1.7-11,8.6c-0.2,4,0,8,0,12
			c-0.1,11.4-0.6,22.8,1.9,34.1c-1.3,3.2-0.6,6.1,1.1,8.9l1,5c3.6,9.4,9,12.3,15.6,7s13.5-5.9,21-6c6.7-0.1,13.3-1.1,19.1-4.9
			c3.3-2,7-3.2,10.8-3.5C86.7,226.7,94.9,223.7,103.2,221.1z"/>
		<path class="st5" d="M220.4,399.1L217,399c-8.6-1.5-17.2-0.4-25.8-0.9c-2.6-0.2-5.4,0.3-7.6-1.7l15.7,0.2
			c12.6,0.8,24.9-1.9,37.2-3.5c2.8,1.5,5.9,0,8.7,0.9C237,396.3,228.8,398.5,220.4,399.1z"/>
		<path class="st1" d="M125.3,12c0.1,2.5,0.8,4.9,2,7.1c-2.9-0.5-5.8-1.1-8.6,0.6c-2.4,1.4-3.9-0.8-5.7-1.8
			C116.5,14.6,121.1,13.8,125.3,12z"/>
		<path class="st2" d="M32.3,302.1l-1.1,3.2c-2.4-2.6-4.3-5.7-5.4-9.1l4.5-0.1C30.2,298.3,30.9,300.4,32.3,302.1z"/>
		<path class="st1" d="M112.2,18.5c-0.8,2.4-2,3.2-4.1,1.2L112.2,18.5z"/>
		<path class="st3" d="M24.1,293.4h0.8l-0.6,0.7C24.2,293.8,24.1,293.6,24.1,293.4z"/>
		<path class="st6" d="M152.5-4.6l0.4-0.2l0.1,0.7c-0.1,0-0.3,0-0.4,0S152.5-4.4,152.5-4.6z"/>
		<path class="st2" d="M313.3,353.2c-5.5-5.4-7.7-5.5-13.1-0.7c-0.7,0.6-1.7,1.5-2.5,1.5c-5-0.2-7.9,4.1-11.8,5.5
			c-10.3,3.6-18.9,10.3-28.8,14.6c-7.7,3.4-15.4,7.1-23.5,9.2c-16.1,4-32.4,4.7-49,3.6c-11-0.8-21.5-3.2-32.2-6
			c-6.9-1.8-13.8-3.9-20.8-5.2c-3.6-0.5-7-2.1-9.7-4.6c-6.2-6-15.3-6.4-21.9-11.5c-6.9-5.3-14.3-9.8-21.2-15.2
			c-5.5-4.4-10-10.1-16.4-13.3c-0.4-2-0.8-3.9-1.2-5.9c-0.3-1.7-1.1-3.6-3-3.5c-4.7,0.2-5.5-3-6.7-6.4c-2-5.5-1.2-6.8,4.7-6.2
			c2.3,0.2,4.2,1,5.1,3.4c1.3,3.5,3.9,4.8,7.4,4.2c2.2-0.2,4.1-1.9,4.3-4.2c0.7-3.8-0.8-6.4-4.5-7.8c-1.4-0.6-2.5-1.7-3-3.1
			c-2.5-5-8.4-6.6-11.2-11.4c-0.5-0.8-2.4-0.9-3.7-1.1c-3.6-0.5-7.4,0-10.7,1.5c-3.2,1.5-6.1,1.1-8.5-1.7c0-1.3,0-2.7,0-4
			c2.8-1.9,5.8-1.9,9.1-1c6,1.5,8.5-0.5,8.8-6.5c0.2-4,0.1-8,0.2-12c0-1.3,0.1-2.9,1.8-3.1c1.4-0.2,1.7,1.3,2.4,2.1
			c3.8,4,7.4,8.3,11.7,11.7s7.7,7.7,11,11.7c3.1,3.7,5.8,5.4,10.2,5.2c3.7-0.1,7.3-0.1,11,0s6.6-0.9,7.9-4.7c0.6-1.8,2.3-3,4.2-3
			c3.8-0.1,7.6-0.1,11.5-0.1c1.1,0,2.5,0.2,2.8,1.6s-0.9,2-2,2.5c-1.5,0.7-2.9,1.7-3.9,3c-4.1,4.9-8.7,9.5-13.7,13.6
			c-3.7,3-3.8,8.9,0.2,10.3c4.4,1.6,9.3,1.6,13.7-0.1c3.8-1.6,2.8-5.6,3-8.9c0.2-3.8,1.6-6.2,5.6-6c9.5,0.5,10.9-2.9,10.4-10.4
			c0-0.8,0.1-1.7,0.4-2.5c1-3.2,3.9-3.3,6.5-3.7s4.3,0.6,4.9,3.1c1.1,4.6,4.3,5.5,8.4,5.1c2.8-0.2,5.6-0.8,8.4-0.7
			c5.3,0,10.7,0,15.1,3.8s7,3.9,11.9,0.3c5.7-4.2,16.8-3,21.4,2.4c3.1,3.6,9,3,10.5-1.6c1.4-4.2,3.8-4.9,7.6-4.3
			c4.1,0.6,7.6,0,9.1-4.8c0.9-2.8,3.4-2.9,5.8-3c4.6,0.2,9,0.1,11.1-5.2c0.6-1.6,2.7-1.8,4.4-2c1.4-0.1,3.4-0.9,3.9,1
			c0.5,1.7-1.5,1.9-2.6,2.5c-2.3,1.2-2.7,3.2-2.8,5.5c-0.5,7.8,0.8,15.6,1.3,23.4c0.3,4.9,4.2,5.8,8.4,5.8s8-0.6,9-5.7
			c2.3-11.5,2.3-11.5,14.3-10.4c4.2,0.4,7.8-0.6,10.9-3.7c2.7-2.7,6.1-4.8,9.7-5.9c1.6-0.4,3.1-1.3,4.2-2.5c2.5-3.4,5-4.4,7.6,0
			c0.9,1.6,2.2,1.2,3.1-0.2c5.3-8.4,13.9-11.5,22.4-15.5c6.1-2.9,13.1-5,17.6-11.1c3.5-4.8,5.7,0.7,8.4,2.1l3.1,2.1
			c0.4,2.8-0.4,5.6-2.1,7.9c-4.6,7-9.2,14-13.8,20.9c-4.4,6.8-9.8,12.8-13.6,20c-3,2-4.9,4.9-6.8,7.9l-2,2.2c-0.7,0.4-1,1.2-0.9,2
			l-1.1,3l0,0c-2.9,0.4-4.5,2.5-6.3,4.5C328.4,340.8,321.9,348.1,313.3,353.2z M150.3,323.1c7.3,0.1,10.7-1.4,10.1-4.5
			c-1-5-5.3-5.3-9.4-5.5c-6.2-0.2-9.6,1.6-9.1,5.1C142.7,323.6,147.2,322.7,150.3,323.1L150.3,323.1z M131,316.9
			c3.8,0.1,6.1-1.6,6.2-5.5c0.1-3.5-1.4-5.8-5.1-6s-6.2,1.2-6.4,5.2C125.3,314.3,127,316.6,131,316.9L131,316.9z"/>
		<path class="st7" d="M381.5,265.1l-3.1-2c-0.3-4.9,0.4-9.3,4.7-12.7c3.2-2.6,1.5-6.8,2.3-10.2c3.2-3.8,3.2-8.6,3.9-13.1
			c0-0.3,0-0.7,0-1c3.6-16,1.7-32.2,1.6-48.3c0-1.9-1.1-3.8-1.9-5.6c-0.6-1.3-1.4-3.3-3.1-2.4s-0.6,2.6,0.2,3.8
			c1.4,2.1,2.1,4.5,2.2,7c0.4,11.5,0.3,22.9-4.6,33.8c-1.5,3.4-3.1,4.9-6.6,4.4c-6-1-12-0.6-18-0.7c-4.7-0.1-9.5-0.1-13.8-1.9
			c-4-1.8-8.2-2.7-12.6-2.8c-10,0.1-19.7-3.1-29.7-3c-4,0-8.8,0-11.6-4.3c8.5,1.4,17.2,1.8,25.6,3.2c17.1,2.9,34.4,3.4,51.6,3.8
			c4.2,0.1,6.1-1.8,6.8-6.1c2.3-14.5,2.8-28.8-1.4-43c-0.9-2.9,0.7-8.1-4-7.8c-4.1,0.3-2.3,5.1-2.8,8c-0.3,1.6,0.4,3.7-1.5,4.5
			c-2.3,0.9-2.9-1.5-4.1-2.8c-4-4.4-8.7-8.7-14.8-7.9c-6.8,0.7-13.5,2-20,3.9c-12.1,3.6-24.4,6.3-36.6,9.4c4.3-5,7.5-11.6,16-10.4
			c0.9,0.1,2.3-0.7,3-1.5c5-5.1,11.1-6.1,17.8-5.8c5.6,0.2,11.2-0.8,16.5-2.9c7.8-3.1,16-5.2,24.4-6.2c11.1-1.4,14.2-4.8,11.4-15.6
			c-0.2-1-0.6-1.9-0.9-2.9c-0.8-2.4,0.5-3,2.5-2.9c2.2,1.5,1.6,4.4,3.1,6.2l1.5,4l3.1,10l3.7,13.9l0.8,14.9
			c1,17.4,2.2,34.8,0.2,52.2l-0.2,2.9c-1.1,1.2-0.8,2.7-0.8,4.1c-2,9.5-3.9,19-6.8,28.3C384.8,261.8,384.4,264.3,381.5,265.1z
			 M387.5,148.9l-0.3-0.8l0.1,0.9c0.1,2.2-0.1,4.5,1.5,7.1C389.3,153.1,388.2,151.1,387.5,148.9L387.5,148.9z M389.4,161.9l1.4,7.7
			C391.5,165.9,391.2,163.8,389.4,161.9L389.4,161.9z"/>
		<path class="st7" d="M362.2,313.9c-5.5,6.2-10.9,12.4-16.4,18.6c-1.4,1.6-3,3-4.5,4.5c0-1.7,0-3.4,0-5.1V329l0,0
			c3.6-1.2,5.4-3.4,4-7.2c1.9-3,3.8-5.9,6.8-7.9c2.7,1.8,3.3-0.8,4.6-2.1c3.1-3.3,5.5-7.5,10.8-7.5
			C366.2,307.8,362.7,310,362.2,313.9z"/>
		<path class="st8" d="M367.4,304.3c-5.4,0-7.8,4.2-10.8,7.5c-1.2,1.3-1.9,3.9-4.6,2.1c3.8-7.2,9.2-13.3,13.6-20
			c0.4,0.5,0.7,1.2,1.2,1.5C371.2,298.2,370.5,301.2,367.4,304.3z"/>
		<path class="st9" d="M392.4,231.1c0-1.4-0.3-2.9,0.8-4.1C395.6,228.9,395.9,230.4,392.4,231.1z"/>
		<path class="st4" d="M334.2,55.2c2.5,3.7,6,6.4,9.1,9.5c1.2,3.1,3.4,5.8,6.2,7.6c5.4,3.5,8.5,8.7,12,13.6
			c7.6,10.3,12.8,22,18.9,33.2c0.2,1.3,0.5,2.6,0.7,3.9c-2,0-3.3,0.5-2.5,2.9c0.3,0.9,0.6,1.9,0.9,2.9c2.8,10.8-0.3,14.2-11.4,15.6
			c-8.4,1-16.5,3.1-24.4,6.2c-5.2,2.1-10.8,3.1-16.5,2.9c-6.8-0.3-12.9,0.8-17.8,5.8c-0.8,0.8-2.1,1.6-3,1.5
			c-8.5-1.3-11.7,5.4-16,10.4c0,6.1,0.7,12.1,2,18c0,1.3,0,2.7,0,4l-0.9,12.9c2.8,4.3,7.6,4.4,11.6,4.3c10.1-0.1,19.7,3.2,29.7,3
			c4.3,0.1,8.6,1,12.6,2.8c4.3,1.8,9.1,1.8,13.8,1.9c6,0.1,12-0.2,18,0.7c3.5,0.6,5.1-1,6.6-4.4c4.9-10.9,4.9-22.3,4.6-33.8
			c0-2.5-0.8-4.9-2.2-7c-0.8-1.2-2-2.9-0.2-3.8s2.5,1.2,3.1,2.4c0.8,1.8,1.9,3.7,1.9,5.6c0.1,16.1,2,32.3-1.6,48.3c0,0.3,0,0.7,0,1
			c-0.8,4.5-0.7,9.3-3.9,13.1c-2.7-3.1-2.2-6.9-2.3-10.5c-0.1-4.6-2.3-6.1-6.3-5c-3.5,0.9-7.3,0.9-10.8,0c-4.1-0.9-7.9-0.6-8,5.1
			c0.1,1.5-1.1,2.7-2.5,2.8c-1.2,0.1-2.2-0.7-2.6-1.8c-1.6-4.4-5.2-4.7-9-4.6c-3.3,0.1-6.2-0.6-8.3-3.6c-1.2-1.8-3.3-2.1-5.3-2.4
			c-9.7-1.4-19.6-1.4-29.2-3.6c-1.8-0.3-3.7,0-5.4,0.6c-1.4,0.6-3,0.3-4.2-0.7c-5.8-5-11.9-5.6-18.3-1.4c-2.5,1.7-5.7,1.4-8.5,3.5
			c3.1,2.5,6.6,1.8,9.7,2.4c2.8,0.6,5.6,0.8,8.4,1.3c1.6,0.3,3.5,0.8,3.6,2.9s-1.9,2.5-3.5,2.8c-4.3,0.8-8.5,1.5-12.8-0.4
			c-3.2-1.4-6.1-1.4-6,3.4c0,2.4-1.4,3.6-3.6,4.1l-1-4l-2-3v-1c0.1-0.3,0.1-0.7,0-1l1-4.6c0.5-1.8,0.9-3.6,1.5-5.3
			c12.2-35-6.3-73.2-41.3-85.4c-1.7-0.6-3.5-1.1-5.3-1.6c-9.9-2.6-19.8-2.6-29.8-1.5c-1.1-0.2-2.3-0.4-3.4-0.7s-2.7-0.1-2.8-1.5
			s1.4-1.6,2.4-2.1c1.4-0.7,2.8-1.6,3.1-3.1c1.2-4.8,4.8-5.3,8.9-5.3c5.7,0.1,11.3,0.1,17-0.1c2.6-0.1,5.9-0.2,5.9-3.9
			c0-3.5-2.8-4.8-5.8-4.9c-8-0.2-15.9-1.6-23.9-1.2c-1.6,0.1-3.4,0.4-4.6-1.2c0.1-1.4,1.3-1.6,2.2-1.6c12.9,0.3,25.9-3,38.7,1
			c6.8,2.1,13.9,3.3,19,9.1c1.9,2.1,4.9,2.3,7.5,2.3c6.9,0.1,10.4,5.3,14.5,9.4c1.7,1.7,2.7,4.1,5.2,5.1c0.5,0.2,1.1,0.5,1.2,0.8
			c1.4,5.8,7,8.3,10,12.9c3.1,4.7,6.5,5.2,10.3,0.9c1-1.1,2-2.4,3.3-3c3.5-1.5,4.3-4.1,4.5-7.6c0.3-7.7,1.7-9,9.3-9s15-0.1,22.5,0
			c3.7,0,6.9-0.8,8.7-4.5c1.7-3.3,5-3.5,8.2-3.5c3.6,0,6.6-0.9,7.9-4.7c0-0.2,0.1-0.3,0.3-0.4c8-5,4.9-10.9,1.3-16.8
			c-2.9-4.7-4.5-10.1-8.4-14.5c-2.5-2.8-4.4-5.6-7.6-8c-3.4-2.6-7.3-5.8-8.2-10.9c-0.5-1.8-1.7-3.3-3.5-4.1c-3.6-1.7-6.5-3.3-8-7.9
			c-1-3-6.3-3.4-9.6-5.3c-4.7-2.8-7.1-7.9-12.4-10.1c-7.5-3.2-14.2-8-22.1-10.4c-4.6-1.3-9.6-1-12-7.1c-1.3-3.2-6.8-2.7-10.2-4.5
			c-2.3-1.2-4-2.3-4.1-5c8.6,1.7,16.4,5.8,24.5,8.8c7.4,2.7,14.1,6.5,20.9,10.2C308.8,33.4,321.5,44.3,334.2,55.2z M375.3,115.1
			l0.2,0.7L375.3,115.1c-0.4-0.9-0.5-2-1.9-2.5C373.5,114.2,374.5,114.5,375.3,115.1z"/>
		<path class="st5" d="M215.4-0.3L207.2-1C210.1-2.7,212.8-2.2,215.4-0.3z"/>
		<path class="st10" d="M183.4,127.7c10-1.1,19.9-1.1,29.8,1.5c35.9,9.3,57.5,45.8,48.2,81.7c-0.5,1.8-1,3.5-1.6,5.3
			c-0.6,1.7-1,3.5-1.5,5.3c-2.9,2.9-3.6,7.2-6.1,10.4h0.1l-0.8,1c-5.9,7.8-13.1,14.5-21.3,19.9l-15,6.2h0.1l-1.3,1.1
			c-6.6-0.5-13.1,1.1-19.7,1.1c-22.2-2.2-40.3-11.8-53.1-30.4c-19.4-28.1-14-66.3,11.8-88.4C162,134.7,172.6,131.2,183.4,127.7z
			 M197.4,189.7c-3.9-0.1-7.4,1.3-10.9,2.9c-1.6,0.7-2.8,1.9-2.4,3.9c0.3,1.7,1.8,2.2,3.3,2.5c3.9,0.7,7.9,0.6,11.8-0.4
			C203,194.9,202.6,192.8,197.4,189.7L197.4,189.7z"/>
		<path class="st3" d="M11.3,139.1c1.2-2.1,0.6-6.2,5.5-2c2.9,2.5,7.1,3.7,9.2,7.7c0.7,1.3,2.7,1.2,4.2,1.2c3.3,0.1,6.7,0.1,10,0.1
			c3.5,0,6.4,0.6,8.3,4.3c1.5,3.1,3.7,2.9,5.7,0.1c4.2-5.7,6.5-5.6,10.4,0.7c1,1.5,2.1,2.7,3.9,2.7c4.5,0.1,9,0.1,13.5,0
			c1.7,0.1,3.3-1,4-2.5c1.8-4.6,5.5-5.4,9.8-5.2c0.7,0,1.3,0,2,0c10.4,2,17.1-2.1,21.3-11.9c1.6-3.8,4.3-7.3,5.7-11.4
			c1.3-3.9,2.9-7.9,7.4-9.4c0.2,0,0.3-0.2,0.4-0.3c4.5-10.3,13.4-5.4,20.8-6.1c-3.7,3.3-8.7,3.9-13,6.2c-3.9,2.1-6.2,4.1-6.1,8.6
			c0.1,3-0.9,4.8-4.5,4.1c-2.5-0.6-3.8,1.1-4.2,3.2c-1,4.2-3.6,7.2-6.5,10.4s-5.1,7.3-7,11.3c-1.4,3-0.6,6.1,1.7,8.8
			c1.7,1.9,2.2,4.4,0.1,6.2s-4.2,1-6.2-0.8c-5.2-4.5-9.5-4.1-13.3,1.3c-2,2.8-4.1,3.2-5.7,0.1c-1.8-3.6-4.7-4.3-8.2-4.4
			s-7.3-0.4-10.9-0.7c-1.8-0.1-3.6-1-4.8-2.4c-4.5-5-12.7-5.7-17.4-1c-3.3,3.3-5.4,3.1-8-0.4c-1.5-2.1-3.9-2.4-6.3-2.1
			c-2.5,0.3-5,0.3-7.5,0.1C15,154.9,13.3,146.9,11.3,139.1z"/>
		<path class="st3" d="M247.3,285.1c-2.4,0.1-4.9,0.2-5.8,3c-1.5,4.7-5,5.4-9.1,4.8c-3.8-0.6-6.2,0.1-7.6,4.3
			c-1.5,4.5-7.4,5.2-10.5,1.6c-4.6-5.4-15.7-6.6-21.4-2.4c-4.9,3.6-7.5,3.5-11.9-0.3s-9.8-3.8-15.1-3.8c-2.8,0-5.6,0.5-8.4,0.7
			c-4,0.4-7.3-0.5-8.4-5.1c-0.6-2.5-2.4-3.5-4.9-3.1s-5.5,0.5-6.5,3.7c-0.3,0.8-0.4,1.6-0.4,2.5c0.5,7.5-0.9,10.9-10.4,10.4
			c-4-0.2-5.5,2.3-5.6,6c-0.1,3.2,0.9,7.3-3,8.9c-4.4,1.7-9.3,1.8-13.7,0.1c-4-1.4-3.9-7.3-0.2-10.3c5-4.1,9.5-8.7,13.7-13.6
			c1.1-1.3,2.4-2.3,3.9-3c1-0.5,2.4-1,2-2.5s-1.7-1.6-2.8-1.6c-3.8-0.1-7.6-0.1-11.5,0.1c-1.9,0-3.6,1.2-4.2,3
			c-1.3,3.9-4.3,4.8-7.9,4.8s-7.3-0.1-11,0c-4.4,0.1-7.1-1.5-10.2-5.2c-3.3-4-6.7-8.3-11-11.7s-7.9-7.7-11.7-11.7
			c-0.8-0.8-1-2.4-2.4-2.1c-1.7,0.3-1.8,1.9-1.8,3.1c-0.1,4,0,8-0.2,12c-0.3,6.1-2.9,8-8.8,6.5c-3.3-0.8-6.2-0.9-9.1,1
			c0-4,3.2-3.7,5.7-3.9c7.8-0.7,8-1,8.3-8.6c0.2-3.3,0.6-6.6,1-9.9c0.2-1.9,1-3.6,3.1-4c2-0.5,4.1,0.2,5.4,1.8
			c4.8,5.2,10.6,9.6,15.1,14.9c3.6,4.2,8.8,6.4,11.6,11.1c1.1,1.8,3.1,2.7,5.1,2.5c5.9-0.1,12.6,2,16.3-5.2c0.4-0.8,2-1.3,3.1-1.4
			c5.3-0.5,10.6-0.9,15.9-1.1c2.6-0.1,5.1,0.6,5.8,3.6s0.3,5.6-2.9,7.1c-1.5,0.7-3.3,1.4-2.6,3.6c0.6,1.9,2.4,2.1,4.1,2.3
			c4.6,0.5,7.2-1.6,7.7-6.4c0-0.3,0-0.7,0.1-1c0.5-3.3-1-7.4,3.5-9c4.9-1.8,11.7-0.2,14.6,3.6c2,2.7,4.3,4,7.6,3.9
			c9.1-0.3,18,0.5,25.9,5.7c1.5,1,2.8,0.2,4.1-0.7c6.8-4.5,20.6-4.4,26.9,0.3c2.3,1.8,3.8,1.7,5.2-0.7c2.1-3.6,5.3-4.8,9.3-4.7
			c2.7,0.1,5.3-1.1,6.9-3.3C240.9,282.6,244,282.3,247.3,285.1z M117.2,306.5c-0.2-1,0.3-3.2-1.6-3.8s-2.1,1.7-2.7,2.9
			c-0.6,1.2-1.5,2.2-2.6,2.9c-1.3,0.8-4,0.7-3.3,2.9s3.3,1.6,5.2,1.6C116,312.8,117.3,310.5,117.2,306.5z"/>
		<path class="st11" d="M103.2,213.2c0,1.3,0,2.5-0.1,3.8c-5.1,1.6-10.4,2.4-15.8,2.3c-2.9,0.7-5.8,1.5-8.7,2.1
			c-10.7,2-11.1,2-12.5-8.8c-1.3-9.5-2.4-19.1-0.8-28.8c0.2-1.4,1.1-4.2,2.1-3c3.4,4,8.6-0.5,11.9,3c0.4,0.5,2,0.4,2.8,0.1
			c6.4-2.4,12.8-0.6,19.1,0.3l0.1,3c-0.7,2.6-0.9,5.4-0.5,8.1C100.6,201.3,100.5,207.4,103.2,213.2z"/>
		<path class="st3" d="M31.3,289.1c2.4,2.8,5.3,3.2,8.5,1.7c3.4-1.5,7.1-2,10.7-1.5c1.3,0.2,3.2,0.3,3.7,1.1
			c2.8,4.8,8.7,6.4,11.2,11.4c0.5,1.4,1.6,2.5,3,3.1c3.8,1.3,5.2,3.9,4.5,7.8c-0.3,2.2-2.1,4-4.3,4.2c-3.6,0.5-6.2-0.7-7.4-4.2
			c-0.8-2.3-2.7-3.1-5.1-3.4c-6-0.6-6.8,0.7-4.7,6.2c1.3,3.4,2,6.6,6.7,6.4c1.9-0.1,2.6,1.7,3,3.5c0.4,2,0.8,3.9,1.2,5.9
			c-1.3,0.4-2.9,0.6-3.6-0.7c-4.2-7.8-13.9-11.1-16.2-20.4c-0.4-1.9-2.5-2.5-4.1-3.5c-1.9-1.2-3-3.2-3.1-5.4l0.5-0.5l-0.5,0.5l-3,1
			c-1.4-1.7-2.1-3.8-2-6L31.3,289.1z"/>
		<path class="st4" d="M230.2,252.8c8.2-5.4,15.3-12.1,21.3-19.8l0.8-1h-0.1l3.2,3.1c-1.5,4-3.4,7.4-8.3,8.4c-2.2,0.4-4,1.3-1.6,4.6
			c4.2,6.1,3.2,8-3.5,11.3c-0.7,0.4-1.7,0.7-2.1,1.3c-3.8,6.8-10.1,6.6-16.6,6.4c0-1.4,0.5-3.1-1.7-3.3c-0.5,0.1-0.9,0.3-1.1,0.8
			c-0.4,2.2,1.5,2.1,2.8,2.5c-2.1,3-4.6,3.1-7.2,0.8c-4-3.6-8.9-4.1-13.9-4.3c-2.9-0.2-5.7-0.1-7.9-2.3c6.6,0,13.1-1.6,19.7-1.1
			l1.3-1.1h-0.1c2.8,0,5.6-0.3,8.3-0.8C227.9,257.6,229.2,256.7,230.2,252.8z"/>
		<path class="st7" d="M87.4,219.2c5.4,0.1,10.7-0.7,15.8-2.3c0,1.4,0,2.8,0.1,4.1c-8.4,2.6-16.6,5.7-25.4,6.6
			c-3.8,0.3-7.5,1.5-10.8,3.5c-5.9,3.8-12.4,4.8-19.1,4.9c-7.5,0.1-14.6,0.9-21,6s-12,2.4-15.6-7h11.9c4.6-0.2,9.5,1,13.6-1.9
			c2.5-1.7,5.5-2.5,8.4-2.2c5,0.2,10-0.1,14-3.9l0,0c8.6,0.4,16.6-3.2,25-4.4C86.2,222.5,87,220.9,87.4,219.2z"/>
		<path class="st4" d="M101.4,187.1l-0.1-3c0.2-1.9-0.5-3.8-1.9-5.1c-1.3-2.3-3.5-2.8-5.9-2.9c-5.4-0.3-10.8-0.7-16.2-1.1
			c-3.2-0.2-6.3-0.6-8-3.9c8.4-0.9,16.4,0.8,24.6,2.4c0.5,0,1,0.1,1.5,0.2c2.4,0.9,6.1-2.1,7.3,1C104,178.7,104.4,183.2,101.4,187.1
			z"/>
		<path class="st7" d="M69.2,171.1c1.7,3.2,4.8,3.6,8,3.9c5.4,0.4,10.8,0.8,16.2,1.1c2.4,0.1,4.6,0.6,5.9,2.9
			c-9,0.6-17.7-1.9-26.6-2.6c-6.6-0.6-13.6-1.1-19.4-5.3l10,0.9L69.2,171.1z"/>
		<path class="st2" d="M273.5,290.8c0.1-4.6,6.8-8.3,10.7-6c2.3,1.3,2,4-0.7,5.3c-2.4,1.1-5,1.7-6.6,4c-0.4,0.7-1.3,0.9-2,0.4
			c-0.1,0-0.1-0.1-0.2-0.2C273.6,293.5,273.5,292.2,273.5,290.8z"/>
		<path class="st3" d="M255.4,235.1l-3.2-3.1c2.5-3.2,3.1-7.5,6.1-10.4l-1,4.6c0,0.3,0,0.7,0,1v1l2,3l1,4H255.4z"/>
		<path class="st4" d="M103.2,213.2c-2.8-5.8-2.7-11.9-2.4-18.1c2.5,1.6,2.4,4.2,2.4,6.6C103.3,205.6,103.2,209.4,103.2,213.2z"/>
		<path class="st1" d="M163.8,27.8c-3.2-0.1-5-1.8-5.1-4.9c-0.2-2.8,1.1-4.6,4-4.5s5,1.8,5.3,4.9C168.2,26.2,166.5,27.6,163.8,27.8z
			"/>
		<path class="st1" d="M226.9,83.5c2.6,0.1,4,1.3,4,3.7c0,2.2-1,4-3.4,4.1s-3.6-1.6-3.8-3.8c-0.3-1.9,0.9-3.7,2.8-4
			C226.7,83.5,226.8,83.5,226.9,83.5z"/>
		<path class="st11" d="M236.4,393.1c-12.4,1.6-24.6,4.3-37.2,3.5c1.3-2.6,3.7-3.1,6.3-3.3c32.6-1.9,64.2-11.6,92.2-28.3
			c1-0.5,2.1-1,3.2-1.3l0.5,0.5l-6.4,5.5c-2.1,0.8-4.2,1.6-5.7,3.5h0.1c-1.2,0.3-2.3,1-3.1,2l0,0c-3.4-0.1-6.7,1.4-9,4l0,0
			c-8.4,2.4-16.7,4.9-24.5,9.1C247.8,391.2,241.9,391.4,236.4,393.1z"/>
		<path class="st12" d="M341.3,329c0,1,0,1.9,0,2.9c-5.5,4.5-10.7,9.2-14,15.7c-0.9,2.3-2.9,3.4-4.9,4.5c-1.6-0.4-2.6,0.5-3.2,1.8
			c-1.8,0.3-3.2,1.4-3.9,3.1c-1.5,0.3-2.9,1-4,2c-1.6,0.6-3,1.7-4,3l-3,1.1l-3-0.2c3.9-3.5,8.8-5.6,12.1-9.8
			c8.6-5,15.1-12.4,21.6-19.6C336.8,331.5,338.4,329.4,341.3,329z"/>
		<path class="st11" d="M301.2,362.9l3,0.2l-0.2,0.6l-2.6,0.4l-0.5-0.5C301,363.4,301.1,363.2,301.2,362.9z"/>
		<path class="st8" d="M23.3,235.1H11.4l-1-5c0.7-3.1,0-6-1.1-8.9c-2.5-11.2-2-22.7-1.9-34.1c2.7-3.3,2.7-7.4,3.6-11.2
			s2.8-4.5,6.2-3.6c2.1,0.4,4.1,1.4,5.7,2.9c1.7,1.7,3.8,2.7,6.2,2.9c5.8,0.8,6.6,1.9,5.9,7.9c-0.8,5.8-0.8,11.6-0.1,17.4
			c0.8,5.9,1.6,11.9,2.2,17.8c0.6,6.4-2,9.6-8.2,10.9C26.6,232.5,24.6,233.1,23.3,235.1z"/>
		<path class="st12" d="M23.3,235.1c1.3-2,3.3-2.6,5.5-3c6.2-1.3,8.8-4.5,8.2-10.9c-0.5-6-1.4-11.9-2.2-17.8
			c-0.7-5.8-0.7-11.6,0.1-17.4c0.7-6-0.1-7.1-5.9-7.9c-2.3-0.2-4.5-1.2-6.2-2.9c-1.6-1.5-3.5-2.5-5.6-3c-3.3-0.9-5.2-0.1-6.1,3.6
			s-1,8-3.6,11.2c0-4-0.1-8,0-12c0.3-6.9,4.1-9.8,11-8.6c3.8,0.7,7.4,1.9,11.1,2.8c7.9,2,15.9,1.6,23.8,1.8
			c5.8,4.1,12.9,4.7,19.4,5.3c8.9,0.8,17.6,3.2,26.6,2.6c1.4,1.3,2.1,3.2,1.8,5.1c-6.4-0.8-12.7-2.6-19.1-0.3
			c-0.8,0.3-2.4,0.4-2.8-0.1c-3.3-3.6-8.5,1-11.9-3c-1-1.2-1.8,1.6-2.1,3c-1.5,9.6-0.4,19.2,0.8,28.8c1.4,10.9,1.8,10.8,12.5,8.8
			c2.9-0.6,5.8-1.4,8.7-2.1c-0.4,1.7-1.2,3.2-3.1,3.5c-8.4,1.1-16.3,4.7-25,4.4c5.8-2.8,6.4-7.4,5.3-13.2
			c-1.2-7.5-1.7-15.2-1.3-22.8c0.2-5.4,0.4-10.3-5.3-13.9c-7.6-4.7-16.8-1.4-19.2,7.2c-3.4,12-0.4,23.7,0.5,35.5
			c0.1,1.4,0.8,3.1,2.1,3.1c3.9,0.1,6.3,3.5,10,4.1h8c-4,3.8-9,4.1-14,3.9c-3-0.3-6,0.5-8.4,2.2C32.8,236.1,27.9,234.8,23.3,235.1z"
			/>
		<path class="st7" d="M9.3,221.1c1.1,2.9,1.8,5.8,1.1,8.9C8.7,227.3,8,224.3,9.3,221.1z"/>
		<path class="st6" d="M313.2,386c-8.8-2.2-17.9,0.8-26.7-1.4c-8.2-2-15.2,0.9-22.4,4.1c-6.1,2.7-12.6,4-19.1,5.3
			c-2.9-0.9-5.9,0.7-8.7-0.9c5.5-1.7,11.4-1.9,16.5-4.9c8.6-1.8,17-4.3,24.5-9.1l0,0c3.4-0.1,6.6-1.6,9-4l0,0c1.4-0.1,2.7-0.4,3.1-2
			h-0.1c2.3,0.4,3.8-1.3,5.8-1.8l0.1,1.6c-2.7,3.2-2.2,4.6,2.1,5.9c7.3,2.1,14.6,4,22,6C317.5,385.8,315.4,386.2,313.2,386z"/>
		<path class="st1" d="M150.3,323.1c-3.1-0.4-7.6,0.6-8.3-4.8c-0.5-3.5,2.9-5.3,9.1-5.1c4.1,0.1,8.4,0.5,9.4,5.5
			C161,321.6,157.6,323.1,150.3,323.1z"/>
		<path class="st3" d="M130.9,316.9c-4-0.3-5.6-2.6-5.4-6.3c0.2-4,2.7-5.5,6.4-5.2s5.2,2.5,5.1,6C137,315.3,134.7,317,130.9,316.9z"
			/>
		<path class="st12" d="M345.2,321.8c1.4,3.9-0.4,6.1-4,7.2l1.1-3l0.9-2L345.2,321.8z"/>
		<path class="st4" d="M343.2,324.1l-0.9,2C342.2,325.3,342.6,324.5,343.2,324.1z"/>
		<path class="st12" d="M291.4,206l0.9-12.9c3,1.2,4.6,3.6,5.7,6.5s3.8,3.5,6.6,3.3c2.2-0.2,4.1-1.2,4.3-3.5
			c0.6-8.5,1.1-16.9-0.9-25.3c-0.6-2.4-2.6-3.3-4.9-3.5c-2.6-0.2-4.1,1.2-4.7,3.6c-0.8,3.1-1.5,6.1-2,9.3c-0.4,2.6-1.4,4.8-4.1,5.7
			c-1.3-5.9-2-11.9-2-18c12.2-3.1,24.5-5.8,36.6-9.4c6.5-1.8,13.2-3.1,20-3.9c6.1-0.8,10.8,3.6,14.8,7.9c1.2,1.3,1.8,3.7,4.1,2.8
			c1.8-0.7,1.2-2.9,1.5-4.5c0.5-2.9-1.4-7.7,2.8-8c4.6-0.3,3.1,4.9,4,7.8c4.2,14.2,3.7,28.6,1.4,43c-0.7,4.3-2.5,6.2-6.8,6.1
			c-17.3-0.4-34.5-0.9-51.6-3.8C308.6,207.9,299.9,207.4,291.4,206z"/>
		<path class="st11" d="M389.4,162c1.9,1.8,2.2,3.9,1.4,7.7L389.4,162z"/>
		<path class="st11" d="M387.5,149c0.8,2.1,1.9,4.2,1.3,7.2c-1.6-2.5-1.4-4.8-1.5-7.1L387.5,149z"/>
		<path class="st11" d="M387.2,149.1l-0.1-0.9l0.3,0.8L387.2,149.1z"/>
		<path class="st1" d="M389.3,227c0-0.3,0-0.7,0-1C389.3,226.4,389.3,226.7,389.3,227z"/>
		<path class="st13" d="M319.2,384.8c-7.3-2-14.7-3.9-22-6c-4.3-1.2-4.8-2.7-2.1-5.9l11.9-7c2.3,2.4,4.5,4.9,8.4,3.1
			c4.6,3.3,6.6,8.4,9.3,13l0.4,1c0,0.3,0,0.7,0,1C323.4,385.6,321.3,384.9,319.2,384.8z"/>
		<path class="st10" d="M343.5,346.1c-7.4,6.5-14.5,13.2-22.5,19h-2.6l-1.7-1.7c8.1-7.3,15.7-15.3,25-21.2
			C344,342.7,343.3,344.6,343.5,346.1z"/>
		<path class="st13" d="M341.8,342.1c-9.4,5.9-16.9,13.9-25,21.2l-1.6-1.4l3.2-4.9l-0.1,0.1c0.9-0.6,1.6-1.5,1.8-2.6l2.4-2.4
			c2-1.1,4-2.2,4.9-4.5c4.8-2.1,7.2-7.8,12.7-8.7L341.8,342.1z"/>
		<path class="st4" d="M340.1,338.9c-5.6,1-8,6.6-12.7,8.7c3.3-6.5,8.4-11.3,14-15.7c0,1.7,0,3.4,0,5.1L340.1,338.9z"/>
		<path class="st6" d="M325.2,384.1c0-0.3,0-0.7,0-1C325.2,383.4,325.2,383.8,325.2,384.1z"/>
		<path class="st14" d="M292.3,189.1c2.8-0.9,3.7-3,4.1-5.7c0.5-3.1,1.2-6.2,2-9.3c0.6-2.3,2.1-3.8,4.7-3.6c2.3,0.2,4.3,1.1,4.9,3.5
			c2,8.4,1.5,16.9,0.9,25.3c-0.2,2.3-2.1,3.3-4.3,3.5c-2.8,0.2-5.5-0.3-6.6-3.3s-2.7-5.3-5.7-6.5
			C292.4,191.8,292.3,190.4,292.3,189.1z"/>
		<path class="st7" d="M375.3,115.1c-0.8-0.5-1.8-0.9-1.9-2.5C374.8,113.1,375,114.2,375.3,115.1L375.3,115.1z"/>
		<path class="st1" d="M259.3,231.1l-2-3L259.3,231.1z"/>
		<path class="st7" d="M375.3,115.1l0.3,0.7L375.3,115.1L375.3,115.1z"/>
		<path class="st1" d="M257.3,227.1c0-0.3,0-0.7,0-1C257.4,226.4,257.4,226.8,257.3,227.1z"/>
		<path class="st3" d="M230.2,252.8c-1,3.9-2.4,4.7-6.6,5.4c-2.7,0.5-5.5,0.8-8.3,0.8L230.2,252.8z"/>
		<path class="st3" d="M215.4,259.1l-1.3,1.1L215.4,259.1z"/>
		<path class="st3" d="M252.3,232l-0.8,1L252.3,232z"/>
		<path class="st1" d="M117.2,306.5c0.1,4-1.2,6.4-5,6.5c-1.9,0-4.5,0.7-5.2-1.6s2.1-2,3.3-2.9c1.1-0.7,2-1.7,2.6-2.9
			c0.6-1.2,0.7-3.4,2.7-2.9S117,305.5,117.2,306.5z"/>
		<path class="st1" d="M35.3,301.1l0.5-0.5L35.3,301.1L35.3,301.1z"/>
		<path class="st1" d="M223.3,267.1c-1.3-0.5-3.2-0.3-2.8-2.5c0.2-0.4,0.6-0.7,1.1-0.8C223.9,264,223.4,265.7,223.3,267.1
			L223.3,267.1z"/>
		<path class="st8" d="M277.4,379.1c-7.5,4.8-15.8,7.4-24.5,9.1C260.6,384.1,269,381.5,277.4,379.1z"/>
		<path class="st7" d="M301.4,364.2l2.6-0.4l1,1.1c-2.9,2.2-6,4.1-9.3,5.6l-0.7-0.8L301.4,364.2z"/>
		<path class="st8" d="M286.4,375.2c-2.4,2.4-5.6,3.9-9,4C279.6,376.6,282.9,375.1,286.4,375.2z"/>
		<path class="st7" d="M295.1,371.4c-2,0.5-3.5,2.2-5.8,1.8c1.5-1.9,3.6-2.6,5.7-3.5l0.7,0.7L295.1,371.4z"/>
		<path class="st7" d="M289.4,373.1c-0.4,1.6-1.7,1.9-3.1,2C287.1,374.1,288.2,373.4,289.4,373.1z"/>
		<path class="st7" d="M315.2,357c0.7-1.6,2.2-2.8,3.9-3.1l0.4,0.5l-1.4,2.6l0-0.1l-2.7,0.5L315.2,357z"/>
		<path class="st7" d="M307.2,362c1-1.3,2.4-2.4,4-3l0.9,1l-4.1,2.9L307.2,362z"/>
		<path class="st7" d="M322.5,352.1l-2.4,2.4h-0.4l-0.4-0.5C319.9,352.6,320.8,351.7,322.5,352.1z"/>
		<path class="st7" d="M311.2,359c1.1-1,2.5-1.7,4-2l0.3,0.4l-3.5,2.5L311.2,359z"/>
		<path class="st7" d="M304,363.8l0.2-0.6l3-1.1l0.8,0.9l-3,1.9L304,363.8z"/>
		<path class="st11" d="M63.2,191.1c-0.3,7.6,0.2,15.2,1.4,22.8c1.1,5.8,0.5,10.4-5.3,13.2l0,0h-8c-4.4-8.3-6.5-16.9-3.4-26.2
			c0.4-1,0.3-2-0.1-2.9c-3.4-5.4,0.8-9.6,2.3-14.1c0.8-2.2,2.9-3.5,5.2-3.2c2.8,0.5,2,3.2,1.6,5C55.7,191.5,59.2,191.5,63.2,191.1z"
			/>
		<path class="st8" d="M63.2,191.1c-4.1,0.4-7.6,0.4-6.3-5.5c0.4-1.7,1.2-4.5-1.6-5c-2.3-0.3-4.4,1-5.2,3.2
			c-1.5,4.5-5.8,8.7-2.3,14.1c0.4,0.9,0.4,2,0.1,2.9c-3.1,9.3-1.1,17.9,3.4,26.2c-3.6-0.6-6.1-3.9-10-4.1c-1.3-0.1-2-1.8-2.1-3.1
			c-0.8-11.8-3.8-23.5-0.5-35.5c2.4-8.5,11.6-11.9,19.2-7.2C63.7,180.8,63.5,185.7,63.2,191.1z"/>
		<path class="st5" d="M305,364.8l3-1.9l4.1-2.9l3.5-2.5l2.7-0.5l-3.2,4.9l-8,4l-11.9,7l-0.1-1.6l0.6-0.9
			C299,368.9,302.1,367.1,305,364.8z"/>
		<path class="st12" d="M307.1,366l8-4l1.6,1.4l1.7,1.7c-1.1,1.2-3,1.9-2.9,4C311.6,370.9,309.4,368.3,307.1,366z"/>
		<path class="st5" d="M319.7,354.5h0.4c-0.2,1.1-0.9,2-1.8,2.6L319.7,354.5z"/>
	</g>
</g>
<circle class="st15" cx="196.9" cy="194" r="68.9"/>
<circle class="st16" cx="192.8" cy="197.3" r="10.6"/>
<circle class="st17" cx="197.7" cy="196.5" r="81.3"/>
</svg>
