<?xml version="1.0" encoding="utf-8"?>
<!-- Generator: Adobe Illustrator 27.0.0, SVG Export Plug-In . SVG Version: 6.00 Build 0)  -->
<svg version="1.1" id="Layer_1" xmlns="http://www.w3.org/2000/svg" xmlns:xlink="http://www.w3.org/1999/xlink" x="0px" y="0px"
	 viewBox="0 0 575 575" style="enable-background:new 0 0 575 575;" xml:space="preserve">
<style type="text/css">
	.st0{display:none;}
	.st1{display:inline;}
</style>
<g class="st0">
	<path class="st1" d="M285.3,26.2c-142,0-257.1,115.1-257.1,257.1s115.1,257.1,257.1,257.1s257.1-115.1,257.1-257.1
		S427.3,26.2,285.3,26.2z M98.1,240.5c-0.1,0-0.2-0.1-0.3-0.1c-5.5-2-8.1-8.3-5.7-13.6c29-65.5,76.5-111.3,143.2-138
		c5.4-2.2,11.6,0.7,13.4,6.2l0.1,0.3c1.7,5.1-0.9,10.6-5.8,12.6c-61.4,24.4-105.3,66.6-132.1,127.2
		C108.8,240.1,103.1,242.4,98.1,240.5z M175.8,250.4c-2.2,4.8-7.7,7.2-12.7,5.3c-0.4-0.1-0.8-0.3-1.2-0.4c-5.1-1.9-7.9-7.5-6.1-12.7
		c9.9-28.9,50.8-68.4,85.6-82.2c5.5-2.2,11.6,0.7,13.4,6.3l0.2,0.5c1.6,5-0.9,10.4-5.8,12.4c-16.2,6.8-30.8,16.1-43.5,28.3
		C193.1,220.2,183.2,234.4,175.8,250.4z M241.4,351.2c-21.6-14.6-35.8-39.3-35.8-67.3c0-44.7,36.3-80.9,81.1-80.9
		c17.1,0,33,5.4,46.1,14.4c21.6,14.6,35.8,39.3,35.8,67.3c0,44.7-36.3,80.9-81.1,80.9C270.3,365.7,254.4,360.3,241.4,351.2z
		 M322.2,399.4c0-0.1-0.1-0.2-0.1-0.3c-1.7-5.1,0.8-10.5,5.7-12.6c33.6-14.3,58-37.8,73.5-70.7c2.3-4.8,7.8-7.1,12.8-5.3
		c0.1,0,0.2,0.1,0.3,0.1c5.5,2.1,8.2,8.4,5.7,13.8c-17.8,37.9-45.7,64.8-84.3,81.3C330.4,407.9,324.1,405,322.2,399.4z M437.6,412.8
		c-25.3,27.6-64.3,53.8-96.1,64.9c-5.3,1.9-11.2-1-13-6.4c0-0.1-0.1-0.3-0.1-0.4c-1.7-5.1,0.8-10.7,5.8-12.6
		c61.3-24.3,105.2-66.6,132.1-127.2c2.2-4.9,7.8-7.2,12.8-5.4l0.2,0.1c5.4,2,8.1,8.1,5.9,13.5C473.6,366.6,457.6,390.9,437.6,412.8z
		"/>
	<path class="st1" d="M306.5,284c0-6.5-3.2-12.3-8.1-16c-3-2-6.6-3.2-10.5-3.3c-11-0.2-20.2,8.7-20.3,19.7
		c-0.1,6.6,3.2,12.6,8.1,16.3c3.1,2,6.8,3.2,10.7,3.3C297.4,304,306.5,295,306.5,284z"/>
</g>
<path d="M562.1,563.2c-183.1,0-366.1,0-550,0c0-183.3,0-366.6,0-550c183,0,366.1,0,549.4,0c0,68.5,0,134.7,0,200.8
	c-49.4,17.8-69.2,38.1-68.2,73.4c1.2,43.6,28,65.7,68.8,74.4C562.1,429.6,562.1,496.4,562.1,563.2z M524.1,52.4
	c-159,0-316.2,0-473.3,0c0,157.9,0,314.7,0,472c157.9,0,315,0,473.3,0c0-43,0.2-85-0.4-127.1c-0.1-3.8-4.5-8.9-8.3-11
	c-38.9-21.5-60.3-54.4-60.1-98.6c0.1-44.1,21.4-77.1,60.5-98.3c3.7-2,7.9-7.4,7.9-11.2C524.3,136.6,524.1,95.1,524.1,52.4z"/>
<path d="M353.4,321.9c0-15.3,0-75.2,0-91.9c-31.1,8.3-61.3,16.4-91.5,24.6c-26.1,7.1-26,7.1-26.1,34c0,23.7,0.7,96.2-0.5,119.8
	c-1.3,27.3-27.9,46.4-59.6,44.3c-28.3-1.9-50.1-24.1-48.9-50c1.3-28.5,31.8-49.5,64.4-44.5c3.8,0.6,7.5,1.5,12.9,2.5
	c0-12.3,0-72.4,0-83.7c0-27.6,0.1-55.2-0.1-82.8c0-6.3,1-10.2,8.4-12.2c57-15.2,113.9-30.9,172.5-47c0.3,5.6,0.7,10.1,0.7,14.7
	c0,55.2-0.4,155.2,0.2,210.4c0.3,23.8-9,41-30.8,50c-22.9,9.5-44.9,6.7-63.7-10.2c-13.9-12.5-18.8-28.6-12.2-46.5
	c8.1-21.7,25.5-31.6,47.6-33.5C335.4,319.3,344.1,321.2,353.4,321.9z"/>
</svg>
