<?xml version="1.0" encoding="utf-8"?>
<!-- Generator: Adobe Illustrator 21.0.2, SVG Export Plug-In . SVG Version: 6.00 Build 0)  -->
<svg version="1.1" id="Layer_1" xmlns="http://www.w3.org/2000/svg" xmlns:xlink="http://www.w3.org/1999/xlink" x="0px" y="0px"
	 width="1000px" height="1024px" viewBox="0 0 1000 1024" style="enable-background:new 0 0 1000 1024;" xml:space="preserve">
<style type="text/css">
	.st0{fill:#0A0A0A;stroke:#000000;stroke-miterlimit:10;}
	.st1{fill:#B7C4CF;}
	.st2{fill:#C6D0D9;}
	.st3{fill:#D7DDE2;}
	.st4{fill:#ECEFF2;}
	.st5{fill:#FEFEFE;}
</style>
<title>default-playlist-cover</title>
<rect x="-0.4" y="-0.4" class="st0" width="999.5" height="1021.5"/>
<path class="st1" d="M814.2,504.2c28.2,58,3,125-41.8,161.2c-30.3,24.3-64.8,36.3-104.5,35.8c-105.8-0.8-211.6,0.4-317.3-1.7
	c-41-0.8-84.4,1.3-119.9-28.2c-28.6-23.9-50.3-51.6-52.5-90.4c10.2,0.8,11.1,9.8,14.9,16.2c5.1,8.5,9,17.5,15.8,25.2
	c29.4,31.6,62.7,47.8,108.3,45.2c65.7-3.8,132.2-0.4,197.9-1.3c30.7-0.4,61.8-6,92.1-3c28.6,3,56.7,3,84.9,3
	c66.5,0,115.2-49.5,118.6-115.6C811.2,535.4,806.5,519.2,814.2,504.2z"/>
<path class="st2" d="M814.2,504.2c-7.7,14.9-3,31.1-3.8,46.5c-3.4,66.5-52,115.6-118.6,115.6c-28.2,0-56.3-0.4-84.9-3
	c-30.3-3-61.4,2.6-92.1,3c-66.1,0.4-132.2-2.6-197.9,1.3c-45.6,2.6-78.9-13.7-108.3-45.2c-6.8-7.7-11.1-16.6-15.8-25.2
	c-3.8-6.4-4.7-15.8-14.9-16.2c-11.9-60.1,9.8-106.6,58.9-141.2c2.6-2.1,6.4-2.6,9.8-3.8c0,4.7-1.7,8.1-4.7,11.5
	c-25.6,26-40.5,56.7-45.2,93.4c-3.4,24.3,17.9,72.9,38.8,86.2c42.6,26.9,88.7,27.3,136.5,19.6c19.2,6.8,36.3-0.4,53.3-7.2
	c3,7.7,9,11.1,16.6,10.2c20.9-2.6,41.8,3.8,63.1,1.3c16.6-2.1,34.1-7.7,50.3-4.7c29.9,5.5,59.3,2.6,89.2,3.8
	c43.9,1.3,84.5-10.2,116.9-40.5c18.3-17.1,34.1-36.3,36.3-64.4c3.8-51.2-19.6-84.9-61.9-109.6c-7.7-4.7-19.6-7.2-20-20
	C764.7,427,795.4,459,814.2,504.2z"/>
<path class="st3" d="M715.7,415.1c0.4,12.8,11.9,15.4,20,20c41.8,24.7,65.3,58.4,61.8,109.6c-2.1,28.2-17.9,47.3-36.3,64.4
	c-32.4,30.3-72.9,41.8-116.9,40.5c-29.9-0.8-59.3,2.1-89.2-3.8c-16.6-3-33.7,2.6-50.3,4.7c-21.3,2.6-42.2-3.8-63.1-1.3
	c-7.7,0.8-13.6-2.6-16.6-10.2c3.8-4.3,8.1-9,11.9-13.2c6.9,10.3,17.5,10.3,28.2,10.7c48.2,1.7,96-4.7,144.2-5.1
	c44.4-0.4,87.9-9,125-38c38-29.9,56.7-84.5,26.9-120.7c-25.6-31.5-77.2-72.5-137.3-52.4c-5.1,1.7-11.1,2.1-16.6,3.4c0-3-0.4-6-0.4-9
	l24.3-6.4c25.2-6.8,29.4-14.5,22.2-40.5c-1.7-6-3.4-12.8-6.8-17.9c-43.1-64.4-135.2-84.5-201.3-17.1c-6,6-4.3,11.1-2.6,17.1
	c-2.8,0.5-5.7,0.8-8.5,0.9c-7.7-5.1-21.3-3-22.2-17.1c9.4,0.4,14.1-3,12.8-12.8l0,0c6,0.4,11.1-0.9,15.8-5.1
	c25.6-23,55.5-35.4,90-38.4c50.3-4.3,92.6,10.2,123.7,52c15.4,20.9,21.3,44.4,26.5,68.7c1.3,6,0.8,11.5,9,11.9
	c5.5,0,11.1-0.4,16.6-0.4C708.4,414.2,711.8,414.7,715.7,415.1z"/>
<path class="st3" d="M371.5,647.1c-47.4,7.7-93.8,7.2-136.5-19.6c-20.9-13.2-42.2-61.8-38.8-86.2c4.7-36.3,19.6-67.4,45.2-93.4
	c3-3.4,4.7-6.8,4.7-11.5l0,0c1.3-1.3,3-2.6,4.3-3.8c8.5-3,17.1-6,25.6-8.5c9.4,1.3,13.6-3.4,12.8-12.8c13.6-8.1,16.6-24.3,27.3-35.4
	c19.2-19.2,41-33.7,61.9-49.9l37.5-1.3l0.9,0.9l-8.6,8.5c-40.1,1.3-64,26.5-83.2,56.7c-12.4,18.8-9.4,23,12.4,28.6
	c4.3,1.3,9,2.6,9,7.2c0,6-6,4.7-9.8,5.1c-11.5,1.7-23.9-4.3-34.5,4.3c-6-0.3-11.9,1.2-17.1,4.3c-27.3,6-42.6,26.5-58.4,46.9
	c-29.9,38.4-19.6,80.6,5.5,106.2c31.1,32,75.1,41,120.7,33.3C357,635.6,362.9,642.4,371.5,647.1z"/>
<path class="st2" d="M690.1,410.8c-7.7-0.4-7.7-6.4-9-11.9c-5.1-24.3-11.1-47.8-26.4-68.7c-31.1-41.8-73.4-56.7-123.7-52
	c-34.1,3-64.4,15.4-90,38.4c-4.7,4.3-9.8,5.5-15.8,5.1c-0.5-1.7-0.8-3.4-0.9-5.1c49.9-55.5,133.5-64.8,201.3-26
	c26.5,14.9,51.6,32.4,60.1,64.4C687.1,373.3,692.2,391.6,690.1,410.8z"/>
<path class="st2" d="M378.7,325.5c-20.9,16.2-43.1,31.1-61.9,49.9c-10.7,11.1-14.1,26.9-27.3,35.4c-1.3-7.2,9.4-14.9-0.9-21.8
	C299.4,350.7,334.4,325.9,378.7,325.5z"/>
<path class="st1" d="M690.1,410.8c2.1-19.2-3-37.5-4.3-56.3c14.5,15.8,17.9,35.8,20.5,55.9C701.2,410.4,695.6,410.8,690.1,410.8z"/>
<path class="st1" d="M288.7,389.1c10.2,6.8-0.4,14.5,0.9,21.8c0.9,9.4-3.4,13.7-12.8,12.8C280.2,412.1,280.2,398.9,288.7,389.1z"/>
<path class="st2" d="M250.8,432.1c-1.3,1.3-3,2.6-4.3,3.8C248,434.8,249.5,433.6,250.8,432.1z"/>
<path class="st3" d="M416.3,324.7l4.3-4.3l0.9,0.9l-4.3,4.3L416.3,324.7z"/>
<path class="st3" d="M424.8,316.1c0.5,1.7,0.8,3.4,0.9,5.1h-4.3l-0.9-0.9C421.8,318.9,423.3,317.4,424.8,316.1z"/>
<path d="M371.5,647.1c-8.5-4.3-14.5-11.5-19.2-19.6c0-10.7-5.5-22.2,2.1-32.4c9-10.2,20.9-15.8,34.1-19.6c11.1-3,23.9-2.1,33.3-10.7
	c3-1.7,5.5,6,8.1,0.8c1.7-3.4,2.1-8.1-3.8-9.8c-0.4-21.3-0.4-42.7-0.9-64v-17c0.4-37.1,0.4-73.8,0.9-110.9l0.4,0.4
	c37.1-8.1,75.1-11.9,111.3-24.7c17.1-3.8,34.5-6.8,51.6-11.9c14.1-4.3,17.5,0.9,17.5,13.6c0,24.7,0.8,49,1.3,73.8c0,3,0.4,6,0.4,9
	c-2.1,12.8-3,25.6,0,38.4c-2.1,32.4-2.6,65.3,0,97.7c-7.7,41.8-18.8,53.3-49.5,56.3c-23,2.1-35.4-11.1-46.5-27.3
	c0.4-23.5,12.8-37.5,34.5-44.8c45.2-14.9,45.2-14.9,44.4-62.7c0-5.1-0.8-9.8-1.3-14.9c2.6-6,1.7-11.9,0.4-17.9
	c2.1-7.2,2.1-14.1-0.8-20.9c0.8-26.5-0.4-27.3-25.2-22.6c-30.3,6-61,12.4-91.3,18.3c-31.6,6-31.6,6-29.4,38.4v119.4
	c-1.3,14.9-1.7,30.3-6.4,44.8c-3.8,4.3-8.1,9-11.9,13.2C407.7,646.7,390.7,653.5,371.5,647.1z"/>
<path class="st4" d="M511.4,588.7c11.5,16.2,23.9,29.4,46.5,27.3c30.7-3,41.8-14.5,49.5-56.3c30.3-6.8,58-17.1,78.9-43.1
	c10.7-13.6,16.6-26.9,9.4-39.7c-7.6-13.2-23.9-21.8-40.1-17.9c-16.2,3.4-32.4,1.7-48.2,3c-2.6-12.8-2.1-25.6,0-38.4
	c5.5-0.9,11.1-1.3,16.6-3.4c60.1-20,111.3,21.3,137.3,52.5c29.9,36.3,10.7,91.3-26.9,120.7c-37.1,29-80.6,37.5-125,38
	c-48.2,0.4-96,6.8-144.2,5.1c-10.6-0.5-21.3-0.5-28.1-10.7c4.7-14.5,5.1-29.9,6.4-44.8c12.4-1.3,23.5,4.7,35,6.4
	C489.2,589.5,500.3,601,511.4,588.7z"/>
<path class="st4" d="M607.3,415.1c-0.4-24.7-1.3-49-1.3-73.8c0-12.8-3.4-17.9-17.5-13.6c-16.6,5.1-34.1,8.1-51.6,11.9
	c-2.6-8.5-8.1-4.7-13.7-3.8c-26.9,4.7-53.7,9.4-80.2,14.1c-1.7-6-3.4-11.1,2.6-17.1c66.1-67,158.2-47.4,201.3,17.1
	c3.4,5.1,5.1,11.5,6.8,17.9c7.7,26,3.4,33.7-22.2,40.5C623.5,410.4,615.5,412.5,607.3,415.1z"/>
<path class="st4" d="M301.9,436.4c10.7-8.5,23-2.6,34.5-4.3c3.8-0.4,9.8,0.9,9.8-5.1c0-4.7-4.7-6-9-7.2c-21.8-6-24.7-9.8-12.4-28.6
	c19.6-30.3,43.5-55.9,83.6-57.2h4.3c0.9,14.1,14.5,11.9,22.2,17.1c-2.1,4.7-9,6.4-9,13.2l-0.4-0.4c-28.6-15.4-54.6-15.8-77.2,11.1
	c-11.9,14.1-11.5,28.1,2.6,39.7c4.3,3.8,9,6.8,13.6,10.2s6.8,7.2,4.7,12.8c-2.1,5.1-7.2,8.5-11.9,6.8
	C339,437.7,319.4,444.1,301.9,436.4z"/>
<path class="st1" d="M425.6,364.3c0-6.4,6.4-8.1,9-13.2c2.8-0.5,5.7-0.8,8.5-0.9c26.9-4.7,53.7-9.4,80.2-14.1
	c5.5-0.9,11.1-4.7,13.7,3.8C501.1,352,462.8,356.2,425.6,364.3z"/>
<path class="st2" d="M412.8,334h-4.3l8.5-8.5l4.3-4.3h4.3C426.9,331.1,421.8,334.9,412.8,334z"/>
<path class="st5" d="M301.9,436.4c17.5,8.1,37.1,1.3,55,8.1c4.7,1.7,9.8-1.7,11.9-6.8c2.1-5.5-0.4-9.4-4.7-12.8
	c-4.7-3.4-9.4-6.4-13.6-10.2c-13.6-11.9-14.1-25.6-2.5-39.7c22.6-26.9,48.6-26.9,77.2-11.1c-0.4,37.1-0.4,73.8-0.9,110.9
	c-10.2,2.1-16.2,8.5-19.6,19.6c7.7-0.9,13.6-1.7,19.6-2.6c0.4,21.3,0.4,42.7,0.9,64c-3.8,1.7-4.3,5.1-4.3,9
	c-9.4,8.5-22.2,7.2-33.3,10.7c-13.2,3.8-24.7,9.4-34.1,19.6c-47.8,0.8-78.5-26.9-103.2-62.7c-15.4-22.2-11.5-42.6,6.8-62.7
	c9-9.8,21.8-15.4,26.9-28.6C290,437.7,295.5,436,301.9,436.4z"/>
<path class="st4" d="M284.9,440.7c-5.1,13.2-17.9,18.8-26.9,28.6c-18.3,20-22.6,40.5-6.8,62.7c24.7,35.8,55.9,63.5,103.2,62.7
	c-7.7,10.2-2.1,21.8-2.1,32.4c-45.6,7.7-89.6-1.3-120.7-33.3c-25.2-25.6-35.4-67.8-5.6-106.2C242.2,467.1,257.6,446.6,284.9,440.7z"
	/>
<path class="st5" d="M511.4,588.7c-11.1,12.4-22.6,0.4-33.3-0.8c-11.5-1.7-22.6-7.7-35-6.4v-72.5c21.8-7.2,43.1-6.4,63.5,4.3
	c11.5,6,17.5,4.3,24.7-8.1c12.4-21.3,29.9-39.2,58-38.8c0.4,5.1,1.3,9.8,1.3,14.9c0.8,47.8,0.4,47.8-44.4,62.7
	C524.6,551.2,511.8,565.2,511.4,588.7z"/>
<path class="st5" d="M607.8,462c16.2-1.3,32,0.4,48.2-3c15.8-3.2,31.9,4,40.1,17.9c7.2,12.8,1.3,26-9.4,39.7
	c-20.9,26.5-48.6,36.3-78.9,43.1C605.2,527.3,605.6,494.9,607.8,462z"/>
<path class="st4" d="M443.1,462c-2.1-32.4-2.1-32.4,29.4-38.4c30.3-6,61-11.9,91.3-18.3c24.7-5.1,26-4.3,25.2,22.6
	c-14.5,6.4-26.5,16.6-38,26.9c-6.4,5.5-12.8,9.8-20.9,7.2C500.7,451.3,472.1,453.9,443.1,462z"/>
<path class="st4" d="M589.4,466.7c-28.6-0.9-45.6,17.1-58,38.8c-7.7,11.9-13.2,13.7-24.7,7.7c-20.5-10.7-41.8-11.5-63.5-4.3v-34.1
	c25.6-6,51.6-7.7,77.2-0.4c12.4,3.4,21.8,1.3,32.4-7.2s20.9-19.6,36.7-18.8C590.7,454.8,591.6,460.7,589.4,466.7z"/>
<path class="st2" d="M589.4,448.4c-15.8-0.9-26.5,10.2-36.7,18.8c-10.7,8.5-20,11.1-32.4,7.2c-25.6-7.2-51.6-5.5-77.2,0.4V462
	c29-8.1,58-10.7,87-0.4c8.1,2.6,14.5-1.7,20.9-7.2c11.5-10.2,23.5-20.5,38-26.9C592,434.3,591.6,441.5,589.4,448.4z"/>
<path class="st4" d="M424.8,491.9c-6,0.9-11.9,1.7-19.6,2.6c3.4-11.1,9.4-17.5,19.6-19.6V491.9z"/>
<path class="st4" d="M421.4,564.8c0-3.8,0.4-6.8,4.3-9c5.5,1.3,5.5,6.4,3.8,9.8C426.9,570.3,424.4,563.1,421.4,564.8z"/>
</svg>
