<?xml version="1.0" encoding="utf-8"?>
<!-- Generator: Adobe Illustrator 21.0.2, SVG Export Plug-In . SVG Version: 6.00 Build 0)  -->
<svg version="1.1" id="Layer_1" xmlns="http://www.w3.org/2000/svg" xmlns:xlink="http://www.w3.org/1999/xlink" x="0px" y="0px"
	 width="181px" height="179px" viewBox="0 0 181 179" style="enable-background:new 0 0 181 179;" xml:space="preserve">
<style type="text/css">
	.st0{fill:#B7C4CF;}
	.st1{fill:#C6D0D9;}
	.st2{fill:#D7DDE2;}
	.st3{fill:#302E30;}
	.st4{fill:#ECEFF2;}
	.st5{fill:#FEFEFE;}
</style>
<path class="st0" d="M166.1,89.9c6.6,13.6,0.7,29.3-9.8,37.8c-7.1,5.7-15.2,8.5-24.5,8.4c-24.8-0.2-49.6,0.1-74.4-0.4
	c-9.6-0.2-19.8,0.3-28.1-6.6c-6.7-5.6-11.8-12.1-12.3-21.2c2.4,0.2,2.6,2.3,3.5,3.8c1.2,2,2.1,4.1,3.7,5.9
	c6.9,7.4,14.7,11.2,25.4,10.6c15.4-0.9,31-0.1,46.4-0.3c7.2-0.1,14.5-1.4,21.6-0.7c6.7,0.7,13.3,0.7,19.9,0.7
	c15.6,0,27-11.6,27.8-27.1C165.4,97.2,164.3,93.4,166.1,89.9z"/>
<path class="st1" d="M166.1,89.9c-1.8,3.5-0.7,7.3-0.9,10.9c-0.8,15.6-12.2,27.1-27.8,27.1c-6.6,0-13.2-0.1-19.9-0.7
	c-7.1-0.7-14.4,0.6-21.6,0.7c-15.5,0.1-31-0.6-46.4,0.3c-10.7,0.6-18.5-3.2-25.4-10.6c-1.6-1.8-2.6-3.9-3.7-5.9
	c-0.9-1.5-1.1-3.7-3.5-3.8c-2.8-14.1,2.3-25,13.8-33.1c0.6-0.5,1.5-0.6,2.3-0.9c0,1.1-0.4,1.9-1.1,2.7c-6,6.1-9.5,13.3-10.6,21.9
	c-0.8,5.7,4.2,17.1,9.1,20.2c10,6.3,20.8,6.4,32,4.6c4.5,1.6,8.5-0.1,12.5-1.7c0.7,1.8,2.1,2.6,3.9,2.4c4.9-0.6,9.8,0.9,14.8,0.3
	c3.9-0.5,8-1.8,11.8-1.1c7,1.3,13.9,0.6,20.9,0.9c10.3,0.3,19.8-2.4,27.4-9.5c4.3-4,8-8.5,8.5-15.1c0.9-12-4.6-19.9-14.5-25.7
	c-1.8-1.1-4.6-1.7-4.7-4.7C154.5,71.8,161.7,79.3,166.1,89.9z"/>
<path class="st2" d="M143,69c0.1,3,2.8,3.6,4.7,4.7c9.8,5.8,15.3,13.7,14.5,25.7c-0.5,6.6-4.2,11.1-8.5,15.1
	c-7.6,7.1-17.1,9.8-27.4,9.5c-7-0.2-13.9,0.5-20.9-0.9c-3.9-0.7-7.9,0.6-11.8,1.1c-5,0.6-9.9-0.9-14.8-0.3c-1.8,0.2-3.2-0.6-3.9-2.4
	c0.9-1,1.9-2.1,2.8-3.1c1.6,2.4,4.1,2.4,6.6,2.5c11.3,0.4,22.5-1.1,33.8-1.2c10.4-0.1,20.6-2.1,29.3-8.9c8.9-7,13.3-19.8,6.3-28.3
	c-6-7.4-18.1-17-32.2-12.3c-1.2,0.4-2.6,0.5-3.9,0.8c0-0.7-0.1-1.4-0.1-2.1c1.9-0.5,3.8-1,5.7-1.5c5.9-1.6,6.9-3.4,5.2-9.5
	c-0.4-1.4-0.8-3-1.6-4.2c-10.1-15.1-31.7-19.8-47.2-4c-1.4,1.4-1,2.6-0.6,4c-0.7,0.1-1.3,0.2-2,0.2c-1.8-1.2-5-0.7-5.2-4
	c2.2,0.1,3.3-0.7,3-3l0,0c1.4,0.1,2.6-0.2,3.7-1.2c6-5.4,13-8.3,21.1-9c11.8-1,21.7,2.4,29,12.2c3.6,4.9,5,10.4,6.2,16.1
	c0.3,1.4,0.2,2.7,2.1,2.8c1.3,0,2.6-0.1,3.9-0.1C141.3,68.8,142.1,68.9,143,69z"/>
<path class="st2" d="M62.3,123.4c-11.1,1.8-22,1.7-32-4.6c-4.9-3.1-9.9-14.5-9.1-20.2c1.1-8.5,4.6-15.8,10.6-21.9
	c0.7-0.8,1.1-1.6,1.1-2.7c0,0,0,0,0,0c0.3-0.3,0.7-0.6,1-0.9c2-0.7,4-1.4,6-2c2.2,0.3,3.2-0.8,3-3c3.2-1.9,3.9-5.7,6.4-8.3
	c4.5-4.5,9.6-7.9,14.5-11.7c2.9-0.1,5.9-0.2,8.8-0.3c0,0,0.2,0.2,0.2,0.2c-0.7,0.7-1.3,1.3-2,2c-9.4,0.3-15,6.2-19.5,13.3
	c-2.9,4.4-2.2,5.4,2.9,6.7c1,0.3,2.1,0.6,2.1,1.7c0,1.4-1.4,1.1-2.3,1.2c-2.7,0.4-5.6-1-8.1,1c-1.4-0.1-2.8,0.3-4,1
	c-6.4,1.4-10,6.2-13.7,11c-7,9-4.6,18.9,1.3,24.9c7.3,7.5,17.6,9.6,28.3,7.8C58.9,120.7,60.3,122.3,62.3,123.4z"/>
<path class="st1" d="M137,68c-1.8-0.1-1.8-1.5-2.1-2.8c-1.2-5.7-2.6-11.2-6.2-16.1c-7.3-9.8-17.2-13.3-29-12.2
	c-8,0.7-15.1,3.6-21.1,9c-1.1,1-2.3,1.3-3.7,1.2c-0.1-0.4-0.2-0.8-0.2-1.2c11.7-13,31.3-15.2,47.2-6.1c6.2,3.5,12.1,7.6,14.1,15.1
	C136.3,59.2,137.5,63.5,137,68z"/>
<path class="st1" d="M64,48c-4.9,3.8-10.1,7.3-14.5,11.7c-2.5,2.6-3.3,6.3-6.4,8.3c-0.3-1.7,2.2-3.5-0.2-5.1
	C45.4,53.9,53.6,48.1,64,48z"/>
<path class="st0" d="M137,68c0.5-4.5-0.7-8.8-1-13.2c3.4,3.7,4.2,8.4,4.8,13.1C139.6,67.9,138.3,68,137,68z"/>
<path class="st0" d="M42.9,62.9c2.4,1.6-0.1,3.4,0.2,5.1c0.2,2.2-0.8,3.2-3,3C40.9,68.3,40.9,65.2,42.9,62.9z"/>
<path class="st1" d="M34,73c-0.3,0.3-0.7,0.6-1,0.9C33.3,73.7,33.6,73.4,34,73z"/>
<path class="st2" d="M72.8,47.8c0.3-0.3,0.7-0.7,1-1c0,0,0.2,0.2,0.2,0.2c-0.3,0.3-0.7,0.7-1,1L72.8,47.8z"/>
<path class="st2" d="M74.8,45.8c0.1,0.4,0.2,0.8,0.2,1.2c0,0,0,0,0,0c-0.3,0-0.7,0-1,0c0,0-0.2-0.2-0.2-0.2
	C74.1,46.5,74.4,46.1,74.8,45.8z"/>
<path class="st3" d="M62.3,123.4c-2-1-3.4-2.7-4.5-4.6c0-2.5-1.3-5.2,0.5-7.6c2.1-2.4,4.9-3.7,8-4.6c2.6-0.7,5.6-0.5,7.8-2.5
	c0.7-0.4,1.3,1.4,1.9,0.2c0.4-0.8,0.5-1.9-0.9-2.3c-0.1-5-0.1-10-0.2-15c0-1.3,0-2.7,0-4c0.1-8.7,0.1-17.3,0.2-26l0.1,0.1
	c8.7-1.9,17.6-2.8,26.1-5.8c4-0.9,8.1-1.6,12.1-2.8c3.3-1,4.1,0.2,4.1,3.2c0,5.8,0.2,11.5,0.3,17.3c0,0.7,0.1,1.4,0.1,2.1
	c-0.5,3-0.7,6,0,9c-0.5,7.6-0.6,15.3,0,22.9c-1.8,9.8-4.4,12.5-11.6,13.2c-5.4,0.5-8.3-2.6-10.9-6.4c0.1-5.5,3-8.8,8.1-10.5
	c10.6-3.5,10.6-3.5,10.4-14.7c0-1.2-0.2-2.3-0.3-3.5c0.6-1.4,0.4-2.8,0.1-4.2c0.5-1.7,0.5-3.3-0.2-4.9c0.2-6.2-0.1-6.4-5.9-5.3
	c-7.1,1.4-14.3,2.9-21.4,4.3c-7.4,1.4-7.4,1.4-6.9,9c0,1,0,2,0,3c0,2.7,0,5.3,0,8c0,5.7,0,11.3,0,17c-0.3,3.5-0.4,7.1-1.5,10.5
	c-0.9,1-1.9,2.1-2.8,3.1C70.8,123.3,66.8,124.9,62.3,123.4z"/>
<path class="st4" d="M95.1,109.7c2.7,3.8,5.6,6.9,10.9,6.4c7.2-0.7,9.8-3.4,11.6-13.2c7.1-1.6,13.6-4,18.5-10.1
	c2.5-3.2,3.9-6.3,2.2-9.3c-1.8-3.1-5.6-5.1-9.4-4.2c-3.8,0.8-7.6,0.4-11.3,0.7c-0.6-3-0.5-6,0-9c1.3-0.2,2.6-0.3,3.9-0.8
	c14.1-4.7,26.1,5,32.2,12.3c7,8.5,2.5,21.4-6.3,28.3c-8.7,6.8-18.9,8.8-29.3,8.9c-11.3,0.1-22.5,1.6-33.8,1.2
	c-2.5-0.1-5-0.1-6.6-2.5c1.1-3.4,1.2-7,1.5-10.5c2.9-0.3,5.5,1.1,8.2,1.5C89.9,109.9,92.5,112.6,95.1,109.7z"/>
<path class="st4" d="M117.6,69c-0.1-5.8-0.3-11.5-0.3-17.3c0-3-0.8-4.2-4.1-3.2c-3.9,1.2-8,1.9-12.1,2.8c-0.6-2-1.9-1.1-3.2-0.9
	c-6.3,1.1-12.6,2.2-18.8,3.3c-0.4-1.4-0.8-2.6,0.6-4c15.5-15.7,37.1-11.1,47.2,4c0.8,1.2,1.2,2.7,1.6,4.2c1.8,6.1,0.8,7.9-5.2,9.5
	C121.4,67.9,119.5,68.4,117.6,69z"/>
<path class="st4" d="M46,74c2.5-2,5.4-0.6,8.1-1c0.9-0.1,2.3,0.2,2.3-1.2c0-1.1-1.1-1.4-2.1-1.7c-5.1-1.4-5.8-2.3-2.9-6.7
	C56,56.3,61.6,50.3,71,50c0.3,0,0.6,0,1,0c0.2,3.3,3.4,2.8,5.2,4c-0.5,1.1-2.1,1.5-2.1,3.1c0,0-0.1-0.1-0.1-0.1
	c-6.7-3.6-12.8-3.7-18.1,2.6c-2.8,3.3-2.7,6.6,0.6,9.3c1,0.9,2.1,1.6,3.2,2.4c1.1,0.8,1.6,1.7,1.1,3c-0.5,1.2-1.7,2-2.8,1.6
	C54.7,74.3,50.1,75.8,46,74z"/>
<path class="st0" d="M75,57.1c0-1.5,1.5-1.9,2.1-3.1c0.7-0.1,1.3-0.2,2-0.2c6.3-1.1,12.6-2.2,18.8-3.3c1.3-0.2,2.6-1.1,3.2,0.9
	C92.7,54.2,83.7,55.2,75,57.1z"/>
<path class="st1" d="M72,50c-0.3,0-0.6,0-1,0c0.7-0.7,1.3-1.3,2-2c0.3-0.3,0.7-0.7,1-1c0.3,0,0.7,0,1,0C75.3,49.3,74.1,50.2,72,50z"
	/>
<path class="st5" d="M46,74c4.1,1.9,8.7,0.3,12.9,1.9c1.1,0.4,2.3-0.4,2.8-1.6c0.5-1.3-0.1-2.2-1.1-3c-1.1-0.8-2.2-1.5-3.2-2.4
	c-3.2-2.8-3.3-6-0.6-9.3c5.3-6.3,11.4-6.3,18.1-2.6c-0.1,8.7-0.1,17.3-0.2,26c-2.4,0.5-3.8,2-4.6,4.6c1.8-0.2,3.2-0.4,4.6-0.6
	c0.1,5,0.1,10,0.2,15c-0.9,0.4-1,1.2-1,2.1c-2.2,2-5.2,1.7-7.8,2.5c-3.1,0.9-5.8,2.2-8,4.6c-11.2,0.2-18.4-6.3-24.2-14.7
	c-3.6-5.2-2.7-10,1.6-14.7c2.1-2.3,5.1-3.6,6.3-6.7C43.2,74.3,44.5,73.9,46,74z"/>
<path class="st4" d="M42,75c-1.2,3.1-4.2,4.4-6.3,6.7c-4.3,4.7-5.3,9.5-1.6,14.7c5.8,8.4,13.1,14.9,24.2,14.7
	c-1.8,2.4-0.5,5.1-0.5,7.6c-10.7,1.8-21-0.3-28.3-7.8c-5.9-6-8.3-15.9-1.3-24.9C32,81.2,35.6,76.4,42,75z"/>
<path class="st5" d="M95.1,109.7c-2.6,2.9-5.3,0.1-7.8-0.2c-2.7-0.4-5.3-1.8-8.2-1.5c0-5.7,0-11.3,0-17c5.1-1.7,10.1-1.5,14.9,1
	c2.7,1.4,4.1,1,5.8-1.9c2.9-5,7-9.2,13.6-9.1c0.1,1.2,0.3,2.3,0.3,3.5c0.2,11.2,0.1,11.2-10.4,14.7
	C98.2,100.9,95.2,104.2,95.1,109.7z"/>
<path class="st5" d="M117.7,80c3.8-0.3,7.5,0.1,11.3-0.7c3.8-0.8,7.6,1.1,9.4,4.2c1.7,3,0.3,6.1-2.2,9.3
	c-4.9,6.2-11.4,8.5-18.5,10.1C117.1,95.3,117.2,87.7,117.7,80z"/>
<path class="st4" d="M79.1,80c-0.5-7.6-0.5-7.6,6.9-9c7.1-1.4,14.3-2.8,21.4-4.3c5.8-1.2,6.1-1,5.9,5.3c-3.4,1.5-6.2,3.9-8.9,6.3
	c-1.5,1.3-3,2.3-4.9,1.7C92.6,77.5,85.9,78.1,79.1,80z"/>
<path class="st4" d="M113.4,81.1c-6.7-0.2-10.7,4-13.6,9.1C98,93,96.7,93.4,94,92c-4.8-2.5-9.8-2.7-14.9-1c0-2.7,0-5.3,0-8
	c6-1.4,12.1-1.8,18.1-0.1c2.9,0.8,5.1,0.3,7.6-1.7c2.5-2,4.9-4.6,8.6-4.4C113.7,78.3,113.9,79.7,113.4,81.1z"/>
<path class="st1" d="M113.4,76.8c-3.7-0.2-6.2,2.4-8.6,4.4c-2.5,2-4.7,2.6-7.6,1.7c-6-1.7-12.1-1.3-18.1,0.1c0-1,0-2,0-3
	c6.8-1.9,13.6-2.5,20.4-0.1c1.9,0.6,3.4-0.4,4.9-1.7c2.7-2.4,5.5-4.8,8.9-6.3C114,73.5,113.9,75.2,113.4,76.8z"/>
<path class="st4" d="M74.8,87c-1.4,0.2-2.8,0.4-4.6,0.6c0.8-2.6,2.2-4.1,4.6-4.6C74.8,84.3,74.8,85.7,74.8,87z"/>
<path class="st4" d="M74,104.1c0-0.9,0.1-1.6,1-2.1c1.3,0.3,1.3,1.5,0.9,2.3C75.3,105.4,74.7,103.7,74,104.1z"/>
</svg>
