<?xml version="1.0" encoding="UTF-8"?>
<svg id="Layer_1" data-name="Layer 1" xmlns="http://www.w3.org/2000/svg" viewBox="0 0 350 350">
  <path d="M118.08,210.69c-1.32,0-37.74-.16-54.24-.21-6.79-.02-11.94-3.92-12.98-9.63-1.41-7.72,3.9-14.28,11.83-14.34,12.62-.1,25.25-.03,37.87-.03,15.25,0,30.5-.02,45.75,0,8.21,.01,13.16,4.81,13.18,12.96,.05,27.63,.05,55.26,0,82.89-.01,7.59-5.23,13.02-12.13,12.96-6.91-.06-11.82-5.46-11.84-13.16-.03-16.5-.01-33-.01-49.51,0-1.35,0-2.71,0-5.04-1.6,1.5-2.65,2.42-3.64,3.41-31.03,31.02-62.07,62.04-93.06,93.1-3.79,3.8-7.92,6.09-13.4,4.48-8.13-2.39-11.27-11.99-6.12-18.73,.91-1.18,2-2.23,3.06-3.29,30.66-30.68,61.33-61.36,92.02-92.02,1.06-1.06,3.91-3.46,3.72-3.86Z"/>
  <path d="M212.56,118.67c1.55-1.44,64.82-64.58,95.46-95.29,2.75-2.76,5.69-4.83,9.77-4.79,4.99,.04,8.72,2.24,10.84,6.68,2.11,4.41,1.63,8.77-1.4,12.69-.91,1.18-96.9,96.6-98.21,97.9,1.73,0,39.2-.04,56.2,.02,5.62,.02,9.91,3.26,11.6,8.4,1.59,4.87-.04,10.41-4.49,13.2-2.11,1.32-4.86,2.27-7.32,2.28-28,.16-56,.13-84,.08-7.41-.01-12.42-5.11-12.43-12.58-.04-27.88-.04-55.76,0-83.65,.01-7.36,5.1-12.59,12.01-12.58,6.85,.01,11.94,5.3,11.96,12.64,.05,16.88,.02,53.03,.02,54.99Z"/>
</svg>