<svg id="Layer_1" data-name="Layer 1" xmlns="http://www.w3.org/2000/svg" viewBox="0 0 523 520"><defs><style>.cls-1{fill:none;stroke:#000;stroke-miterlimit:10;stroke-width:31px;}</style></defs><title>pause-icon-circular</title><circle class="cls-1" cx="260" cy="260" r="242"/><path d="M222.29,380H173.43A24.43,24.43,0,0,1,149,355.57V176.43A24.43,24.43,0,0,1,173.43,152h48.86a24.43,24.43,0,0,1,24.43,24.43V355.57A24.43,24.43,0,0,1,222.29,380ZM377,355.57V176.43A24.43,24.43,0,0,0,352.57,152H303.71a24.43,24.43,0,0,0-24.43,24.43V355.57A24.43,24.43,0,0,0,303.71,380h48.86A24.43,24.43,0,0,0,377,355.57Z"/></svg>