<?xml version="1.0" encoding="UTF-8"?>
<svg id="Layer_1" data-name="Layer 1" xmlns="http://www.w3.org/2000/svg" viewBox="0 0 570 570">
  <path d="M282.77,25.41C140.79,25.41,25.69,140.51,25.69,282.49s115.1,257.08,257.08,257.08,257.08-115.1,257.08-257.08S424.75,25.41,282.77,25.41ZM95.61,239.7c-.09-.03-.18-.07-.27-.1-5.48-2.05-8.11-8.29-5.74-13.64,29.03-65.52,76.46-111.29,143.19-137.98,5.43-2.17,11.58,.69,13.42,6.24l.11,.32c1.69,5.09-.85,10.64-5.84,12.61-61.37,24.37-105.27,66.65-132.05,127.19-2.17,4.9-7.8,7.22-12.82,5.35Zm77.7,9.89c-2.21,4.82-7.71,7.17-12.68,5.33-.39-.14-.78-.29-1.17-.43-5.13-1.9-7.89-7.54-6.12-12.71,9.93-28.95,50.81-68.37,85.62-82.17,5.46-2.16,11.62,.69,13.44,6.27l.17,.51c1.64,5.02-.9,10.41-5.78,12.44-16.24,6.77-30.77,16.08-43.48,28.33-12.71,12.26-22.66,26.38-30.02,42.42Zm65.54,100.83c-21.61-14.56-35.83-39.28-35.81-67.31,.03-44.72,36.33-80.95,81.08-80.93,17.13,0,33,5.35,46.08,14.44,21.61,14.56,35.82,39.28,35.81,67.31-.03,44.72-36.32,80.95-81.08,80.92-17.13,0-33-5.35-46.07-14.44Zm80.89,48.21c-.04-.11-.07-.22-.11-.33-1.69-5.06,.83-10.52,5.74-12.6,33.61-14.29,57.97-37.75,73.49-70.75,2.26-4.81,7.79-7.13,12.77-5.27,.09,.03,.17,.06,.26,.1,5.53,2.06,8.2,8.41,5.69,13.76-17.78,37.91-45.68,64.77-84.29,81.25-5.43,2.32-11.68-.56-13.55-6.16Zm115.38,13.32c-25.32,27.64-64.27,53.79-96.15,64.91-5.34,1.87-11.18-1.02-12.97-6.38-.05-.14-.1-.29-.14-.43-1.7-5.09,.84-10.66,5.83-12.64,61.32-24.33,105.23-66.6,132.05-127.18,2.16-4.88,7.78-7.21,12.79-5.35l.19,.07c5.42,2.01,8.09,8.13,5.85,13.46-11.51,27.39-27.44,51.7-47.45,73.54Z"/>
  <path d="M304,283.18c0-6.51-3.23-12.34-8.14-15.99-3.04-2-6.64-3.2-10.5-3.27-11.01-.19-20.19,8.72-20.31,19.72-.07,6.63,3.17,12.56,8.15,16.25,3.1,2.03,6.78,3.24,10.74,3.25,11.01,.05,20.08-8.97,20.07-19.97Z"/>
</svg>