<?xml version="1.0" encoding="utf-8"?>
<!-- Generator: Adobe Illustrator 21.0.2, SVG Export Plug-In . SVG Version: 6.00 Build 0)  -->
<svg version="1.1" id="Layer_1" xmlns="http://www.w3.org/2000/svg" xmlns:xlink="http://www.w3.org/1999/xlink" x="0px" y="0px"
	 width="523px" height="520px" viewBox="0 0 523 520" style="enable-background:new 0 0 523 520;" xml:space="preserve">
<style type="text/css">
	.st0{fill:none;stroke:#000000;stroke-width:31;stroke-miterlimit:10;}
</style>
<title>play-icon-circular</title>
<circle class="st0" cx="260" cy="260" r="242"/>
<g>
	<path d="M226.4,176.6l-40.7,40.7H139c-6.1,0-11,4.9-11,11v65.9c0,6.1,4.9,11,11,11h46.7l40.7,40.7c6.9,6.9,18.7,2,18.7-7.8V184.4
		C245.1,174.6,233.2,169.7,226.4,176.6z M333.1,153.2c-5.1-3.4-12-1.9-15.3,3.2c-3.4,5.1-1.9,12,3.2,15.3
		c30.3,19.9,48.4,53.3,48.4,89.5s-18.1,69.6-48.4,89.5c-5.1,3.3-6.5,10.2-3.2,15.3c3.2,4.9,10,6.7,15.3,3.2
		c36.6-24,58.4-64.4,58.4-108S369.6,177.2,333.1,153.2z M347.6,261.2c0-29.1-14.7-55.8-39.2-71.5c-5.1-3.3-11.9-1.7-15.1,3.4
		s-1.7,12,3.4,15.3c18.2,11.6,29,31.3,29,52.8s-10.9,41.2-29,52.8c-5.1,3.3-6.6,10.1-3.4,15.3c3,4.7,9.7,6.9,15.1,3.4
		C332.9,317,347.6,290.3,347.6,261.2z M282.7,226c-5.3-2.9-12-1-14.9,4.3c-2.9,5.3-1,12,4.3,14.9c5.9,3.2,9.6,9.3,9.6,15.9
		c0,6.6-3.7,12.7-9.6,15.9c-5.3,2.9-7.2,9.6-4.3,14.9c2.9,5.3,9.6,7.2,14.9,4.3c12.9-7.1,20.9-20.6,20.9-35.2S295.6,233.2,282.7,226
		L282.7,226z"/>
</g>
</svg>
