<?xml version="1.0" encoding="utf-8"?>
<!-- Generator: Adobe Illustrator 21.0.2, SVG Export Plug-In . SVG Version: 6.00 Build 0)  -->
<svg version="1.1" id="Layer_1" xmlns="http://www.w3.org/2000/svg" xmlns:xlink="http://www.w3.org/1999/xlink" x="0px" y="0px"
	 width="1000px" height="1024px" viewBox="0 0 1000 1024" style="enable-background:new 0 0 1000 1024;" xml:space="preserve">
<style type="text/css">
	.st0{fill:#FFFFFF;}
</style>
<title>spotify-logo</title>
<path class="st0" d="M904.9,511.1c0.5,222.2-180.4,403.2-403.5,403.8c-222.2,0.6-404-180.5-404.3-403
	c-0.4-223.2,180.2-404.3,403.5-404.8C723.5,106.7,904.4,287.5,904.9,511.1z M221.9,382.2c-0.1,25.6,23.9,43.6,48.9,36.3
	c45-13.2,91.1-19.3,137.9-21.4c56-2.6,112,1.1,167.2,11c57.6,10.5,113.1,27.5,164.1,57.1c18.8,10.9,41.4,4.7,52-13.6
	s4.7-41.5-14.3-51.8s-38.2-20.5-58.1-28.7c-79.4-32.9-162.9-46.7-248.3-49.9c-50.9-1.9-101.7,0.2-151.9,9
	c-23.7,4.2-47.2,9.9-70.5,15.9C232.2,350.4,221.9,365.3,221.9,382.2L221.9,382.2z M740.5,564.5c0-13.1-5.8-22.7-16.9-29.4
	c-27.7-16.7-57-30.5-87.5-41.1c-94.9-33.2-192.1-42.4-291.6-27.5c-24.6,3.7-48.9,10.1-73,16.4c-15.9,4.1-24.9,20.1-21.9,35.6
	c3.7,19.4,21.9,29.5,41.9,24.4s40-10.4,60.4-13.5c80.2-12.3,159.5-6.4,237.4,16.1c36.1,10.4,70.5,25,102.8,44.6
	c10.5,6.4,21.6,6.8,32.3,0.8C734.9,584.8,740.2,575.4,740.5,564.5z M432,591.1c-15.5,0.9-30.9,1.6-46.4,2.8
	c-33.9,2.9-67.4,8.3-100.5,16.1c-13.6,3.1-22.1,16.6-19,30.1s16.6,22.1,30.1,19c30-6.4,60.1-11.8,90.6-14.6
	c41.3-3.8,82.5-3.4,123.6,2.9c50.1,7.7,97.1,24.1,140.6,50.3c12.9,7.8,28,4.1,35.3-8c7.5-12.4,3.5-27.5-9.5-35.4
	c-7-4.2-14.1-8.3-21.3-12.1C585.6,605.3,510.6,590.7,432,591.1z"/>
</svg>
